<?xml version="1.0" standalone="no"?>
 <!DOCTYPE svg PUBLIC "-//W3C//DTD SVG 1.1//EN" 
 "http://www.w3.org/Graphics/SVG/1.1/DTD/svg11.dtd"> 
<svg
  xmlns:svg="http://www.w3.org/2000/svg"
  xmlns="http://www.w3.org/2000/svg"
  xmlns:xlink="http://www.w3.org/1999/xlink"
  version="1.1"
  width="2.420620cm" height="1.490980cm" viewBox="0 0 9530 5870">
<title>SVG Picture created as extUsb-brd.svg date 2020/11/01 15:09:08 </title>
  <desc>Picture generated by PCBNEW </desc>
<g style="fill:#000000; fill-opacity:1;stroke:#000000; stroke-opacity:1;
stroke-linecap:round; stroke-linejoin:round;"
 transform="translate(0 0) scale(1 1)">
</g>
<g style="fill:#000000; fill-opacity:0.0; 
stroke:#000000; stroke-width:-0.000393701; stroke-opacity:1; 
stroke-linecap:round; stroke-linejoin:round;">
<g >
</g>
<g style="fill:#840000; fill-opacity:0.0; 
stroke:#840000; stroke-width:-0.000393701; stroke-opacity:1; 
stroke-linecap:round; stroke-linejoin:round;">
</g>
<g style="fill:#840000; fill-opacity:0.0; 
stroke:#840000; stroke-width:0; stroke-opacity:1; 
stroke-linecap:round; stroke-linejoin:round;">
</g>
<g style="fill:#840000; fill-opacity:1.0; 
stroke:#840000; stroke-width:0; stroke-opacity:1; 
stroke-linecap:round; stroke-linejoin:round;">
<path style="fill:#840000; fill-opacity:1.0; 
stroke:#840000; stroke-width:0; stroke-opacity:1; 
stroke-linecap:round; stroke-linejoin:round;fill-rule:evenodd;"
d="M 5630.31,1193.9
5630.31,937.992
6244.49,937.992
6244.49,1193.9
Z" /> 
<path style="fill:#840000; fill-opacity:1.0; 
stroke:#840000; stroke-width:0; stroke-opacity:1; 
stroke-linecap:round; stroke-linejoin:round;fill-rule:evenodd;"
d="M 5630.31,1941.93
5630.31,1686.02
6244.49,1686.02
6244.49,1941.93
Z" /> 
<path style="fill:#840000; fill-opacity:1.0; 
stroke:#840000; stroke-width:0; stroke-opacity:1; 
stroke-linecap:round; stroke-linejoin:round;fill-rule:evenodd;"
d="M 4567.32,1941.93
4567.32,1686.02
5181.5,1686.02
5181.5,1941.93
Z" /> 
<path style="fill:#840000; fill-opacity:1.0; 
stroke:#840000; stroke-width:0; stroke-opacity:1; 
stroke-linecap:round; stroke-linejoin:round;fill-rule:evenodd;"
d="M 4567.32,1567.91
4567.32,1312.01
5181.5,1312.01
5181.5,1567.91
Z" /> 
<path style="fill:#840000; fill-opacity:1.0; 
stroke:#840000; stroke-width:0; stroke-opacity:1; 
stroke-linecap:round; stroke-linejoin:round;fill-rule:evenodd;"
d="M 4567.32,1193.9
4567.32,937.992
5181.5,937.992
5181.5,1193.9
Z" /> 
</g>
<g >
</g>
<g style="fill:#848400; fill-opacity:1.0; 
stroke:#848400; stroke-width:0; stroke-opacity:1; 
stroke-linecap:round; stroke-linejoin:round;">
<path style="fill:#848400; fill-opacity:1.0; 
stroke:#848400; stroke-width:0; stroke-opacity:1; 
stroke-linecap:round; stroke-linejoin:round;fill-rule:evenodd;"
d="M 8071.26,5374.61
8071.26,4705.31
8740.55,4705.31
8740.55,5374.61
Z" /> 
<circle cx="8405.91" cy="4039.96" r="334.646" /> 
<circle cx="8405.91" cy="3039.96" r="334.646" /> 
<circle cx="8405.91" cy="2039.96" r="334.646" /> 
<circle cx="8405.91" cy="1039.96" r="334.646" /> 
</g>
<g >
</g>
<g style="fill:#840000; fill-opacity:1.0; 
stroke:#840000; stroke-width:0; stroke-opacity:1; 
stroke-linecap:round; stroke-linejoin:round;">
<path style="fill:#840000; fill-opacity:1.0; 
stroke:#840000; stroke-width:0; stroke-opacity:1; 
stroke-linecap:round; stroke-linejoin:round;fill-rule:evenodd;"
d="M 3508.57,4568.36
3517.65,4569.71
3526.55,4571.94
3535.19,4575.03
3543.49,4578.95
3551.36,4583.67
3558.73,4589.14
3565.53,4595.3
3571.69,4602.1
3577.16,4609.47
3581.87,4617.34
3585.8,4625.64
3588.89,4634.27
3591.12,4643.18
3592.46,4652.25
3592.91,4661.42
3592.91,4897.64
3592.46,4906.8
3591.12,4915.88
3588.89,4924.78
3585.8,4933.42
3581.87,4941.72
3577.16,4949.59
3571.69,4956.96
3565.53,4963.76
3558.73,4969.92
3551.36,4975.38
3543.49,4980.1
3535.19,4984.02
3526.55,4987.12
3517.65,4989.35
3508.57,4990.69
3499.41,4991.14
3312.4,4991.14
3303.24,4990.69
3294.16,4989.35
3285.26,4987.12
3276.62,4984.02
3268.32,4980.1
3260.45,4975.38
3253.08,4969.92
3246.28,4963.76
3240.12,4956.96
3234.66,4949.59
3229.94,4941.72
3226.02,4933.42
3222.92,4924.78
3220.69,4915.88
3219.35,4906.8
3218.9,4897.64
3218.9,4661.42
3219.35,4652.25
3220.69,4643.18
3222.92,4634.27
3226.02,4625.64
3229.94,4617.34
3234.66,4609.47
3240.12,4602.1
3246.28,4595.3
3253.08,4589.14
3260.45,4583.67
3268.32,4578.95
3276.62,4575.03
3285.26,4571.94
3294.16,4569.71
3303.24,4568.36
3312.4,4567.91
3499.41,4567.91
Z" /> 
<path style="fill:#840000; fill-opacity:1.0; 
stroke:#840000; stroke-width:0; stroke-opacity:1; 
stroke-linecap:round; stroke-linejoin:round;fill-rule:evenodd;"
d="M 3508.57,3889.23
3517.65,3890.58
3526.55,3892.81
3535.19,3895.9
3543.49,3899.82
3551.36,3904.54
3558.73,3910
3565.53,3916.17
3571.69,3922.97
3577.16,3930.34
3581.87,3938.21
3585.8,3946.5
3588.89,3955.14
3591.12,3964.04
3592.46,3973.12
3592.91,3982.28
3592.91,4218.5
3592.46,4227.67
3591.12,4236.75
3588.89,4245.65
3585.8,4254.29
3581.87,4262.58
3577.16,4270.45
3571.69,4277.82
3565.53,4284.62
3558.73,4290.78
3551.36,4296.25
3543.49,4300.97
3535.19,4304.89
3526.55,4307.98
3517.65,4310.21
3508.57,4311.56
3499.41,4312.01
3312.4,4312.01
3303.24,4311.56
3294.16,4310.21
3285.26,4307.98
3276.62,4304.89
3268.32,4300.97
3260.45,4296.25
3253.08,4290.78
3246.28,4284.62
3240.12,4277.82
3234.66,4270.45
3229.94,4262.58
3226.02,4254.29
3222.92,4245.65
3220.69,4236.75
3219.35,4227.67
3218.9,4218.5
3218.9,3982.28
3219.35,3973.12
3220.69,3964.04
3222.92,3955.14
3226.02,3946.5
3229.94,3938.21
3234.66,3930.34
3240.12,3922.97
3246.28,3916.17
3253.08,3910
3260.45,3904.54
3268.32,3899.82
3276.62,3895.9
3285.26,3892.81
3294.16,3890.58
3303.24,3889.23
3312.4,3888.78
3499.41,3888.78
Z" /> 
</g>
<g >
</g>
<g style="fill:#840000; fill-opacity:1.0; 
stroke:#840000; stroke-width:0; stroke-opacity:1; 
stroke-linecap:round; stroke-linejoin:round;">
<path style="fill:#840000; fill-opacity:1.0; 
stroke:#840000; stroke-width:0; stroke-opacity:1; 
stroke-linecap:round; stroke-linejoin:round;fill-rule:evenodd;"
d="M 3508.57,1968.36
3517.65,1969.71
3526.55,1971.94
3535.19,1975.03
3543.49,1978.95
3551.36,1983.67
3558.73,1989.14
3565.53,1995.3
3571.69,2002.1
3577.16,2009.47
3581.87,2017.34
3585.8,2025.64
3588.89,2034.27
3591.12,2043.18
3592.46,2052.25
3592.91,2061.42
3592.91,2297.64
3592.46,2306.8
3591.12,2315.88
3588.89,2324.78
3585.8,2333.42
3581.87,2341.72
3577.16,2349.59
3571.69,2356.96
3565.53,2363.76
3558.73,2369.92
3551.36,2375.38
3543.49,2380.1
3535.19,2384.02
3526.55,2387.12
3517.65,2389.35
3508.57,2390.69
3499.41,2391.14
3312.4,2391.14
3303.24,2390.69
3294.16,2389.35
3285.26,2387.12
3276.62,2384.02
3268.32,2380.1
3260.45,2375.38
3253.08,2369.92
3246.28,2363.76
3240.12,2356.96
3234.66,2349.59
3229.94,2341.72
3226.02,2333.42
3222.92,2324.78
3220.69,2315.88
3219.35,2306.8
3218.9,2297.64
3218.9,2061.42
3219.35,2052.25
3220.69,2043.18
3222.92,2034.27
3226.02,2025.64
3229.94,2017.34
3234.66,2009.47
3240.12,2002.1
3246.28,1995.3
3253.08,1989.14
3260.45,1983.67
3268.32,1978.95
3276.62,1975.03
3285.26,1971.94
3294.16,1969.71
3303.24,1968.36
3312.4,1967.91
3499.41,1967.91
Z" /> 
<path style="fill:#840000; fill-opacity:1.0; 
stroke:#840000; stroke-width:0; stroke-opacity:1; 
stroke-linecap:round; stroke-linejoin:round;fill-rule:evenodd;"
d="M 3508.57,1289.23
3517.65,1290.58
3526.55,1292.81
3535.19,1295.9
3543.49,1299.82
3551.36,1304.54
3558.73,1310
3565.53,1316.17
3571.69,1322.97
3577.16,1330.34
3581.87,1338.21
3585.8,1346.5
3588.89,1355.14
3591.12,1364.04
3592.46,1373.12
3592.91,1382.28
3592.91,1618.5
3592.46,1627.67
3591.12,1636.75
3588.89,1645.65
3585.8,1654.29
3581.87,1662.58
3577.16,1670.45
3571.69,1677.82
3565.53,1684.62
3558.73,1690.78
3551.36,1696.25
3543.49,1700.97
3535.19,1704.89
3526.55,1707.98
3517.65,1710.21
3508.57,1711.56
3499.41,1712.01
3312.4,1712.01
3303.24,1711.56
3294.16,1710.21
3285.26,1707.98
3276.62,1704.89
3268.32,1700.97
3260.45,1696.25
3253.08,1690.78
3246.28,1684.62
3240.12,1677.82
3234.66,1670.45
3229.94,1662.58
3226.02,1654.29
3222.92,1645.65
3220.69,1636.75
3219.35,1627.67
3218.9,1618.5
3218.9,1382.28
3219.35,1373.12
3220.69,1364.04
3222.92,1355.14
3226.02,1346.5
3229.94,1338.21
3234.66,1330.34
3240.12,1322.97
3246.28,1316.17
3253.08,1310
3260.45,1304.54
3268.32,1299.82
3276.62,1295.9
3285.26,1292.81
3294.16,1290.58
3303.24,1289.23
3312.4,1288.78
3499.41,1288.78
Z" /> 
</g>
<g >
</g>
<g style="fill:#840000; fill-opacity:1.0; 
stroke:#840000; stroke-width:0; stroke-opacity:1; 
stroke-linecap:round; stroke-linejoin:round;">
<path style="fill:#840000; fill-opacity:1.0; 
stroke:#840000; stroke-width:0; stroke-opacity:1; 
stroke-linecap:round; stroke-linejoin:round;fill-rule:evenodd;"
d="M 7708.57,3889.23
7717.65,3890.58
7726.55,3892.81
7735.19,3895.9
7743.49,3899.82
7751.36,3904.54
7758.73,3910
7765.53,3916.17
7771.69,3922.97
7777.16,3930.34
7781.87,3938.21
7785.8,3946.5
7788.89,3955.14
7791.12,3964.04
7792.46,3973.12
7792.91,3982.28
7792.91,4218.5
7792.46,4227.67
7791.12,4236.75
7788.89,4245.65
7785.8,4254.29
7781.87,4262.58
7777.16,4270.45
7771.69,4277.82
7765.53,4284.62
7758.73,4290.78
7751.36,4296.25
7743.49,4300.97
7735.19,4304.89
7726.55,4307.98
7717.65,4310.21
7708.57,4311.56
7699.41,4312.01
7512.4,4312.01
7503.24,4311.56
7494.16,4310.21
7485.26,4307.98
7476.62,4304.89
7468.32,4300.97
7460.45,4296.25
7453.08,4290.78
7446.28,4284.62
7440.12,4277.82
7434.66,4270.45
7429.94,4262.58
7426.02,4254.29
7422.92,4245.65
7420.69,4236.75
7419.35,4227.67
7418.9,4218.5
7418.9,3982.28
7419.35,3973.12
7420.69,3964.04
7422.92,3955.14
7426.02,3946.5
7429.94,3938.21
7434.66,3930.34
7440.12,3922.97
7446.28,3916.17
7453.08,3910
7460.45,3904.54
7468.32,3899.82
7476.62,3895.9
7485.26,3892.81
7494.16,3890.58
7503.24,3889.23
7512.4,3888.78
7699.41,3888.78
Z" /> 
<path style="fill:#840000; fill-opacity:1.0; 
stroke:#840000; stroke-width:0; stroke-opacity:1; 
stroke-linecap:round; stroke-linejoin:round;fill-rule:evenodd;"
d="M 7708.57,4568.36
7717.65,4569.71
7726.55,4571.94
7735.19,4575.03
7743.49,4578.95
7751.36,4583.67
7758.73,4589.14
7765.53,4595.3
7771.69,4602.1
7777.16,4609.47
7781.87,4617.34
7785.8,4625.64
7788.89,4634.27
7791.12,4643.18
7792.46,4652.25
7792.91,4661.42
7792.91,4897.64
7792.46,4906.8
7791.12,4915.88
7788.89,4924.78
7785.8,4933.42
7781.87,4941.72
7777.16,4949.59
7771.69,4956.96
7765.53,4963.76
7758.73,4969.92
7751.36,4975.38
7743.49,4980.1
7735.19,4984.02
7726.55,4987.12
7717.65,4989.35
7708.57,4990.69
7699.41,4991.14
7512.4,4991.14
7503.24,4990.69
7494.16,4989.35
7485.26,4987.12
7476.62,4984.02
7468.32,4980.1
7460.45,4975.38
7453.08,4969.92
7446.28,4963.76
7440.12,4956.96
7434.66,4949.59
7429.94,4941.72
7426.02,4933.42
7422.92,4924.78
7420.69,4915.88
7419.35,4906.8
7418.9,4897.64
7418.9,4661.42
7419.35,4652.25
7420.69,4643.18
7422.92,4634.27
7426.02,4625.64
7429.94,4617.34
7434.66,4609.47
7440.12,4602.1
7446.28,4595.3
7453.08,4589.14
7460.45,4583.67
7468.32,4578.95
7476.62,4575.03
7485.26,4571.94
7494.16,4569.71
7503.24,4568.36
7512.4,4567.91
7699.41,4567.91
Z" /> 
</g>
<g >
</g>
<g style="fill:#840000; fill-opacity:1.0; 
stroke:#840000; stroke-width:0; stroke-opacity:1; 
stroke-linecap:round; stroke-linejoin:round;">
<path style="fill:#840000; fill-opacity:1.0; 
stroke:#840000; stroke-width:0; stroke-opacity:1; 
stroke-linecap:round; stroke-linejoin:round;fill-rule:evenodd;"
d="M 7008.57,1668.36
7017.65,1669.71
7026.55,1671.94
7035.19,1675.03
7043.49,1678.95
7051.36,1683.67
7058.73,1689.14
7065.53,1695.3
7071.69,1702.1
7077.16,1709.47
7081.87,1717.34
7085.8,1725.64
7088.89,1734.27
7091.12,1743.18
7092.46,1752.25
7092.91,1761.42
7092.91,1997.64
7092.46,2006.8
7091.12,2015.88
7088.89,2024.78
7085.8,2033.42
7081.87,2041.72
7077.16,2049.59
7071.69,2056.96
7065.53,2063.76
7058.73,2069.92
7051.36,2075.38
7043.49,2080.1
7035.19,2084.02
7026.55,2087.12
7017.65,2089.35
7008.57,2090.69
6999.41,2091.14
6812.4,2091.14
6803.24,2090.69
6794.16,2089.35
6785.26,2087.12
6776.62,2084.02
6768.32,2080.1
6760.45,2075.38
6753.08,2069.92
6746.28,2063.76
6740.12,2056.96
6734.66,2049.59
6729.94,2041.72
6726.02,2033.42
6722.92,2024.78
6720.69,2015.88
6719.35,2006.8
6718.9,1997.64
6718.9,1761.42
6719.35,1752.25
6720.69,1743.18
6722.92,1734.27
6726.02,1725.64
6729.94,1717.34
6734.66,1709.47
6740.12,1702.1
6746.28,1695.3
6753.08,1689.14
6760.45,1683.67
6768.32,1678.95
6776.62,1675.03
6785.26,1671.94
6794.16,1669.71
6803.24,1668.36
6812.4,1667.91
6999.41,1667.91
Z" /> 
<path style="fill:#840000; fill-opacity:1.0; 
stroke:#840000; stroke-width:0; stroke-opacity:1; 
stroke-linecap:round; stroke-linejoin:round;fill-rule:evenodd;"
d="M 7008.57,989.23
7017.65,990.576
7026.55,992.806
7035.19,995.897
7043.49,999.82
7051.36,1004.54
7058.73,1010
7065.53,1016.17
7071.69,1022.97
7077.16,1030.34
7081.87,1038.21
7085.8,1046.5
7088.89,1055.14
7091.12,1064.04
7092.46,1073.12
7092.91,1082.28
7092.91,1318.5
7092.46,1327.67
7091.12,1336.75
7088.89,1345.65
7085.8,1354.29
7081.87,1362.58
7077.16,1370.45
7071.69,1377.82
7065.53,1384.62
7058.73,1390.78
7051.36,1396.25
7043.49,1400.97
7035.19,1404.89
7026.55,1407.98
7017.65,1410.21
7008.57,1411.56
6999.41,1412.01
6812.4,1412.01
6803.24,1411.56
6794.16,1410.21
6785.26,1407.98
6776.62,1404.89
6768.32,1400.97
6760.45,1396.25
6753.08,1390.78
6746.28,1384.62
6740.12,1377.82
6734.66,1370.45
6729.94,1362.58
6726.02,1354.29
6722.92,1345.65
6720.69,1336.75
6719.35,1327.67
6718.9,1318.5
6718.9,1082.28
6719.35,1073.12
6720.69,1064.04
6722.92,1055.14
6726.02,1046.5
6729.94,1038.21
6734.66,1030.34
6740.12,1022.97
6746.28,1016.17
6753.08,1010
6760.45,1004.54
6768.32,999.82
6776.62,995.897
6785.26,992.806
6794.16,990.576
6803.24,989.23
6812.4,988.78
6999.41,988.78
Z" /> 
</g>
<g >
</g>
<g style="fill:#840000; fill-opacity:1.0; 
stroke:#840000; stroke-width:0; stroke-opacity:1; 
stroke-linecap:round; stroke-linejoin:round;">
<path style="fill:#840000; fill-opacity:1.0; 
stroke:#840000; stroke-width:0; stroke-opacity:1; 
stroke-linecap:round; stroke-linejoin:round;fill-rule:evenodd;"
d="M 4208.57,889.23
4217.65,890.576
4226.55,892.806
4235.19,895.897
4243.49,899.82
4251.36,904.538
4258.73,910.004
4265.53,916.166
4271.69,922.965
4277.16,930.335
4281.87,938.206
4285.8,946.501
4288.89,955.141
4291.12,964.042
4292.46,973.119
4292.91,982.283
4292.91,1218.5
4292.46,1227.67
4291.12,1236.75
4288.89,1245.65
4285.8,1254.29
4281.87,1262.58
4277.16,1270.45
4271.69,1277.82
4265.53,1284.62
4258.73,1290.78
4251.36,1296.25
4243.49,1300.97
4235.19,1304.89
4226.55,1307.98
4217.65,1310.21
4208.57,1311.56
4199.41,1312.01
4012.4,1312.01
4003.24,1311.56
3994.16,1310.21
3985.26,1307.98
3976.62,1304.89
3968.32,1300.97
3960.45,1296.25
3953.08,1290.78
3946.28,1284.62
3940.12,1277.82
3934.66,1270.45
3929.94,1262.58
3926.02,1254.29
3922.92,1245.65
3920.69,1236.75
3919.35,1227.67
3918.9,1218.5
3918.9,982.283
3919.35,973.119
3920.69,964.042
3922.92,955.141
3926.02,946.501
3929.94,938.206
3934.66,930.335
3940.12,922.965
3946.28,916.166
3953.08,910.004
3960.45,904.538
3968.32,899.82
3976.62,895.897
3985.26,892.806
3994.16,890.576
4003.24,889.23
4012.4,888.78
4199.41,888.78
Z" /> 
<path style="fill:#840000; fill-opacity:1.0; 
stroke:#840000; stroke-width:0; stroke-opacity:1; 
stroke-linecap:round; stroke-linejoin:round;fill-rule:evenodd;"
d="M 4208.57,1568.36
4217.65,1569.71
4226.55,1571.94
4235.19,1575.03
4243.49,1578.95
4251.36,1583.67
4258.73,1589.14
4265.53,1595.3
4271.69,1602.1
4277.16,1609.47
4281.87,1617.34
4285.8,1625.64
4288.89,1634.27
4291.12,1643.18
4292.46,1652.25
4292.91,1661.42
4292.91,1897.64
4292.46,1906.8
4291.12,1915.88
4288.89,1924.78
4285.8,1933.42
4281.87,1941.72
4277.16,1949.59
4271.69,1956.96
4265.53,1963.76
4258.73,1969.92
4251.36,1975.38
4243.49,1980.1
4235.19,1984.02
4226.55,1987.12
4217.65,1989.35
4208.57,1990.69
4199.41,1991.14
4012.4,1991.14
4003.24,1990.69
3994.16,1989.35
3985.26,1987.12
3976.62,1984.02
3968.32,1980.1
3960.45,1975.38
3953.08,1969.92
3946.28,1963.76
3940.12,1956.96
3934.66,1949.59
3929.94,1941.72
3926.02,1933.42
3922.92,1924.78
3920.69,1915.88
3919.35,1906.8
3918.9,1897.64
3918.9,1661.42
3919.35,1652.25
3920.69,1643.18
3922.92,1634.27
3926.02,1625.64
3929.94,1617.34
3934.66,1609.47
3940.12,1602.1
3946.28,1595.3
3953.08,1589.14
3960.45,1583.67
3968.32,1578.95
3976.62,1575.03
3985.26,1571.94
3994.16,1569.71
4003.24,1568.36
4012.4,1567.91
4199.41,1567.91
Z" /> 
</g>
<g >
</g>
<g style="fill:#840000; fill-opacity:1.0; 
stroke:#840000; stroke-width:0; stroke-opacity:1; 
stroke-linecap:round; stroke-linejoin:round;">
<path style="fill:#840000; fill-opacity:1.0; 
stroke:#840000; stroke-width:0; stroke-opacity:1; 
stroke-linecap:round; stroke-linejoin:round;fill-rule:evenodd;"
d="M 2772.75,753.403
2781.82,754.749
2790.73,756.979
2799.36,760.07
2807.66,763.994
2815.53,768.711
2822.9,774.177
2829.7,780.339
2835.86,787.139
2841.33,794.509
2846.05,802.379
2849.97,810.674
2853.06,819.314
2855.29,828.215
2856.64,837.292
2857.09,846.457
2857.09,1033.46
2856.64,1042.63
2855.29,1051.71
2853.06,1060.61
2849.97,1069.25
2846.05,1077.54
2841.33,1085.41
2835.86,1092.78
2829.7,1099.58
2822.9,1105.74
2815.53,1111.21
2807.66,1115.93
2799.36,1119.85
2790.73,1122.94
2781.82,1125.17
2772.75,1126.52
2763.58,1126.97
2537.2,1126.97
2528.04,1126.52
2518.96,1125.17
2510.06,1122.94
2501.42,1119.85
2493.13,1115.93
2485.26,1111.21
2477.89,1105.74
2471.09,1099.58
2464.93,1092.78
2459.46,1085.41
2454.74,1077.54
2450.82,1069.25
2447.73,1060.61
2445.5,1051.71
2444.15,1042.63
2443.7,1033.46
2443.7,846.457
2444.15,837.292
2445.5,828.215
2447.73,819.314
2450.82,810.674
2454.74,802.379
2459.46,794.509
2464.93,787.139
2471.09,780.339
2477.89,774.177
2485.26,768.711
2493.13,763.994
2501.42,760.07
2510.06,756.979
2518.96,754.749
2528.04,753.403
2537.2,752.953
2763.58,752.953
Z" /> 
<path style="fill:#840000; fill-opacity:1.0; 
stroke:#840000; stroke-width:0; stroke-opacity:1; 
stroke-linecap:round; stroke-linejoin:round;fill-rule:evenodd;"
d="M 2083.77,753.403
2092.85,754.749
2101.75,756.979
2110.39,760.07
2118.68,763.994
2126.55,768.711
2133.92,774.177
2140.72,780.339
2146.89,787.139
2152.35,794.509
2157.07,802.379
2160.99,810.674
2164.08,819.314
2166.31,828.215
2167.66,837.292
2168.11,846.457
2168.11,1033.46
2167.66,1042.63
2166.31,1051.71
2164.08,1060.61
2160.99,1069.25
2157.07,1077.54
2152.35,1085.41
2146.89,1092.78
2140.72,1099.58
2133.92,1105.74
2126.55,1111.21
2118.68,1115.93
2110.39,1119.85
2101.75,1122.94
2092.85,1125.17
2083.77,1126.52
2074.61,1126.97
1848.23,1126.97
1839.06,1126.52
1829.99,1125.17
1821.09,1122.94
1812.45,1119.85
1804.15,1115.93
1796.28,1111.21
1788.91,1105.74
1782.11,1099.58
1775.95,1092.78
1770.48,1085.41
1765.77,1077.54
1761.84,1069.25
1758.75,1060.61
1756.52,1051.71
1755.17,1042.63
1754.72,1033.46
1754.72,846.457
1755.17,837.292
1756.52,828.215
1758.75,819.314
1761.84,810.674
1765.77,802.379
1770.48,794.509
1775.95,787.139
1782.11,780.339
1788.91,774.177
1796.28,768.711
1804.15,763.994
1812.45,760.07
1821.09,756.979
1829.99,754.749
1839.06,753.403
1848.23,752.953
2074.61,752.953
Z" /> 
</g>
<g >
</g>
<g style="fill:#840000; fill-opacity:1.0; 
stroke:#840000; stroke-width:0; stroke-opacity:1; 
stroke-linecap:round; stroke-linejoin:round;">
<path style="fill:#840000; fill-opacity:1.0; 
stroke:#840000; stroke-width:0; stroke-opacity:1; 
stroke-linecap:round; stroke-linejoin:round;fill-rule:evenodd;"
d="M 1144.69,3138.39
1892.72,3138.39
1892.72,3728.94
1144.69,3728.94
Z" /> 
</g>
<g style="fill:#848400; fill-opacity:1.0; 
stroke:#848400; stroke-width:0; stroke-opacity:1; 
stroke-linecap:round; stroke-linejoin:round;">
<circle cx="2581.69" cy="2055.71" r="285.433" /> 
</g>
<g style="fill:#848400; fill-opacity:1.0; 
stroke:#848400; stroke-width:39.3701; stroke-opacity:1; 
stroke-linecap:round; stroke-linejoin:round;">
</g>
<g style="fill:#840000; fill-opacity:1.0; 
stroke:#840000; stroke-width:39.3701; stroke-opacity:1; 
stroke-linecap:round; stroke-linejoin:round;">
</g>
<g style="fill:#840000; fill-opacity:1.0; 
stroke:#840000; stroke-width:0; stroke-opacity:1; 
stroke-linecap:round; stroke-linejoin:round;">
<path style="fill:#840000; fill-opacity:1.0; 
stroke:#840000; stroke-width:0; stroke-opacity:1; 
stroke-linecap:round; stroke-linejoin:round;fill-rule:evenodd;"
d="M 2315.94,2705.31
2847.44,2705.31
2847.44,2862.8
2315.94,2862.8
Z" /> 
<path style="fill:#840000; fill-opacity:1.0; 
stroke:#840000; stroke-width:0; stroke-opacity:1; 
stroke-linecap:round; stroke-linejoin:round;fill-rule:evenodd;"
d="M 2315.94,2449.41
2847.44,2449.41
2847.44,2606.89
2315.94,2606.89
Z" /> 
<path style="fill:#840000; fill-opacity:1.0; 
stroke:#840000; stroke-width:0; stroke-opacity:1; 
stroke-linecap:round; stroke-linejoin:round;fill-rule:evenodd;"
d="M 2315.94,3473.03
2847.44,3473.03
2847.44,3630.51
2315.94,3630.51
Z" /> 
<path style="fill:#840000; fill-opacity:1.0; 
stroke:#840000; stroke-width:0; stroke-opacity:1; 
stroke-linecap:round; stroke-linejoin:round;fill-rule:evenodd;"
d="M 2315.94,3217.13
2847.44,3217.13
2847.44,3374.61
2315.94,3374.61
Z" /> 
<path style="fill:#840000; fill-opacity:1.0; 
stroke:#840000; stroke-width:0; stroke-opacity:1; 
stroke-linecap:round; stroke-linejoin:round;fill-rule:evenodd;"
d="M 2315.94,2961.22
2847.44,2961.22
2847.44,3118.7
2315.94,3118.7
Z" /> 
</g>
<g style="fill:#848400; fill-opacity:1.0; 
stroke:#848400; stroke-width:0; stroke-opacity:1; 
stroke-linecap:round; stroke-linejoin:round;">
<circle cx="2581.69" cy="4024.21" r="285.433" /> 
</g>
<g style="fill:#848400; fill-opacity:1.0; 
stroke:#848400; stroke-width:39.3701; stroke-opacity:1; 
stroke-linecap:round; stroke-linejoin:round;">
</g>
<g style="fill:#840000; fill-opacity:1.0; 
stroke:#840000; stroke-width:39.3701; stroke-opacity:1; 
stroke-linecap:round; stroke-linejoin:round;">
</g>
<g style="fill:#840000; fill-opacity:1.0; 
stroke:#840000; stroke-width:0; stroke-opacity:1; 
stroke-linecap:round; stroke-linejoin:round;">
<path style="fill:#840000; fill-opacity:1.0; 
stroke:#840000; stroke-width:0; stroke-opacity:1; 
stroke-linecap:round; stroke-linejoin:round;fill-rule:evenodd;"
d="M 1144.69,2350.98
1892.72,2350.98
1892.72,2941.54
1144.69,2941.54
Z" /> 
</g>
<g style="fill:#848400; fill-opacity:1.0; 
stroke:#848400; stroke-width:0; stroke-opacity:1; 
stroke-linecap:round; stroke-linejoin:round;">
</g>
<g style="fill:#848400; fill-opacity:1.0; 
stroke:#848400; stroke-width:472.441; stroke-opacity:1; 
stroke-linecap:round; stroke-linejoin:round;">
</g>
<g style="fill:#848400; fill-opacity:0.0; 
stroke:#848400; stroke-width:472.441; stroke-opacity:1; 
stroke-linecap:round; stroke-linejoin:round;">
<path d="M1380 1662
L1656 1662
" />
<path d="M1656 4417
L1380 4417
" />
</g>
<g style="fill:#840000; fill-opacity:0.0; 
stroke:#840000; stroke-width:472.441; stroke-opacity:1; 
stroke-linecap:round; stroke-linejoin:round;">
</g>
<g style="fill:#840000; fill-opacity:0.0; 
stroke:#840000; stroke-width:0; stroke-opacity:1; 
stroke-linecap:round; stroke-linejoin:round;">
</g>
<g style="fill:#840000; fill-opacity:1.0; 
stroke:#840000; stroke-width:0; stroke-opacity:1; 
stroke-linecap:round; stroke-linejoin:round;">
<path style="fill:#840000; fill-opacity:1.0; 
stroke:#840000; stroke-width:0; stroke-opacity:1; 
stroke-linecap:round; stroke-linejoin:round;fill-rule:evenodd;"
d="M 1144.69,3945.47
1892.72,3945.47
1892.72,4417.91
1144.69,4417.91
Z" /> 
<path style="fill:#840000; fill-opacity:1.0; 
stroke:#840000; stroke-width:0; stroke-opacity:1; 
stroke-linecap:round; stroke-linejoin:round;fill-rule:evenodd;"
d="M 1144.69,1662.01
1892.72,1662.01
1892.72,2134.45
1144.69,2134.45
Z" /> 
</g>
<g >
</g>
<g style="fill:#840000; fill-opacity:1.0; 
stroke:#840000; stroke-width:0; stroke-opacity:1; 
stroke-linecap:round; stroke-linejoin:round;">
<path style="fill:#840000; fill-opacity:1.0; 
stroke:#840000; stroke-width:0; stroke-opacity:1; 
stroke-linecap:round; stroke-linejoin:round;fill-rule:evenodd;"
d="M 4641.34,4323.43
4641.34,4008.46
5389.37,4008.46
5389.37,4323.43
Z" /> 
<path style="fill:#840000; fill-opacity:1.0; 
stroke:#840000; stroke-width:0; stroke-opacity:1; 
stroke-linecap:round; stroke-linejoin:round;fill-rule:evenodd;"
d="M 4641.34,5071.46
4641.34,4756.5
5389.37,4756.5
5389.37,5071.46
Z" /> 
<path style="fill:#840000; fill-opacity:1.0; 
stroke:#840000; stroke-width:0; stroke-opacity:1; 
stroke-linecap:round; stroke-linejoin:round;fill-rule:evenodd;"
d="M 5822.44,4697.44
5822.44,4382.48
6570.47,4382.48
6570.47,4697.44
Z" /> 
</g>
<g >
</g>
<g style="fill:#840000; fill-opacity:1.0; 
stroke:#840000; stroke-width:0; stroke-opacity:1; 
stroke-linecap:round; stroke-linejoin:round;">
<path style="fill:#840000; fill-opacity:1.0; 
stroke:#840000; stroke-width:0; stroke-opacity:1; 
stroke-linecap:round; stroke-linejoin:round;fill-rule:evenodd;"
d="M 4272.75,3253.4
4281.82,3254.75
4290.73,3256.98
4299.36,3260.07
4307.66,3263.99
4315.53,3268.71
4322.9,3274.18
4329.7,3280.34
4335.86,3287.14
4341.33,3294.51
4346.05,3302.38
4349.97,3310.67
4353.06,3319.31
4355.29,3328.21
4356.64,3337.29
4357.09,3346.46
4357.09,3533.46
4356.64,3542.63
4355.29,3551.71
4353.06,3560.61
4349.97,3569.25
4346.05,3577.54
4341.33,3585.41
4335.86,3592.78
4329.7,3599.58
4322.9,3605.74
4315.53,3611.21
4307.66,3615.93
4299.36,3619.85
4290.73,3622.94
4281.82,3625.17
4272.75,3626.52
4263.58,3626.97
4066.73,3626.97
4057.57,3626.52
4048.49,3625.17
4039.59,3622.94
4030.95,3619.85
4022.65,3615.93
4014.78,3611.21
4007.41,3605.74
4000.61,3599.58
3994.45,3592.78
3988.99,3585.41
3984.27,3577.54
3980.35,3569.25
3977.25,3560.61
3975.02,3551.71
3973.68,3542.63
3973.23,3533.46
3973.23,3346.46
3973.68,3337.29
3975.02,3328.21
3977.25,3319.31
3980.35,3310.67
3984.27,3302.38
3988.99,3294.51
3994.45,3287.14
4000.61,3280.34
4007.41,3274.18
4014.78,3268.71
4022.65,3263.99
4030.95,3260.07
4039.59,3256.98
4048.49,3254.75
4057.57,3253.4
4066.73,3252.95
4263.58,3252.95
Z" /> 
<path style="fill:#840000; fill-opacity:1.0; 
stroke:#840000; stroke-width:0; stroke-opacity:1; 
stroke-linecap:round; stroke-linejoin:round;fill-rule:evenodd;"
d="M 3554.24,3253.4
3563.32,3254.75
3572.22,3256.98
3580.86,3260.07
3589.16,3263.99
3597.03,3268.71
3604.4,3274.18
3611.2,3280.34
3617.36,3287.14
3622.82,3294.51
3627.54,3302.38
3631.46,3310.67
3634.56,3319.31
3636.79,3328.21
3638.13,3337.29
3638.58,3346.46
3638.58,3533.46
3638.13,3542.63
3636.79,3551.71
3634.56,3560.61
3631.46,3569.25
3627.54,3577.54
3622.82,3585.41
3617.36,3592.78
3611.2,3599.58
3604.4,3605.74
3597.03,3611.21
3589.16,3615.93
3580.86,3619.85
3572.22,3622.94
3563.32,3625.17
3554.24,3626.52
3545.08,3626.97
3348.23,3626.97
3339.06,3626.52
3329.99,3625.17
3321.09,3622.94
3312.45,3619.85
3304.15,3615.93
3296.28,3611.21
3288.91,3605.74
3282.11,3599.58
3275.95,3592.78
3270.48,3585.41
3265.77,3577.54
3261.84,3569.25
3258.75,3560.61
3256.52,3551.71
3255.17,3542.63
3254.72,3533.46
3254.72,3346.46
3255.17,3337.29
3256.52,3328.21
3258.75,3319.31
3261.84,3310.67
3265.77,3302.38
3270.48,3294.51
3275.95,3287.14
3282.11,3280.34
3288.91,3274.18
3296.28,3268.71
3304.15,3263.99
3312.45,3260.07
3321.09,3256.98
3329.99,3254.75
3339.06,3253.4
3348.23,3252.95
3545.08,3252.95
Z" /> 
</g>
<g >
</g>
<g style="fill:#840000; fill-opacity:1.0; 
stroke:#840000; stroke-width:0; stroke-opacity:1; 
stroke-linecap:round; stroke-linejoin:round;">
<path style="fill:#840000; fill-opacity:1.0; 
stroke:#840000; stroke-width:0; stroke-opacity:1; 
stroke-linecap:round; stroke-linejoin:round;fill-rule:evenodd;"
d="M 3554.24,2653.4
3563.32,2654.75
3572.22,2656.98
3580.86,2660.07
3589.16,2663.99
3597.03,2668.71
3604.4,2674.18
3611.2,2680.34
3617.36,2687.14
3622.82,2694.51
3627.54,2702.38
3631.46,2710.67
3634.56,2719.31
3636.79,2728.21
3638.13,2737.29
3638.58,2746.46
3638.58,2933.46
3638.13,2942.63
3636.79,2951.71
3634.56,2960.61
3631.46,2969.25
3627.54,2977.54
3622.82,2985.41
3617.36,2992.78
3611.2,2999.58
3604.4,3005.74
3597.03,3011.21
3589.16,3015.93
3580.86,3019.85
3572.22,3022.94
3563.32,3025.17
3554.24,3026.52
3545.08,3026.97
3348.23,3026.97
3339.06,3026.52
3329.99,3025.17
3321.09,3022.94
3312.45,3019.85
3304.15,3015.93
3296.28,3011.21
3288.91,3005.74
3282.11,2999.58
3275.95,2992.78
3270.48,2985.41
3265.77,2977.54
3261.84,2969.25
3258.75,2960.61
3256.52,2951.71
3255.17,2942.63
3254.72,2933.46
3254.72,2746.46
3255.17,2737.29
3256.52,2728.21
3258.75,2719.31
3261.84,2710.67
3265.77,2702.38
3270.48,2694.51
3275.95,2687.14
3282.11,2680.34
3288.91,2674.18
3296.28,2668.71
3304.15,2663.99
3312.45,2660.07
3321.09,2656.98
3329.99,2654.75
3339.06,2653.4
3348.23,2652.95
3545.08,2652.95
Z" /> 
<path style="fill:#840000; fill-opacity:1.0; 
stroke:#840000; stroke-width:0; stroke-opacity:1; 
stroke-linecap:round; stroke-linejoin:round;fill-rule:evenodd;"
d="M 4272.75,2653.4
4281.82,2654.75
4290.73,2656.98
4299.36,2660.07
4307.66,2663.99
4315.53,2668.71
4322.9,2674.18
4329.7,2680.34
4335.86,2687.14
4341.33,2694.51
4346.05,2702.38
4349.97,2710.67
4353.06,2719.31
4355.29,2728.21
4356.64,2737.29
4357.09,2746.46
4357.09,2933.46
4356.64,2942.63
4355.29,2951.71
4353.06,2960.61
4349.97,2969.25
4346.05,2977.54
4341.33,2985.41
4335.86,2992.78
4329.7,2999.58
4322.9,3005.74
4315.53,3011.21
4307.66,3015.93
4299.36,3019.85
4290.73,3022.94
4281.82,3025.17
4272.75,3026.52
4263.58,3026.97
4066.73,3026.97
4057.57,3026.52
4048.49,3025.17
4039.59,3022.94
4030.95,3019.85
4022.65,3015.93
4014.78,3011.21
4007.41,3005.74
4000.61,2999.58
3994.45,2992.78
3988.99,2985.41
3984.27,2977.54
3980.35,2969.25
3977.25,2960.61
3975.02,2951.71
3973.68,2942.63
3973.23,2933.46
3973.23,2746.46
3973.68,2737.29
3975.02,2728.21
3977.25,2719.31
3980.35,2710.67
3984.27,2702.38
3988.99,2694.51
3994.45,2687.14
4000.61,2680.34
4007.41,2674.18
4014.78,2668.71
4022.65,2663.99
4030.95,2660.07
4039.59,2656.98
4048.49,2654.75
4057.57,2653.4
4066.73,2652.95
4263.58,2652.95
Z" /> 
</g>
<g >
</g>
<g style="fill:#840000; fill-opacity:1.0; 
stroke:#840000; stroke-width:0; stroke-opacity:1; 
stroke-linecap:round; stroke-linejoin:round;">
<path style="fill:#840000; fill-opacity:1.0; 
stroke:#840000; stroke-width:0; stroke-opacity:1; 
stroke-linecap:round; stroke-linejoin:round;fill-rule:evenodd;"
d="M 4108.57,4607.73
4117.65,4609.08
4126.55,4611.31
4135.19,4614.4
4143.49,4618.32
4151.36,4623.04
4158.73,4628.51
4165.53,4634.67
4171.69,4641.47
4177.16,4648.84
4181.87,4656.71
4185.8,4665.01
4188.89,4673.64
4191.12,4682.55
4192.46,4691.62
4192.91,4700.79
4192.91,4897.64
4192.46,4906.8
4191.12,4915.88
4188.89,4924.78
4185.8,4933.42
4181.87,4941.72
4177.16,4949.59
4171.69,4956.96
4165.53,4963.76
4158.73,4969.92
4151.36,4975.38
4143.49,4980.1
4135.19,4984.02
4126.55,4987.12
4117.65,4989.35
4108.57,4990.69
4099.41,4991.14
3912.4,4991.14
3903.24,4990.69
3894.16,4989.35
3885.26,4987.12
3876.62,4984.02
3868.32,4980.1
3860.45,4975.38
3853.08,4969.92
3846.28,4963.76
3840.12,4956.96
3834.66,4949.59
3829.94,4941.72
3826.02,4933.42
3822.92,4924.78
3820.69,4915.88
3819.35,4906.8
3818.9,4897.64
3818.9,4700.79
3819.35,4691.62
3820.69,4682.55
3822.92,4673.64
3826.02,4665.01
3829.94,4656.71
3834.66,4648.84
3840.12,4641.47
3846.28,4634.67
3853.08,4628.51
3860.45,4623.04
3868.32,4618.32
3876.62,4614.4
3885.26,4611.31
3894.16,4609.08
3903.24,4607.73
3912.4,4607.28
4099.41,4607.28
Z" /> 
<path style="fill:#840000; fill-opacity:1.0; 
stroke:#840000; stroke-width:0; stroke-opacity:1; 
stroke-linecap:round; stroke-linejoin:round;fill-rule:evenodd;"
d="M 4108.57,3889.23
4117.65,3890.58
4126.55,3892.81
4135.19,3895.9
4143.49,3899.82
4151.36,3904.54
4158.73,3910
4165.53,3916.17
4171.69,3922.97
4177.16,3930.34
4181.87,3938.21
4185.8,3946.5
4188.89,3955.14
4191.12,3964.04
4192.46,3973.12
4192.91,3982.28
4192.91,4179.13
4192.46,4188.3
4191.12,4197.38
4188.89,4206.28
4185.8,4214.92
4181.87,4223.21
4177.16,4231.08
4171.69,4238.45
4165.53,4245.25
4158.73,4251.41
4151.36,4256.88
4143.49,4261.6
4135.19,4265.52
4126.55,4268.61
4117.65,4270.84
4108.57,4272.19
4099.41,4272.64
3912.4,4272.64
3903.24,4272.19
3894.16,4270.84
3885.26,4268.61
3876.62,4265.52
3868.32,4261.6
3860.45,4256.88
3853.08,4251.41
3846.28,4245.25
3840.12,4238.45
3834.66,4231.08
3829.94,4223.21
3826.02,4214.92
3822.92,4206.28
3820.69,4197.38
3819.35,4188.3
3818.9,4179.13
3818.9,3982.28
3819.35,3973.12
3820.69,3964.04
3822.92,3955.14
3826.02,3946.5
3829.94,3938.21
3834.66,3930.34
3840.12,3922.97
3846.28,3916.17
3853.08,3910
3860.45,3904.54
3868.32,3899.82
3876.62,3895.9
3885.26,3892.81
3894.16,3890.58
3903.24,3889.23
3912.4,3888.78
4099.41,3888.78
Z" /> 
</g>
<g >
</g>
<g style="fill:#840000; fill-opacity:1.0; 
stroke:#840000; stroke-width:0; stroke-opacity:1; 
stroke-linecap:round; stroke-linejoin:round;">
<path style="fill:#840000; fill-opacity:1.0; 
stroke:#840000; stroke-width:0; stroke-opacity:1; 
stroke-linecap:round; stroke-linejoin:round;fill-rule:evenodd;"
d="M 7108.57,4607.73
7117.65,4609.08
7126.55,4611.31
7135.19,4614.4
7143.49,4618.32
7151.36,4623.04
7158.73,4628.51
7165.53,4634.67
7171.69,4641.47
7177.16,4648.84
7181.87,4656.71
7185.8,4665.01
7188.89,4673.64
7191.12,4682.55
7192.46,4691.62
7192.91,4700.79
7192.91,4897.64
7192.46,4906.8
7191.12,4915.88
7188.89,4924.78
7185.8,4933.42
7181.87,4941.72
7177.16,4949.59
7171.69,4956.96
7165.53,4963.76
7158.73,4969.92
7151.36,4975.38
7143.49,4980.1
7135.19,4984.02
7126.55,4987.12
7117.65,4989.35
7108.57,4990.69
7099.41,4991.14
6912.4,4991.14
6903.24,4990.69
6894.16,4989.35
6885.26,4987.12
6876.62,4984.02
6868.32,4980.1
6860.45,4975.38
6853.08,4969.92
6846.28,4963.76
6840.12,4956.96
6834.66,4949.59
6829.94,4941.72
6826.02,4933.42
6822.92,4924.78
6820.69,4915.88
6819.35,4906.8
6818.9,4897.64
6818.9,4700.79
6819.35,4691.62
6820.69,4682.55
6822.92,4673.64
6826.02,4665.01
6829.94,4656.71
6834.66,4648.84
6840.12,4641.47
6846.28,4634.67
6853.08,4628.51
6860.45,4623.04
6868.32,4618.32
6876.62,4614.4
6885.26,4611.31
6894.16,4609.08
6903.24,4607.73
6912.4,4607.28
7099.41,4607.28
Z" /> 
<path style="fill:#840000; fill-opacity:1.0; 
stroke:#840000; stroke-width:0; stroke-opacity:1; 
stroke-linecap:round; stroke-linejoin:round;fill-rule:evenodd;"
d="M 7108.57,3889.23
7117.65,3890.58
7126.55,3892.81
7135.19,3895.9
7143.49,3899.82
7151.36,3904.54
7158.73,3910
7165.53,3916.17
7171.69,3922.97
7177.16,3930.34
7181.87,3938.21
7185.8,3946.5
7188.89,3955.14
7191.12,3964.04
7192.46,3973.12
7192.91,3982.28
7192.91,4179.13
7192.46,4188.3
7191.12,4197.38
7188.89,4206.28
7185.8,4214.92
7181.87,4223.21
7177.16,4231.08
7171.69,4238.45
7165.53,4245.25
7158.73,4251.41
7151.36,4256.88
7143.49,4261.6
7135.19,4265.52
7126.55,4268.61
7117.65,4270.84
7108.57,4272.19
7099.41,4272.64
6912.4,4272.64
6903.24,4272.19
6894.16,4270.84
6885.26,4268.61
6876.62,4265.52
6868.32,4261.6
6860.45,4256.88
6853.08,4251.41
6846.28,4245.25
6840.12,4238.45
6834.66,4231.08
6829.94,4223.21
6826.02,4214.92
6822.92,4206.28
6820.69,4197.38
6819.35,4188.3
6818.9,4179.13
6818.9,3982.28
6819.35,3973.12
6820.69,3964.04
6822.92,3955.14
6826.02,3946.5
6829.94,3938.21
6834.66,3930.34
6840.12,3922.97
6846.28,3916.17
6853.08,3910
6860.45,3904.54
6868.32,3899.82
6876.62,3895.9
6885.26,3892.81
6894.16,3890.58
6903.24,3889.23
6912.4,3888.78
7099.41,3888.78
Z" /> 
</g>
<g >
</g>
<g style="fill:#840000; fill-opacity:1.0; 
stroke:#840000; stroke-width:0; stroke-opacity:1; 
stroke-linecap:round; stroke-linejoin:round;">
<path style="fill:#840000; fill-opacity:1.0; 
stroke:#840000; stroke-width:0; stroke-opacity:1; 
stroke-linecap:round; stroke-linejoin:round;fill-rule:evenodd;"
d="M 6790.16,3482.87
6160.24,3482.87
6160.24,3364.76
6790.16,3364.76
Z" /> 
<path style="fill:#840000; fill-opacity:1.0; 
stroke:#840000; stroke-width:0; stroke-opacity:1; 
stroke-linecap:round; stroke-linejoin:round;fill-rule:evenodd;"
d="M 6790.16,3226.97
6160.24,3226.97
6160.24,3108.86
6790.16,3108.86
Z" /> 
<path style="fill:#840000; fill-opacity:1.0; 
stroke:#840000; stroke-width:0; stroke-opacity:1; 
stroke-linecap:round; stroke-linejoin:round;fill-rule:evenodd;"
d="M 6790.16,2971.06
6160.24,2971.06
6160.24,2852.95
6790.16,2852.95
Z" /> 
<path style="fill:#840000; fill-opacity:1.0; 
stroke:#840000; stroke-width:0; stroke-opacity:1; 
stroke-linecap:round; stroke-linejoin:round;fill-rule:evenodd;"
d="M 6790.16,2715.16
6160.24,2715.16
6160.24,2597.05
6790.16,2597.05
Z" /> 
<path style="fill:#840000; fill-opacity:1.0; 
stroke:#840000; stroke-width:0; stroke-opacity:1; 
stroke-linecap:round; stroke-linejoin:round;fill-rule:evenodd;"
d="M 5451.57,2715.16
4821.65,2715.16
4821.65,2597.05
5451.57,2597.05
Z" /> 
<path style="fill:#840000; fill-opacity:1.0; 
stroke:#840000; stroke-width:0; stroke-opacity:1; 
stroke-linecap:round; stroke-linejoin:round;fill-rule:evenodd;"
d="M 5451.57,2971.06
4821.65,2971.06
4821.65,2852.95
5451.57,2852.95
Z" /> 
<path style="fill:#840000; fill-opacity:1.0; 
stroke:#840000; stroke-width:0; stroke-opacity:1; 
stroke-linecap:round; stroke-linejoin:round;fill-rule:evenodd;"
d="M 5451.57,3226.97
4821.65,3226.97
4821.65,3108.86
5451.57,3108.86
Z" /> 
<path style="fill:#840000; fill-opacity:1.0; 
stroke:#840000; stroke-width:0; stroke-opacity:1; 
stroke-linecap:round; stroke-linejoin:round;fill-rule:evenodd;"
d="M 5451.57,3482.87
4821.65,3482.87
4821.65,3364.76
5451.57,3364.76
Z" /> 
</g>
<g >
</g>
<g >
</g>
<g style="fill:#840000; fill-opacity:1.0; 
stroke:#840000; stroke-width:0; stroke-opacity:1; 
stroke-linecap:round; stroke-linejoin:round;">
</g>
<g style="fill:#840000; fill-opacity:1.0; 
stroke:#840000; stroke-width:98.4252; stroke-opacity:1; 
stroke-linecap:round; stroke-linejoin:round;">
</g>
<g style="fill:#840000; fill-opacity:0.0; 
stroke:#840000; stroke-width:98.4252; stroke-opacity:1; 
stroke-linecap:round; stroke-linejoin:round;">
<path d="M1518 1898
L1518 4417
" />
<path d="M2581 3551
L2581 4024
" />
<path d="M5309 2044
L5309 1583
" />
<path d="M5165 1439
L4874 1439
" />
<path d="M5309 1583
L5165 1439
" />
<path d="M5283 2069
L5309 2044
" />
<path d="M4396 2069
L5283 2069
" />
<path d="M4105 1779
L4396 2069
" />
<path d="M3337 4779
L3405 4779
" />
<path d="M2581 4024
L3337 4779
" />
<path d="M3137 1500
L3405 1500
" />
<path d="M2581 2055
L3137 1500
" />
<path d="M3826 1500
L4105 1779
" />
<path d="M3405 1500
L3826 1500
" />
<path d="M6475 2656
L6629 2656
" />
<path d="M6475 2656
L6889 2656
" />
<path d="M6905 2639
L6905 1879
" />
<path d="M6889 2656
L6905 2639
" />
<path d="M7586 4799
L7605 4779
" />
<path d="M7005 4799
L7586 4799
" />
<path d="M8145 4779
L8405 5039
" />
<path d="M7605 4779
L8145 4779
" />
<path d="M6905 1879
L7245 1539
" />
<path d="M9205 5039
L8405 5039
" />
<path d="M9205 1839
L9205 5039
" />
<path d="M8905 1539
L9205 1839
" />
<path d="M7245 1539
L8905 1539
" />
<path d="M3986 4100
L4005 4080
" />
<path d="M3405 4100
L3986 4100
" />
<path d="M3405 3480
L3446 3439
" />
<path d="M3405 4100
L3405 3480
" />
<path d="M3046 3039
L3446 3439
" />
<path d="M2581 3039
L3046 3039
" />
<path d="M3405 2179
L3405 2799
" />
<path d="M3390 2784
L3446 2839
" />
<path d="M2581 2784
L3390 2784
" />
</g>
<g style="fill:#840000; fill-opacity:0.0; 
stroke:#840000; stroke-width:196.85; stroke-opacity:1; 
stroke-linecap:round; stroke-linejoin:round;">
<path d="M7025 4100
L7005 4080
" />
<path d="M7605 4100
L7025 4100
" />
<path d="M6920 4165
L7005 4080
" />
</g>
<g style="fill:#840000; fill-opacity:0.0; 
stroke:#840000; stroke-width:98.4252; stroke-opacity:1; 
stroke-linecap:round; stroke-linejoin:round;">
<path d="M6475 4109
L6531 4165
" />
<path d="M6475 3423
L6475 4109
" />
</g>
<g style="fill:#840000; fill-opacity:0.0; 
stroke:#840000; stroke-width:196.85; stroke-opacity:1; 
stroke-linecap:round; stroke-linejoin:round;">
<path d="M5015 4165
L6531 4165
" />
<path d="M6531 4165
L6920 4165
" />
</g>
<g style="fill:#840000; fill-opacity:0.0; 
stroke:#840000; stroke-width:98.4252; stroke-opacity:1; 
stroke-linecap:round; stroke-linejoin:round;">
<path d="M6475 3423
L6889 3423
" />
<path d="M7005 3539
L7005 4080
" />
<path d="M6889 3423
L7005 3539
" />
</g>
<g style="fill:#840000; fill-opacity:0.0; 
stroke:#840000; stroke-width:196.85; stroke-opacity:1; 
stroke-linecap:round; stroke-linejoin:round;">
<path d="M8345 4100
L8405 4039
" />
<path d="M7605 4100
L8345 4100
" />
<path d="M4538 4539
L6196 4539
" />
<path d="M4464 3866
L4464 4465
" />
<path d="M4590 3739
L4464 3866
" />
<path d="M4464 4465
L4538 4539
" />
<path d="M5705 3539
L5505 3739
" />
</g>
<g style="fill:#840000; fill-opacity:0.0; 
stroke:#840000; stroke-width:98.4252; stroke-opacity:1; 
stroke-linecap:round; stroke-linejoin:round;">
<path d="M5136 3423
L5136 3670
" />
</g>
<g style="fill:#840000; fill-opacity:0.0; 
stroke:#840000; stroke-width:196.85; stroke-opacity:1; 
stroke-linecap:round; stroke-linejoin:round;">
<path d="M5505 3739
L5205 3739
" />
</g>
<g style="fill:#840000; fill-opacity:0.0; 
stroke:#840000; stroke-width:98.4252; stroke-opacity:1; 
stroke-linecap:round; stroke-linejoin:round;">
<path d="M5136 3670
L5205 3739
" />
</g>
<g style="fill:#840000; fill-opacity:0.0; 
stroke:#840000; stroke-width:196.85; stroke-opacity:1; 
stroke-linecap:round; stroke-linejoin:round;">
<path d="M5205 3739
L4590 3739
" />
</g>
<g style="fill:#840000; fill-opacity:0.0; 
stroke:#840000; stroke-width:98.4252; stroke-opacity:1; 
stroke-linecap:round; stroke-linejoin:round;">
<path d="M5589 3423
L5705 3539
" />
<path d="M5136 3423
L5589 3423
" />
</g>
<g style="fill:#840000; fill-opacity:0.0; 
stroke:#840000; stroke-width:196.85; stroke-opacity:1; 
stroke-linecap:round; stroke-linejoin:round;">
<path d="M5705 2732
L6421 2016
" />
<path d="M5705 3539
L5705 2732
" />
<path d="M6421 2016
L6421 1224
" />
</g>
<g style="fill:#840000; fill-opacity:0.0; 
stroke:#840000; stroke-width:98.4252; stroke-opacity:1; 
stroke-linecap:round; stroke-linejoin:round;">
<path d="M5937 1065
L6379 1065
" />
<path d="M6421 1107
L6421 1224
" />
<path d="M6379 1065
L6421 1107
" />
<path d="M6445 1200
L6421 1224
" />
<path d="M6905 1200
L6445 1200
" />
<path d="M4468 1813
L4420 1765
" />
<path d="M4420 1124
L4445 1100
" />
<path d="M4420 1765
L4420 1124
" />
<path d="M4874 1813
L4468 1813
" />
<path d="M4445 1100
L4839 1100
" />
</g>
<g style="fill:#840000; fill-opacity:0.0; 
stroke:#840000; stroke-width:196.85; stroke-opacity:1; 
stroke-linecap:round; stroke-linejoin:round;">
<path d="M2650 939
L2678 911
" />
<path d="M4839 1100
L4874 1065
" />
<path d="M4105 1100
L4839 1100
" />
<path d="M2650 939
L2705 939
" />
<path d="M2705 939
L2734 911
" />
</g>
<g style="fill:#840000; fill-opacity:0.0; 
stroke:#840000; stroke-width:98.4252; stroke-opacity:1; 
stroke-linecap:round; stroke-linejoin:round;">
<path d="M2020 999
L1961 939
" />
</g>
<g style="fill:#840000; fill-opacity:0.0; 
stroke:#840000; stroke-width:196.85; stroke-opacity:1; 
stroke-linecap:round; stroke-linejoin:round;">
<path d="M2119 2252
L2119 1097
" />
<path d="M2394 2528
L2119 2252
" />
<path d="M2119 1097
L1961 939
" />
<path d="M2581 2528
L2394 2528
" />
</g>
<g style="fill:#840000; fill-opacity:0.0; 
stroke:#840000; stroke-width:98.4252; stroke-opacity:1; 
stroke-linecap:round; stroke-linejoin:round;">
<path d="M8277 3167
L8405 3039
" />
<path d="M6475 3167
L8277 3167
" />
<path d="M7849 2912
L8405 2355
" />
<path d="M8405 2355
L8405 2039
" />
<path d="M6475 2912
L7849 2912
" />
<path d="M5502 2290
L5502 835
" />
<path d="M5136 2656
L5502 2290
" />
<path d="M8175 810
L8405 1039
" />
<path d="M5527 810
L8175 810
" />
<path d="M5502 835
L5527 810
" />
<path d="M4120 4913
L4005 4799
" />
<path d="M5015 4913
L4120 4913
" />
<path d="M4437 3167
L5136 3167
" />
<path d="M4165 3439
L4437 3167
" />
<path d="M4237 2912
L5136 2912
" />
<path d="M4165 2839
L4237 2912
" />
</g>
<g >
</g>
<g style="fill:#840000; fill-opacity:0.0; 
stroke:#840000; stroke-width:98.4252; stroke-opacity:1; 
stroke-linecap:round; stroke-linejoin:round;">
<g >
</g>
<g style="fill:#840000; fill-opacity:1.0; 
stroke:#840000; stroke-width:98.4252; stroke-opacity:1; 
stroke-linecap:round; stroke-linejoin:round;">
<path style="fill:#840000; fill-opacity:1.0; 
stroke:#840000; stroke-width:98.4252; stroke-opacity:1; 
stroke-linecap:round; stroke-linejoin:round;fill-rule:evenodd;"
d="M 1663.58,723.078
1643.06,761.472
1630.42,803.132
1626.15,846.457
1626.15,1033.46
1630.42,1076.79
1643.06,1118.45
1663.58,1156.84
1691.2,1190.5
1724.85,1218.11
1763.24,1238.64
1804.9,1251.27
1848.23,1255.54
1892.72,1255.54
1892.72,1386.97
1867,1364.68
1804.95,1329.32
1737.2,1306.75
1666.34,1297.83
1528.54,1297.83
1528.54,2230.41
1540.85,2242.72
1528.54,2255.02
1528.54,2636.42
1988.68,2636.42
2020.67,2604.43
2020.99,2474.6
2194.84,2648.45
2197.16,2656.09
2197.17,2656.1
2197.16,2656.11
2189.84,2680.23
2187.37,2705.31
2187.37,2862.8
2189.84,2887.88
2197.16,2912
2197.17,2912.01
2197.16,2912.02
2189.84,2936.14
2187.37,2961.22
2187.37,3118.7
2189.84,3143.78
2197.16,3167.9
2197.17,3167.91
2197.16,3167.92
2189.84,3192.04
2187.37,3217.13
2187.37,3374.61
2189.84,3399.69
2197.16,3423.81
2197.17,3423.82
2197.16,3423.83
2189.84,3447.95
2187.37,3473.03
2187.99,3509.94
2219.98,3541.93
2571.85,3541.93
2571.85,3534.06
2591.54,3534.06
2591.54,3541.93
2943.41,3541.93
2975.39,3509.94
2976.01,3473.03
2973.54,3447.95
2966.23,3423.83
2966.22,3423.82
2966.23,3423.81
2973.54,3399.69
2976.01,3374.61
2976.01,3219.87
3126.15,3370.01
3126.15,3533.46
3130.42,3576.79
3143.06,3618.45
3163.58,3656.84
3191.2,3690.5
3224.85,3718.11
3228.74,3720.19
3228.74,3776.71
3227.42,3777.11
3189.02,3797.63
3155.37,3825.25
3127.75,3858.9
3107.23,3897.3
3094.59,3938.96
3090.33,3982.28
3090.33,4218.5
3094.59,4261.83
3107.23,4303.49
3127.75,4341.88
3155.37,4375.54
3189.02,4403.15
3227.42,4423.68
3269.08,4436.31
3303.49,4439.7
3218.9,4439.34
3193.81,4441.81
3169.7,4449.13
3147.47,4461.01
3127.98,4477
3111.99,4496.48
3100.11,4518.71
3092.8,4542.83
3090.33,4567.91
3090.94,4737.7
3122.93,4769.69
3396.06,4769.69
3396.06,4761.81
3415.75,4761.81
3415.75,4769.69
3423.62,4769.69
3423.62,4789.37
3415.75,4789.37
3415.75,5087.11
3447.74,5119.09
3592.91,5119.71
3618,5117.24
3642.12,5109.93
3664.34,5098.05
3683.83,5082.06
3699.82,5062.57
3711.7,5040.34
3719.01,5016.22
3719.98,5006.47
3727.75,5021.02
3755.37,5054.67
3789.02,5082.29
3827.42,5102.81
3869.08,5115.45
3912.4,5119.71
4099.41,5119.71
4142.73,5115.45
4184.39,5102.81
4206.22,5091.14
4514.71,5091.14
4515.24,5096.54
4522.55,5120.66
4534.44,5142.89
4550.42,5162.37
4569.91,5178.36
4592.14,5190.24
4616.26,5197.56
4641.34,5200.03
5389.37,5200.03
5414.45,5197.56
5438.57,5190.24
5460.8,5178.36
5480.28,5162.37
5496.27,5142.89
5508.15,5120.66
5515.47,5096.54
5517.94,5071.46
5517.94,4991.14
6690.33,4991.14
6692.8,5016.22
6700.11,5040.34
6711.99,5062.57
6727.98,5082.06
6747.47,5098.05
6769.7,5109.93
6793.81,5117.24
6818.9,5119.71
6964.07,5119.09
6996.06,5087.11
6996.06,4809.06
6722.93,4809.06
6690.94,4841.04
6690.33,4991.14
5517.94,4991.14
5517.94,4766.34
5714.18,4766.34
5715.54,4768.87
5731.53,4788.35
5751.01,4804.34
5773.24,4816.23
5797.36,4823.54
5822.44,4826.01
6570.47,4826.01
6595.56,4823.54
6619.67,4816.23
6641.9,4804.34
6661.39,4788.35
6677.38,4768.87
6689.26,4746.64
6690.88,4741.3
6690.94,4757.38
6722.93,4789.37
6996.06,4789.37
6996.06,4781.5
7015.75,4781.5
7015.75,4789.37
7023.62,4789.37
7023.62,4809.06
7015.75,4809.06
7015.75,5087.11
7047.74,5119.09
7192.91,5119.71
7218,5117.24
7242.12,5109.93
7264.34,5098.05
7283.83,5082.06
7299.82,5062.57
7305.91,5051.18
7311.99,5062.57
7327.98,5082.06
7347.47,5098.05
7369.7,5109.93
7393.81,5117.24
7418.9,5119.71
7564.07,5119.09
7596.06,5087.11
7596.06,4789.37
7615.75,4789.37
7615.75,5087.11
7647.74,5119.09
7792.91,5119.71
7818,5117.24
7842.12,5109.93
7864.34,5098.05
7883.83,5082.06
7899.82,5062.57
7911.7,5040.34
7919.01,5016.22
7921.49,4991.14
7920.87,4821.36
7888.88,4789.37
7615.75,4789.37
7596.06,4789.37
7588.19,4789.37
7588.19,4769.69
7596.06,4769.69
7596.06,4761.81
7615.75,4761.81
7615.75,4769.69
7888.88,4769.69
7920.87,4737.7
7920.98,4705.31
7942.69,4705.31
7943.31,4998.13
7975.3,5030.12
8396.06,5030.12
8396.06,4609.35
8415.75,4609.35
8415.75,5030.12
8836.52,5030.12
8868.5,4998.13
8869.12,4705.31
8866.65,4680.23
8859.34,4656.11
8847.46,4633.88
8831.47,4614.4
8811.98,4598.41
8789.75,4586.53
8765.63,4579.21
8740.55,4576.74
8447.74,4577.36
8415.75,4609.35
8396.06,4609.35
8364.07,4577.36
8071.26,4576.74
8046.18,4579.21
8022.06,4586.53
7999.83,4598.41
7980.35,4614.4
7964.36,4633.88
7952.47,4656.11
7945.16,4680.23
7942.69,4705.31
7920.98,4705.31
7921.49,4567.91
9005.91,4567.91
9030.87,4565.45
9054.87,4558.17
9076.99,4546.35
9096.38,4530.44
9112.29,4511.05
9124.12,4488.93
9131.4,4464.92
9133.86,4439.96
9133.86,3339.96
9131.4,3315
9124.12,3291
9112.29,3268.87
9096.38,3249.48
9076.99,3233.57
9054.87,3221.75
9030.87,3214.47
9005.91,3212.01
8835.35,3212.01
8850.73,3174.9
8868.5,3085.52
8868.5,2994.4
8850.73,2905.03
8815.85,2820.84
8765.23,2745.07
8700.79,2680.64
8625.03,2630.01
8540.84,2595.14
8451.47,2577.36
8434.41,2577.36
8523.55,2488.22
8540.84,2484.78
8625.03,2449.91
8700.79,2399.28
8765.23,2334.85
8815.85,2259.08
8850.73,2174.9
8868.5,2085.52
8868.5,1994.4
8850.73,1905.03
8815.85,1820.84
8765.23,1745.07
8700.79,1680.64
8625.03,1630.01
8540.84,1595.14
8451.47,1577.36
8360.34,1577.36
8270.97,1595.14
8186.78,1630.01
8111.02,1680.64
8046.58,1745.07
7995.96,1820.84
7961.08,1905.03
7943.31,1994.4
7943.31,2085.52
7961.08,2174.9
7995.96,2259.08
8046.58,2334.85
8111.02,2399.28
8111.24,2399.43
7775.83,2734.84
6916.79,2734.84
6918.73,2715.16
6918.11,2697.93
6886.12,2665.94
6485.04,2665.94
6485.04,2673.82
6465.35,2673.82
6465.35,2665.94
6457.48,2665.94
6457.48,2646.26
6465.35,2646.26
6465.35,2501.08
6485.04,2501.08
6485.04,2646.26
6886.12,2646.26
6918.11,2614.27
6918.73,2597.05
6916.26,2571.96
6908.94,2547.84
6897.06,2525.62
6881.07,2506.13
6861.59,2490.14
6839.36,2478.26
6815.24,2470.95
6790.16,2468.48
6517.03,2469.09
6485.04,2501.08
6465.35,2501.08
6433.37,2469.09
6289.76,2468.77
6573.86,2184.67
6582.5,2177.58
6590.43,2167.91
6605.91,2167.91
6615.59,2166.96
6627.98,2182.06
6647.47,2198.05
6669.7,2209.93
6693.81,2217.24
6718.9,2219.71
6864.07,2219.09
6896.06,2187.11
6896.06,1889.37
6915.75,1889.37
6915.75,2187.11
6947.74,2219.09
7092.91,2219.71
7118,2217.24
7142.12,2209.93
7164.34,2198.05
7183.83,2182.06
7199.82,2162.57
7211.7,2140.34
7219.01,2116.22
7221.49,2091.14
7220.87,1921.36
7188.88,1889.37
6915.75,1889.37
6896.06,1889.37
6888.19,1889.37
6888.19,1869.69
6896.06,1869.69
6896.06,1861.81
6915.75,1861.81
6915.75,1869.69
7188.88,1869.69
7220.87,1837.7
7221.49,1667.91
7219.01,1642.83
7211.7,1618.71
7199.82,1596.48
7183.83,1577
7164.34,1561.01
7142.12,1549.13
7118,1541.81
7092.91,1539.34
7008.32,1539.7
7042.73,1536.31
7084.39,1523.68
7122.79,1503.15
7156.44,1475.54
7184.06,1441.88
7204.58,1403.49
7217.22,1361.83
7221.49,1318.5
7221.49,1082.28
7217.22,1038.96
7204.58,997.299
7199.19,987.204
7944.74,987.204
7943.31,994.399
7943.31,1085.52
7961.08,1174.9
7995.96,1259.08
8046.58,1334.85
8111.02,1399.28
8186.78,1449.91
8270.97,1484.78
8360.34,1502.56
8451.47,1502.56
8540.84,1484.78
8625.03,1449.91
8700.79,1399.28
8765.23,1334.85
8815.85,1259.08
8850.73,1174.9
8868.5,1085.52
8868.5,994.399
8850.73,905.026
8815.85,820.838
8765.23,745.071
8717.6,697.441
8998.2,697.441
9072.29,704.705
9136.14,723.985
9195.03,755.297
9246.72,797.455
9289.24,848.848
9320.97,907.522
9340.69,971.239
9348.43,1044.84
9348.43,5032.25
9341.16,5106.34
9321.88,5170.2
9290.57,5229.09
9248.41,5280.78
9197.02,5323.3
9138.34,5355.02
9074.63,5374.74
9001.03,5382.48
8868.35,5382.48
8869.12,5374.61
8868.5,5081.79
8836.52,5049.8
8415.75,5049.8
8415.75,5057.68
8396.06,5057.68
8396.06,5049.8
7975.3,5049.8
7943.31,5081.79
7942.69,5374.61
7943.46,5382.48
1453.61,5382.48
1379.52,5375.22
1315.67,5355.94
1256.78,5324.62
1205.09,5282.47
1162.57,5231.07
1130.85,5172.4
1111.12,5108.68
1103.39,5035.08
1103.39,4991.14
3090.33,4991.14
3092.8,5016.22
3100.11,5040.34
3111.99,5062.57
3127.98,5082.06
3147.47,5098.05
3169.7,5109.93
3193.81,5117.24
3218.9,5119.71
3364.07,5119.09
3396.06,5087.11
3396.06,4789.37
3122.93,4789.37
3090.94,4821.36
3090.33,4991.14
1103.39,4991.14
1103.39,4651.65
1116.44,4668.46
1170.4,4715.24
1232.45,4750.6
1300.21,4773.17
1371.06,4782.09
1508.86,4782.09
1508.86,3849.51
1496.56,3837.2
1508.86,3824.9
1508.86,3443.5
1528.54,3443.5
1528.54,3824.9
1540.85,3837.2
1528.54,3849.51
1528.54,4782.09
1666.34,4782.09
1737.2,4773.17
1804.95,4750.6
1867,4715.24
1920.96,4668.46
1964.76,4612.05
1996.71,4548.18
2014.51,4484.58
2008.82,4472.13
2011.5,4467.12
2018.82,4443
2020.32,4427.76
2020.67,4427.76
2020.67,4424.2
2021.29,4417.91
2020.92,4302.19
2317.64,4302.19
2345.57,4365.96
2416.77,4405.46
2494.32,4430.31
2575.22,4439.55
2656.38,4432.83
2734.66,4410.41
2807.06,4373.15
2817.82,4365.96
2845.75,4302.19
2581.69,4038.13
2317.64,4302.19
2020.92,4302.19
2020.67,4223.52
1988.68,4191.54
1939.73,4191.54
1924.45,4171.85
1988.68,4171.85
2020.67,4139.86
2021.06,4017.74
2166.36,4017.74
2173.08,4098.9
2195.5,4177.18
2232.76,4249.58
2239.95,4260.34
2303.72,4288.27
2567.77,4024.21
2562.21,4018.64
2576.12,4004.73
2581.69,4010.29
2587.26,4004.73
2601.18,4018.64
2595.61,4024.21
2859.67,4288.27
2923.44,4260.34
2962.94,4189.13
2987.79,4111.58
2997.03,4030.68
2990.31,3949.53
2967.89,3871.25
2930.63,3798.84
2923.44,3788.09
2859.67,3760.16
2862.2,3757.63
2872.52,3756.61
2896.64,3749.3
2918.87,3737.42
2938.36,3721.43
2954.34,3701.94
2966.23,3679.71
2973.54,3655.59
2976.01,3630.51
2975.39,3593.6
2943.41,3561.61
2591.54,3561.61
2591.54,3569.49
2571.85,3569.49
2571.85,3561.61
2219.98,3561.61
2187.99,3593.6
2187.37,3630.51
2189.84,3655.59
2197.16,3679.71
2209.04,3701.94
2225.03,3721.43
2244.51,3737.42
2266.74,3749.3
2290.86,3756.61
2301.19,3757.63
2303.72,3760.16
2239.95,3788.09
2200.45,3859.29
2175.6,3936.84
2166.36,4017.74
2021.06,4017.74
2021.29,3945.47
2018.82,3920.39
2011.5,3896.27
1999.62,3874.04
1983.63,3854.56
1964.15,3838.57
1961.6,3837.2
1964.15,3835.84
1983.63,3819.85
1999.62,3800.37
2011.5,3778.14
2018.82,3754.02
2021.29,3728.94
2020.67,3475.49
1988.68,3443.5
1528.54,3443.5
1508.86,3443.5
1500.98,3443.5
1500.98,3423.82
1508.86,3423.82
1508.86,3042.42
1506.4,3039.96
1508.86,3037.5
1508.86,2656.1
1528.54,2656.1
1528.54,3037.5
1531,3039.96
1528.54,3042.42
1528.54,3423.82
1988.68,3423.82
2020.67,3391.83
2021.29,3138.39
2018.82,3113.3
2011.5,3089.18
1999.62,3066.96
1983.63,3047.47
1974.48,3039.96
1983.63,3032.45
1999.62,3012.97
2011.5,2990.74
2018.82,2966.62
2021.29,2941.54
2020.67,2688.09
1988.68,2656.1
1528.54,2656.1
1508.86,2656.1
1500.98,2656.1
1500.98,2636.42
1508.86,2636.42
1508.86,2255.02
1496.56,2242.72
1508.86,2230.41
1508.86,1297.83
1371.06,1297.83
1300.21,1306.75
1232.45,1329.32
1170.4,1364.68
1116.44,1411.46
1103.39,1428.27
1103.39,947.663
1108.75,893.001
1122.38,847.832
1144.54,806.169
1174.36,769.606
1210.71,739.528
1252.22,717.087
1297.29,703.134
1351.46,697.441
1684.62,697.441
Z" /> 
<path style="fill:#840000; fill-opacity:1.0; 
stroke:#840000; stroke-width:98.4252; stroke-opacity:1; 
stroke-linecap:round; stroke-linejoin:round;fill-rule:evenodd;"
d="M 3122.93,1490.55
3396.06,1490.55
3396.06,1482.68
3415.75,1482.68
3415.75,1490.55
3688.88,1490.55
3711.52,1467.91
3839.05,1467.91
3827.98,1477
3811.99,1496.48
3800.11,1518.71
3792.8,1542.83
3790.33,1567.91
3790.94,1737.7
3822.93,1769.69
4096.06,1769.69
4096.06,1761.81
4115.75,1761.81
4115.75,1769.69
4123.62,1769.69
4123.62,1789.37
4115.75,1789.37
4115.75,2087.11
4147.74,2119.09
4292.91,2119.71
4318,2117.24
4342.12,2109.93
4364.34,2098.05
4383.83,2082.06
4395.43,2067.91
4541.85,2067.91
4542.24,2068.03
4567.32,2070.5
5181.5,2070.5
5206.58,2068.03
5207.47,2067.76
5230.87,2065.45
5254.87,2058.17
5276.99,2046.35
5296.38,2030.44
5312.29,2011.05
5324.12,1988.93
5325.2,1985.37
5325.2,2216.97
5073.69,2468.48
4821.65,2468.48
4796.57,2470.95
4772.45,2478.26
4750.22,2490.14
4730.74,2506.13
4714.75,2525.62
4702.87,2547.84
4695.55,2571.96
4693.08,2597.05
4693.08,2715.16
4695.02,2734.84
4484.51,2734.84
4481.39,2703.13
4468.75,2661.47
4448.23,2623.08
4420.61,2589.43
4386.96,2561.81
4348.57,2541.29
4306.91,2528.65
4263.58,2524.38
4066.73,2524.38
4023.41,2528.65
3981.75,2541.29
3943.35,2561.81
3909.7,2589.43
3882.08,2623.08
3861.56,2661.47
3848.92,2703.13
3844.66,2746.46
3844.66,2933.46
3848.92,2976.79
3861.56,3018.45
3882.08,3056.84
3909.7,3090.5
3943.35,3118.11
3981.75,3138.64
3986.11,3139.96
3981.75,3141.29
3943.35,3161.81
3909.7,3189.43
3882.08,3223.08
3861.56,3261.47
3848.92,3303.13
3844.66,3346.46
3844.66,3533.46
3848.92,3576.79
3861.56,3618.45
3882.08,3656.84
3909.7,3690.5
3943.35,3718.11
3981.75,3738.64
4023.41,3751.27
4066.73,3755.54
4263.58,3755.54
4267.1,3755.19
4264.42,3760.21
4254.01,3779.68
4243.43,3814.57
4222.79,3797.63
4184.39,3777.11
4142.73,3764.47
4099.41,3760.21
3912.4,3760.21
3869.08,3764.47
3827.42,3777.11
3789.02,3797.63
3755.37,3825.25
3727.75,3858.9
3707.23,3897.3
3705.91,3901.67
3704.58,3897.3
3684.06,3858.9
3656.44,3825.25
3622.79,3797.63
3584.39,3777.11
3583.07,3776.71
3583.07,3751.8
3588.4,3751.27
3630.06,3738.64
3668.46,3718.11
3702.11,3690.5
3729.73,3656.84
3750.25,3618.45
3762.89,3576.79
3767.15,3533.46
3767.15,3346.46
3762.89,3303.13
3750.25,3261.47
3729.73,3223.08
3702.11,3189.43
3668.46,3161.81
3630.06,3141.29
3625.7,3139.96
3630.06,3138.64
3668.46,3118.11
3702.11,3090.5
3729.73,3056.84
3750.25,3018.45
3762.89,2976.79
3767.15,2933.46
3767.15,2746.46
3762.89,2703.13
3750.25,2661.47
3729.73,2623.08
3702.11,2589.43
3668.46,2561.81
3630.06,2541.29
3588.4,2528.65
3583.07,2528.12
3583.07,2503.21
3584.39,2502.81
3622.79,2482.29
3656.44,2454.67
3684.06,2421.02
3704.58,2382.62
3717.22,2340.96
3721.49,2297.64
3721.49,2061.42
3717.22,2018.09
3709.04,1991.14
3790.33,1991.14
3792.8,2016.22
3800.11,2040.34
3811.99,2062.57
3827.98,2082.06
3847.47,2098.05
3869.7,2109.93
3893.81,2117.24
3918.9,2119.71
4064.07,2119.09
4096.06,2087.11
4096.06,1789.37
3822.93,1789.37
3790.94,1821.36
3790.33,1991.14
3709.04,1991.14
3704.58,1976.43
3684.06,1938.04
3656.44,1904.39
3622.79,1876.77
3584.39,1856.25
3542.73,1843.61
3508.32,1840.22
3592.91,1840.58
3618,1838.11
3642.12,1830.79
3664.34,1818.91
3683.83,1802.92
3699.82,1783.44
3711.7,1761.21
3719.01,1737.09
3721.49,1712.01
3720.87,1542.22
3688.88,1510.24
3415.75,1510.24
3415.75,1518.11
3396.06,1518.11
3396.06,1510.24
3122.93,1510.24
3090.94,1542.22
3090.33,1712.01
3092.8,1737.09
3100.11,1761.21
3111.99,1783.44
3127.98,1802.92
3147.47,1818.91
3169.7,1830.79
3193.81,1838.11
3218.9,1840.58
3303.49,1840.22
3269.08,1843.61
3227.42,1856.25
3189.02,1876.77
3155.37,1904.39
3127.75,1938.04
3107.23,1976.43
3094.59,2018.09
3090.33,2061.42
3090.33,2297.64
3094.59,2340.96
3107.23,2382.62
3127.75,2421.02
3155.37,2454.67
3189.02,2482.29
3227.42,2502.81
3228.74,2503.21
3228.74,2559.73
3224.85,2561.81
3191.2,2589.43
3176.86,2606.89
2976.01,2606.89
2976.01,2449.41
2973.54,2424.33
2966.23,2400.21
2954.34,2377.98
2938.35,2358.5
2918.87,2342.51
2896.64,2330.62
2872.52,2323.31
2862.2,2322.29
2859.67,2319.76
2923.44,2291.84
2962.94,2220.63
2987.79,2143.08
2997.03,2062.18
2990.31,1981.02
2967.89,1902.74
2930.63,1830.34
2923.44,1819.58
2859.67,1791.65
2595.61,2055.71
2601.18,2061.28
2587.26,2075.2
2581.69,2069.63
2576.12,2075.2
2562.21,2061.28
2567.77,2055.71
2562.21,2050.14
2576.12,2036.22
2581.69,2041.79
2845.75,1777.74
2817.82,1713.96
2746.61,1674.46
2669.06,1649.62
2588.16,1640.37
2507.01,1647.09
2428.73,1669.51
2356.32,1706.78
2345.57,1713.96
2345.47,1714.18
2345.47,1467.91
3100.3,1467.91
Z" /> 
</g>
</g>
<g style="fill:#840000; fill-opacity:1.0; 
stroke:#840000; stroke-width:98.4252; stroke-opacity:1; 
stroke-linecap:round; stroke-linejoin:round;">
<g >
</g>
<g style="fill:#840000; fill-opacity:1.0; 
stroke:#840000; stroke-width:100; stroke-opacity:1; 
stroke-linecap:round; stroke-linejoin:round;">
<path style="fill:#840000; fill-opacity:1.0; 
stroke:#840000; stroke-width:100; stroke-opacity:1; 
stroke-linecap:round; stroke-linejoin:round;fill-rule:evenodd;"
d="M 8110.51,3399.9
8186.41,3450.61
8270.74,3485.54
8360.27,3503.35
8451.54,3503.35
8541.07,3485.54
8625.4,3450.61
8701.3,3399.9
8711.23,3389.96
8955.91,3389.96
8955.91,4389.96
8706.82,4389.96
8727.04,4374.02
8786.04,4304.95
8830.44,4225.7
8858.52,4139.31
8862.08,4121.38
8837.01,4049.02
8414.96,4049.02
8414.96,4056.89
8396.85,4056.89
8396.85,4049.02
7974.8,4049.02
7949.73,4121.38
7953.3,4139.31
7981.37,4225.7
8025.77,4304.95
8084.77,4374.02
8104.99,4389.96
7895.48,4389.96
7900.47,4383.88
7912.43,4361.51
7919.79,4337.25
7922.28,4312.01
7921.65,4141.63
7889.47,4109.45
7614.96,4109.45
7614.96,4117.32
7596.85,4117.32
7596.85,4109.45
7588.98,4109.45
7588.98,4091.34
7596.85,4091.34
7596.85,3792.22
7614.96,3792.22
7614.96,4091.34
7889.47,4091.34
7921.65,4059.15
7922.02,3958.54
7949.73,3958.54
7974.8,4030.91
8396.85,4030.91
8396.85,3608.85
8414.96,3608.85
8414.96,4030.91
8837.01,4030.91
8862.08,3958.54
8858.52,3940.61
8830.44,3854.22
8786.04,3774.97
8727.04,3705.9
8655.7,3649.67
8574.76,3608.43
8487.32,3583.78
8414.96,3608.85
8396.85,3608.85
8324.49,3583.78
8237.05,3608.43
8156.11,3649.67
8084.77,3705.9
8025.77,3774.97
7981.37,3854.22
7953.3,3940.61
7949.73,3958.54
7922.02,3958.54
7922.28,3888.78
7919.79,3863.54
7912.43,3839.27
7900.47,3816.91
7884.39,3797.31
7864.78,3781.22
7842.42,3769.26
7818.15,3761.9
7792.91,3759.42
7647.15,3760.04
7614.96,3792.22
7596.85,3792.22
7564.67,3760.04
7418.9,3759.42
7393.66,3761.9
7369.39,3769.26
7347.03,3781.22
7327.42,3797.31
7311.34,3816.91
7305.91,3827.07
7300.47,3816.91
7284.39,3797.31
7264.78,3781.22
7242.42,3769.26
7218.15,3761.9
7192.91,3759.42
7047.15,3760.04
7014.96,3792.22
7014.96,4071.65
7022.83,4071.65
7022.83,4089.76
7014.96,4089.76
7014.96,4097.64
6996.85,4097.64
6996.85,4089.76
6722.34,4089.76
6690.16,4121.95
6689.88,4189.96
5505.91,4189.96
5501.34,4190.41
5485.93,4175
5024.41,4175
5024.41,4182.87
5006.3,4182.87
5006.3,4175
4998.43,4175
4998.43,4156.89
5006.3,4156.89
5006.3,4149.02
5024.41,4149.02
5024.41,4156.89
5485.93,4156.89
5518.11,4124.7
5518.73,4008.46
5516.91,3989.96
6005.91,3989.96
6015.66,3989
6025.04,3986.15
6033.68,3981.53
6041.26,3975.32
6047.48,3967.74
6052.1,3959.09
6054.94,3949.71
6055.91,3939.96
6055.91,3888.78
6689.53,3888.78
6690.16,4039.47
6722.34,4071.65
6996.85,4071.65
6996.85,3792.22
6964.67,3760.04
6818.9,3759.42
6793.66,3761.9
6769.39,3769.26
6747.03,3781.22
6727.42,3797.31
6711.34,3816.91
6699.38,3839.27
6692.02,3863.54
6689.53,3888.78
6055.91,3888.78
6055.91,3558.68
6068.76,3574.35
6088.37,3590.44
6110.73,3602.39
6135,3609.75
6160.24,3612.24
6433.96,3611.61
6466.14,3579.43
6466.14,3432.87
6484.25,3432.87
6484.25,3579.43
6516.44,3611.61
6790.16,3612.24
6815.39,3609.75
6839.66,3602.39
6862.03,3590.44
6881.63,3574.35
6897.72,3554.74
6909.67,3532.38
6917.03,3508.11
6919.52,3482.87
6918.9,3465.06
6886.71,3432.87
6484.25,3432.87
6466.14,3432.87
6458.27,3432.87
6458.27,3414.76
6466.14,3414.76
6466.14,3406.89
6484.25,3406.89
6484.25,3414.76
6886.71,3414.76
6911.52,3389.96
8100.58,3389.96
Z" /> 
</g>
</g>
<g style="fill:#840000; fill-opacity:1.0; 
stroke:#840000; stroke-width:100; stroke-opacity:1; 
stroke-linecap:round; stroke-linejoin:round;">
<g >
<path style="fill:#840000; fill-opacity:1.0; 
stroke:#840000; stroke-width:100; stroke-opacity:1; 
stroke-linecap:round; stroke-linejoin:round;fill-rule:evenodd;"
d="M 6590.16,1159.15
6622.34,1191.34
6755.91,1191.34
6755.91,1209.45
6622.34,1209.45
6590.16,1241.63
6589.53,1412.01
6592.02,1437.25
6599.38,1461.51
6611.34,1483.88
6616.33,1489.96
6605.91,1489.96
6596.15,1490.92
6586.77,1493.77
6578.13,1498.39
6570.55,1504.61
6564.33,1512.18
6559.71,1520.83
6556.87,1530.21
6555.91,1539.96
6555.91,1989.96
6505.91,1989.96
6496.15,1990.92
6486.77,1993.77
6478.13,1998.39
6470.55,2004.61
5970.55,2504.61
5964.33,2512.18
5959.71,2520.83
5956.87,2530.21
5955.91,2539.96
5955.91,3189.96
5905.91,3189.96
5896.15,3190.92
5886.77,3193.77
5878.13,3198.39
5870.55,3204.61
5864.33,3212.18
5859.71,3220.83
5856.87,3230.21
5855.91,3239.96
5855.91,3789.96
4455.91,3789.96
4455.91,3644.16
4469.49,3618.75
4482.17,3576.94
4486.45,3533.46
4486.45,3482.87
4692.29,3482.87
4694.78,3508.11
4702.14,3532.38
4714.09,3554.74
4730.18,3574.35
4749.78,3590.44
4772.15,3602.39
4796.42,3609.75
4821.65,3612.24
5095.37,3611.61
5127.56,3579.43
5127.56,3432.87
5145.67,3432.87
5145.67,3579.43
5177.85,3611.61
5451.57,3612.24
5476.81,3609.75
5501.08,3602.39
5523.44,3590.44
5543.05,3574.35
5559.14,3554.74
5571.09,3532.38
5578.45,3508.11
5580.94,3482.87
5580.31,3465.06
5548.13,3432.87
5145.67,3432.87
5127.56,3432.87
4725.1,3432.87
4692.91,3465.06
4692.29,3482.87
4486.45,3482.87
4486.45,3370.33
4510.91,3345.87
4694.15,3345.87
4692.29,3364.76
4692.91,3382.58
4725.1,3414.76
5127.56,3414.76
5127.56,3406.89
5145.67,3406.89
5145.67,3414.76
5548.13,3414.76
5580.31,3382.58
5580.94,3364.76
5578.45,3339.53
5571.09,3315.26
5560.73,3295.87
5563.88,3289.96
5605.91,3289.96
5615.66,3289
5625.04,3286.15
5633.68,3281.53
5641.26,3275.32
5647.48,3267.74
5652.1,3259.09
5654.94,3249.71
5655.91,3239.96
5655.91,2380.6
5667.56,2358.78
5677.74,2325.24
5680.31,2299.1
5680.31,2299.1
5681.18,2290.35
5680.31,2281.61
5680.31,2071.29
6244.49,2071.29
6269.73,2068.81
6293.99,2061.44
6316.36,2049.49
6335.96,2033.4
6352.05,2013.8
6364,1991.43
6371.37,1967.17
6373.85,1941.93
6373.85,1686.02
6371.37,1660.79
6364,1636.52
6352.05,1614.15
6335.96,1594.55
6316.36,1578.46
6293.99,1566.51
6269.73,1559.15
6244.49,1556.66
5680.31,1556.66
5680.31,1323.14
5896.16,1322.64
5928.35,1290.45
5928.35,1075
5946.46,1075
5946.46,1290.45
5978.64,1322.64
6244.49,1323.26
6269.73,1320.77
6293.99,1313.41
6316.36,1301.46
6335.96,1285.37
6352.05,1265.77
6364,1243.4
6371.37,1219.14
6373.85,1193.9
6373.23,1107.19
6341.04,1075
5946.46,1075
5928.35,1075
5920.47,1075
5920.47,1056.89
5928.35,1056.89
5928.35,1049.02
5946.46,1049.02
5946.46,1056.89
6341.04,1056.89
6373.23,1024.7
6373.48,989.961
6589.54,989.961
Z" /> 
</g>
</g>
<g style="fill:#840000; fill-opacity:1.0; 
stroke:#840000; stroke-width:100; stroke-opacity:1; 
stroke-linecap:round; stroke-linejoin:round;">
<g >
<path style="fill:#840000; fill-opacity:1.0; 
stroke:#840000; stroke-width:100; stroke-opacity:1; 
stroke-linecap:round; stroke-linejoin:round;fill-rule:evenodd;"
d="M 5155.91,808.689
4915.65,809.252
4883.46,841.437
4883.46,1056.89
4891.34,1056.89
4891.34,1075
4883.46,1075
4883.46,1082.87
4865.35,1082.87
4865.35,1075
4470.77,1075
4438.58,1107.19
4437.96,1193.9
4440.45,1219.14
4447.81,1243.4
4452.91,1252.95
4447.81,1262.5
4440.45,1286.77
4437.96,1312.01
4437.96,1567.91
4440.45,1593.15
4447.81,1617.42
4452.91,1626.97
4447.81,1636.52
4440.45,1660.79
4437.96,1686.02
4438.58,1772.74
4470.77,1804.92
4865.35,1804.92
4865.35,1797.05
4883.46,1797.05
4883.46,1804.92
4891.34,1804.92
4891.34,1823.03
4883.46,1823.03
4883.46,1830.91
4865.35,1830.91
4865.35,1823.03
4470.77,1823.03
4438.58,1855.22
4438.54,1860.5
4422.28,1844.24
4422.28,1661.42
4417.99,1617.94
4405.31,1576.13
4384.72,1537.6
4357,1503.83
4355.91,1502.93
4355.91,1424.31
4364.78,1419.57
4384.39,1403.48
4400.47,1383.88
4412.43,1361.51
4419.79,1337.25
4422.28,1312.01
4421.65,1141.63
4389.47,1109.45
4114.96,1109.45
4114.96,1117.32
4096.85,1117.32
4096.85,1109.45
3822.34,1109.45
3790.16,1141.63
3789.62,1289.96
3755.91,1289.96
3755.91,1239.96
3754.94,1230.21
3752.1,1220.83
3747.48,1212.18
3741.26,1204.61
3733.68,1198.39
3725.04,1193.77
3715.66,1190.92
3705.91,1189.96
3610.1,1189.96
3584.7,1176.38
3542.89,1163.7
3499.41,1159.42
3312.4,1159.42
3268.92,1163.7
3227.11,1176.38
3201.71,1189.96
3105.91,1189.96
3096.15,1190.92
3086.77,1193.77
3078.13,1198.39
3070.55,1204.61
3064.33,1212.18
3059.71,1220.83
3056.87,1230.21
3055.91,1239.96
3055.91,1289.96
2355.91,1289.96
2355.91,1221.46
2371.83,1234.53
2394.2,1246.48
2418.46,1253.85
2443.7,1256.33
2609.15,1255.71
2641.34,1223.52
2641.34,949.016
2659.45,949.016
2659.45,1223.52
2691.63,1255.71
2857.09,1256.33
2882.32,1253.85
2906.59,1246.48
2928.96,1234.53
2948.56,1218.44
2964.65,1198.84
2976.6,1176.47
2983.96,1152.21
2986.45,1126.97
2985.83,981.201
2953.64,949.016
2659.45,949.016
2641.34,949.016
2633.46,949.016
2633.46,930.906
2641.34,930.906
2641.34,923.031
2659.45,923.031
2659.45,930.906
2953.64,930.906
2985.83,898.72
2985.87,888.78
3789.53,888.78
3790.16,1059.15
3822.34,1091.34
4096.85,1091.34
4096.85,792.224
4114.96,792.224
4114.96,1091.34
4389.47,1091.34
4421.65,1059.15
4422.1,937.992
4437.96,937.992
4438.58,1024.7
4470.77,1056.89
4865.35,1056.89
4865.35,841.437
4833.17,809.252
4567.32,808.629
4542.09,811.115
4517.82,818.476
4495.45,830.431
4475.85,846.519
4459.76,866.122
4447.81,888.487
4440.45,912.755
4437.96,937.992
4422.1,937.992
4422.28,888.78
4419.79,863.542
4412.43,839.274
4400.47,816.909
4384.39,797.306
4364.78,781.218
4342.42,769.264
4318.15,761.902
4292.91,759.417
4147.15,760.039
4114.96,792.224
4096.85,792.224
4064.67,760.039
3918.9,759.417
3893.66,761.902
3869.39,769.264
3847.03,781.218
3827.42,797.306
3811.34,816.909
3799.38,839.274
3792.02,863.542
3789.53,888.78
2985.87,888.78
2986.45,752.953
2983.96,727.715
2976.6,703.448
2973.81,698.228
5155.91,698.228
Z" /> 
</g>
</g>
</g>
<g style="fill:#FFFFFF; fill-opacity:1.0; 
stroke:#FFFFFF; stroke-width:100; stroke-opacity:1; 
stroke-linecap:round; stroke-linejoin:round;">
</g>
<g style="fill:#FFFFFF; fill-opacity:1.0; 
stroke:#FFFFFF; stroke-width:0; stroke-opacity:1; 
stroke-linecap:round; stroke-linejoin:round;">
<circle cx="8405.91" cy="5039.96" r="196.85" /> 
</g>
<g style="fill:#FFFFFF; fill-opacity:1.0; 
stroke:#FFFFFF; stroke-width:39.3701; stroke-opacity:1; 
stroke-linecap:round; stroke-linejoin:round;">
</g>
<g style="fill:#FFFFFF; fill-opacity:1.0; 
stroke:#FFFFFF; stroke-width:0; stroke-opacity:1; 
stroke-linecap:round; stroke-linejoin:round;">
<circle cx="8405.91" cy="4039.96" r="196.85" /> 
</g>
<g style="fill:#FFFFFF; fill-opacity:1.0; 
stroke:#FFFFFF; stroke-width:39.3701; stroke-opacity:1; 
stroke-linecap:round; stroke-linejoin:round;">
</g>
<g style="fill:#FFFFFF; fill-opacity:1.0; 
stroke:#FFFFFF; stroke-width:0; stroke-opacity:1; 
stroke-linecap:round; stroke-linejoin:round;">
<circle cx="8405.91" cy="3039.96" r="196.85" /> 
</g>
<g style="fill:#FFFFFF; fill-opacity:1.0; 
stroke:#FFFFFF; stroke-width:39.3701; stroke-opacity:1; 
stroke-linecap:round; stroke-linejoin:round;">
</g>
<g style="fill:#FFFFFF; fill-opacity:1.0; 
stroke:#FFFFFF; stroke-width:0; stroke-opacity:1; 
stroke-linecap:round; stroke-linejoin:round;">
<circle cx="8405.91" cy="2039.96" r="196.85" /> 
</g>
<g style="fill:#FFFFFF; fill-opacity:1.0; 
stroke:#FFFFFF; stroke-width:39.3701; stroke-opacity:1; 
stroke-linecap:round; stroke-linejoin:round;">
</g>
<g style="fill:#FFFFFF; fill-opacity:1.0; 
stroke:#FFFFFF; stroke-width:0; stroke-opacity:1; 
stroke-linecap:round; stroke-linejoin:round;">
<circle cx="8405.91" cy="1039.96" r="196.85" /> 
</g>
<g style="fill:#FFFFFF; fill-opacity:1.0; 
stroke:#FFFFFF; stroke-width:39.3701; stroke-opacity:1; 
stroke-linecap:round; stroke-linejoin:round;">
</g>
<g style="fill:#FFFFFF; fill-opacity:1.0; 
stroke:#FFFFFF; stroke-width:0; stroke-opacity:1; 
stroke-linecap:round; stroke-linejoin:round;">
<circle cx="2581.69" cy="2055.71" r="167.323" /> 
</g>
<g style="fill:#FFFFFF; fill-opacity:1.0; 
stroke:#FFFFFF; stroke-width:39.3701; stroke-opacity:1; 
stroke-linecap:round; stroke-linejoin:round;">
</g>
<g style="fill:#FFFFFF; fill-opacity:1.0; 
stroke:#FFFFFF; stroke-width:0; stroke-opacity:1; 
stroke-linecap:round; stroke-linejoin:round;">
<circle cx="2581.69" cy="4024.21" r="167.323" /> 
</g>
<g style="fill:#FFFFFF; fill-opacity:1.0; 
stroke:#FFFFFF; stroke-width:39.3701; stroke-opacity:1; 
stroke-linecap:round; stroke-linejoin:round;">
</g>
<g style="fill:#FFFFFF; fill-opacity:1.0; 
stroke:#FFFFFF; stroke-width:236.22; stroke-opacity:1; 
stroke-linecap:round; stroke-linejoin:round;">
</g>
<g style="fill:#FFFFFF; fill-opacity:0.0; 
stroke:#FFFFFF; stroke-width:236.22; stroke-opacity:1; 
stroke-linecap:round; stroke-linejoin:round;">
<path d="M1380 1662
L1656 1662
" />
<path d="M1656 4417
L1380 4417
" />
</g>
<g style="fill:#000000; fill-opacity:0.0; 
stroke:#000000; stroke-width:236.22; stroke-opacity:1; 
stroke-linecap:round; stroke-linejoin:round;">
</g>
<g style="fill:#008484; fill-opacity:0.0; 
stroke:#008484; stroke-width:236.22; stroke-opacity:1; 
stroke-linecap:round; stroke-linejoin:round;">
</g>
<g style="fill:#008484; fill-opacity:0.0; 
stroke:#008484; stroke-width:47.2441; stroke-opacity:1; 
stroke-linecap:round; stroke-linejoin:round;">
<path d="M5051 2073
L5760 2073
" />
<path d="M5760 806
L4795 806
" />
<path d="M3606 4382
L3606 4497
" />
<path d="M3205 4382
L3205 4497
" />
<path d="M3606 1897
L3606 1782
" />
<path d="M3205 1897
L3205 1782
" />
<path d="M7405 4382
L7405 4497
" />
<path d="M7806 4382
L7806 4497
" />
<path d="M7106 1482
L7106 1597
" />
<path d="M6705 1482
L6705 1597
" />
<path d="M3905 1382
L3905 1497
" />
<path d="M4306 1382
L4306 1497
" />
<path d="M2373 739
L2238 739
" />
<path d="M2373 1140
L2238 1140
" />
<path d="M2916 2370
L2739 2370
" />
<path d="M2916 2370
L2916 2547
" />
<path d="M2699 4575
L2699 4398
" />
<path d="M1971 4575
L2699 4575
" />
<path d="M967 1504
L1065 1504
" />
<path d="M967 4575
L1065 4575
" />
<path d="M1971 1504
L2699 1504
" />
<path d="M2699 1504
L2699 1681
" />
<path d="M5905 5162
L5330 5162
" />
<path d="M5905 3917
L4661 3917
" />
<path d="M5905 3917
L5905 4284
" />
<path d="M5905 5162
L5905 4795
" />
<path d="M3906 3234
L3705 3234
" />
<path d="M3906 3645
L3705 3645
" />
<path d="M3906 3045
L3705 3045
" />
<path d="M3906 2634
L3705 2634
" />
<path d="M4211 4540
L4211 4339
" />
<path d="M3800 4540
L3800 4339
" />
<path d="M7211 4339
L7211 4540
" />
<path d="M6800 4339
L6800 4540
" />
<path d="M5215 3630
L6790 3630
" />
<path d="M5215 2449
L6396 2449
" />
<g >
</g>
</g>
<g style="fill:#000000; fill-opacity:0.0; 
stroke:#000000; stroke-width:47.2441; stroke-opacity:1; 
stroke-linecap:round; stroke-linejoin:round;">
</g>
<g style="fill:#C2C200; fill-opacity:0.0; 
stroke:#C2C200; stroke-width:47.2441; stroke-opacity:1; 
stroke-linecap:round; stroke-linejoin:round;">
</g>
<g style="fill:#C2C200; fill-opacity:0.0; 
stroke:#C2C200; stroke-width:59.0551; stroke-opacity:1; 
stroke-linecap:round; stroke-linejoin:round;">
<path d="M945.906 5039.96 A500 500 0.0 0 0 1445.91 5539.96" />
<path d="M1345.91 539.961 A400 400 0.0 0 0 945.906 939.961" />
<path d="M945 939
L945 5039
" />
<path d="M9005 5539
L1445 5539
" />
<path d="M9005 539
L1345 539
" />
<path d="M9505 1039
L9505 5039
" />
<path d="M9505.91 1039.96 A500 500 0.0 0 0 9005.91 539.961" />
<path d="M9005.91 5539.96 A500 500 0.0 0 0 9505.91 5039.96" />
<g >
</g>
<g >
</g>
<g >
</g>
<g >
</g>
<g >
</g>
<g >
</g>
<g >
</g>
<g >
</g>
<g >
</g>
<g >
</g>
<g >
</g>
<g >
</g>
<g >
</g>
<g >
</g>
<g >
</g>
<g >
</g>
</g> 
</svg>
