<?xml version="1.0" standalone="no"?>
 <!DOCTYPE svg PUBLIC "-//W3C//DTD SVG 1.1//EN" 
 "http://www.w3.org/Graphics/SVG/1.1/DTD/svg11.dtd"> 
<svg
  xmlns:svg="http://www.w3.org/2000/svg"
  xmlns="http://www.w3.org/2000/svg"
  xmlns:xlink="http://www.w3.org/1999/xlink"
  version="1.1"
  width="2.420620cm" height="1.557020cm" viewBox="0 0 9530 6130">
<title>SVG Picture created as extUsb-brd.svg date 2020/11/21 12:17:55 </title>
  <desc>Picture generated by PCBNEW </desc>
<g style="fill:#000000; fill-opacity:1;stroke:#000000; stroke-opacity:1;
stroke-linecap:round; stroke-linejoin:round;"
 transform="translate(0 0) scale(1 1)">
</g>
<g style="fill:#000000; fill-opacity:0.0; 
stroke:#000000; stroke-width:-0.000393701; stroke-opacity:1; 
stroke-linecap:round; stroke-linejoin:round;">
<g >
</g>
<g style="fill:#848400; fill-opacity:0.0; 
stroke:#848400; stroke-width:-0.000393701; stroke-opacity:1; 
stroke-linecap:round; stroke-linejoin:round;">
</g>
<g style="fill:#848400; fill-opacity:1.0; 
stroke:#848400; stroke-width:0; stroke-opacity:1; 
stroke-linecap:round; stroke-linejoin:round;">
<circle cx="2581.69" cy="2055.71" r="285.433" /> 
</g>
<g style="fill:#848400; fill-opacity:1.0; 
stroke:#848400; stroke-width:39.3701; stroke-opacity:1; 
stroke-linecap:round; stroke-linejoin:round;">
</g>
<g style="fill:#848400; fill-opacity:1.0; 
stroke:#848400; stroke-width:0; stroke-opacity:1; 
stroke-linecap:round; stroke-linejoin:round;">
<circle cx="2581.69" cy="4024.21" r="285.433" /> 
</g>
<g style="fill:#848400; fill-opacity:1.0; 
stroke:#848400; stroke-width:39.3701; stroke-opacity:1; 
stroke-linecap:round; stroke-linejoin:round;">
</g>
<g style="fill:#848400; fill-opacity:1.0; 
stroke:#848400; stroke-width:472.441; stroke-opacity:1; 
stroke-linecap:round; stroke-linejoin:round;">
</g>
<g style="fill:#848400; fill-opacity:0.0; 
stroke:#848400; stroke-width:472.441; stroke-opacity:1; 
stroke-linecap:round; stroke-linejoin:round;">
<path d="M1380 1662
L1656 1662
" />
<path d="M1656 4417
L1380 4417
" />
</g>
<g >
</g>
<g style="fill:#008400; fill-opacity:0.0; 
stroke:#008400; stroke-width:472.441; stroke-opacity:1; 
stroke-linecap:round; stroke-linejoin:round;">
</g>
<g style="fill:#008400; fill-opacity:1.0; 
stroke:#008400; stroke-width:0; stroke-opacity:1; 
stroke-linecap:round; stroke-linejoin:round;">
<circle cx="6205.91" cy="4039.96" r="393.701" /> 
</g>
<g style="fill:#008400; fill-opacity:1.0; 
stroke:#008400; stroke-width:39.3701; stroke-opacity:1; 
stroke-linecap:round; stroke-linejoin:round;">
</g>
<g >
</g>
<g style="fill:#008400; fill-opacity:1.0; 
stroke:#008400; stroke-width:39.3701; stroke-opacity:1; 
stroke-linecap:round; stroke-linejoin:round;">
</g>
<g style="fill:#008400; fill-opacity:1.0; 
stroke:#008400; stroke-width:0; stroke-opacity:1; 
stroke-linecap:round; stroke-linejoin:round;">
<circle cx="2305.91" cy="4939.96" r="393.701" /> 
</g>
<g style="fill:#008400; fill-opacity:1.0; 
stroke:#008400; stroke-width:39.3701; stroke-opacity:1; 
stroke-linecap:round; stroke-linejoin:round;">
</g>
<g >
</g>
<g style="fill:#008400; fill-opacity:1.0; 
stroke:#008400; stroke-width:39.3701; stroke-opacity:1; 
stroke-linecap:round; stroke-linejoin:round;">
</g>
<g style="fill:#008400; fill-opacity:1.0; 
stroke:#008400; stroke-width:0; stroke-opacity:1; 
stroke-linecap:round; stroke-linejoin:round;">
<circle cx="3305.91" cy="4939.96" r="393.701" /> 
</g>
<g style="fill:#008400; fill-opacity:1.0; 
stroke:#008400; stroke-width:39.3701; stroke-opacity:1; 
stroke-linecap:round; stroke-linejoin:round;">
</g>
<g >
</g>
<g style="fill:#008400; fill-opacity:1.0; 
stroke:#008400; stroke-width:39.3701; stroke-opacity:1; 
stroke-linecap:round; stroke-linejoin:round;">
</g>
<g style="fill:#008400; fill-opacity:1.0; 
stroke:#008400; stroke-width:0; stroke-opacity:1; 
stroke-linecap:round; stroke-linejoin:round;">
<circle cx="4305.91" cy="4939.96" r="393.701" /> 
</g>
<g style="fill:#008400; fill-opacity:1.0; 
stroke:#008400; stroke-width:39.3701; stroke-opacity:1; 
stroke-linecap:round; stroke-linejoin:round;">
</g>
<g >
</g>
<g style="fill:#008400; fill-opacity:1.0; 
stroke:#008400; stroke-width:39.3701; stroke-opacity:1; 
stroke-linecap:round; stroke-linejoin:round;">
</g>
<g style="fill:#008400; fill-opacity:1.0; 
stroke:#008400; stroke-width:0; stroke-opacity:1; 
stroke-linecap:round; stroke-linejoin:round;">
<circle cx="6205.91" cy="1139.96" r="393.701" /> 
</g>
<g style="fill:#008400; fill-opacity:1.0; 
stroke:#008400; stroke-width:39.3701; stroke-opacity:1; 
stroke-linecap:round; stroke-linejoin:round;">
</g>
<g >
</g>
<g style="fill:#008400; fill-opacity:1.0; 
stroke:#008400; stroke-width:39.3701; stroke-opacity:1; 
stroke-linecap:round; stroke-linejoin:round;">
</g>
<g style="fill:#008400; fill-opacity:1.0; 
stroke:#008400; stroke-width:0; stroke-opacity:1; 
stroke-linecap:round; stroke-linejoin:round;">
<circle cx="6705.91" cy="3039.96" r="393.701" /> 
</g>
<g style="fill:#008400; fill-opacity:1.0; 
stroke:#008400; stroke-width:39.3701; stroke-opacity:1; 
stroke-linecap:round; stroke-linejoin:round;">
</g>
<g >
</g>
<g style="fill:#008400; fill-opacity:1.0; 
stroke:#008400; stroke-width:39.3701; stroke-opacity:1; 
stroke-linecap:round; stroke-linejoin:round;">
</g>
<g style="fill:#008400; fill-opacity:1.0; 
stroke:#008400; stroke-width:0; stroke-opacity:1; 
stroke-linecap:round; stroke-linejoin:round;">
<circle cx="6705.91" cy="2039.96" r="393.701" /> 
</g>
<g style="fill:#008400; fill-opacity:1.0; 
stroke:#008400; stroke-width:39.3701; stroke-opacity:1; 
stroke-linecap:round; stroke-linejoin:round;">
</g>
<g >
</g>
<g style="fill:#848400; fill-opacity:1.0; 
stroke:#848400; stroke-width:39.3701; stroke-opacity:1; 
stroke-linecap:round; stroke-linejoin:round;">
</g>
<g style="fill:#848400; fill-opacity:1.0; 
stroke:#848400; stroke-width:0; stroke-opacity:1; 
stroke-linecap:round; stroke-linejoin:round;">
<path style="fill:#848400; fill-opacity:1.0; 
stroke:#848400; stroke-width:0; stroke-opacity:1; 
stroke-linecap:round; stroke-linejoin:round;fill-rule:evenodd;"
d="M 8071.26,5374.61
8071.26,4705.31
8740.55,4705.31
8740.55,5374.61
Z" /> 
<circle cx="8405.91" cy="4039.96" r="334.646" /> 
</g>
<g style="fill:#848400; fill-opacity:1.0; 
stroke:#848400; stroke-width:39.3701; stroke-opacity:1; 
stroke-linecap:round; stroke-linejoin:round;">
</g>
<g style="fill:#848400; fill-opacity:1.0; 
stroke:#848400; stroke-width:0; stroke-opacity:1; 
stroke-linecap:round; stroke-linejoin:round;">
<circle cx="8405.91" cy="3039.96" r="334.646" /> 
</g>
<g style="fill:#848400; fill-opacity:1.0; 
stroke:#848400; stroke-width:39.3701; stroke-opacity:1; 
stroke-linecap:round; stroke-linejoin:round;">
</g>
<g style="fill:#848400; fill-opacity:1.0; 
stroke:#848400; stroke-width:0; stroke-opacity:1; 
stroke-linecap:round; stroke-linejoin:round;">
<circle cx="8405.91" cy="2039.96" r="334.646" /> 
</g>
<g style="fill:#848400; fill-opacity:1.0; 
stroke:#848400; stroke-width:39.3701; stroke-opacity:1; 
stroke-linecap:round; stroke-linejoin:round;">
</g>
<g style="fill:#848400; fill-opacity:1.0; 
stroke:#848400; stroke-width:0; stroke-opacity:1; 
stroke-linecap:round; stroke-linejoin:round;">
<circle cx="8405.91" cy="1039.96" r="334.646" /> 
</g>
<g style="fill:#848400; fill-opacity:1.0; 
stroke:#848400; stroke-width:39.3701; stroke-opacity:1; 
stroke-linecap:round; stroke-linejoin:round;">
</g>
<g >
</g>
<g >
</g>
<g >
</g>
<g >
</g>
<g >
</g>
<g >
</g>
<g >
</g>
<g >
</g>
<g >
</g>
<g >
</g>
<g >
</g>
<g >
</g>
<g >
</g>
<g style="fill:#008400; fill-opacity:1.0; 
stroke:#008400; stroke-width:39.3701; stroke-opacity:1; 
stroke-linecap:round; stroke-linejoin:round;">
</g>
<g style="fill:#008400; fill-opacity:1.0; 
stroke:#008400; stroke-width:98.4252; stroke-opacity:1; 
stroke-linecap:round; stroke-linejoin:round;">
</g>
<g style="fill:#008400; fill-opacity:0.0; 
stroke:#008400; stroke-width:98.4252; stroke-opacity:1; 
stroke-linecap:round; stroke-linejoin:round;">
<path d="M1518 1662
L1518 4417
" />
<path d="M2187 4417
L2581 4024
" />
<path d="M1518 4417
L2187 4417
" />
<path d="M2187 1662
L2581 2055
" />
<path d="M1518 1662
L2187 1662
" />
</g>
<g style="fill:#008400; fill-opacity:0.0; 
stroke:#008400; stroke-width:196.85; stroke-opacity:1; 
stroke-linecap:round; stroke-linejoin:round;">
<path d="M2305 4939
L3305 4939
" />
<path d="M3305 4939
L4305 4939
" />
<path d="M8305 4939
L8405 5039
" />
<path d="M4305 4939
L8305 4939
" />
</g>
<g style="fill:#008400; fill-opacity:0.0; 
stroke:#008400; stroke-width:98.4252; stroke-opacity:1; 
stroke-linecap:round; stroke-linejoin:round;">
<path d="M1518 4417
L1518 4827
" />
<path d="M1631 4939
L2305 4939
" />
<path d="M1518 4827
L1631 4939
" />
</g>
<g style="fill:#008400; fill-opacity:0.0; 
stroke:#008400; stroke-width:196.85; stroke-opacity:1; 
stroke-linecap:round; stroke-linejoin:round;">
<path d="M6205 4039
L8405 4039
" />
<path d="M6705 3039
L8405 3039
" />
<path d="M6705 2039
L8405 2039
" />
<path d="M6305 1039
L6205 1139
" />
<path d="M8405 1039
L6305 1039
" />
</g>
<g >
</g>
<g style="fill:#008400; fill-opacity:0.0; 
stroke:#008400; stroke-width:196.85; stroke-opacity:1; 
stroke-linecap:round; stroke-linejoin:round;">
<g >
</g>
<g style="fill:#008400; fill-opacity:1.0; 
stroke:#008400; stroke-width:100; stroke-opacity:1; 
stroke-linecap:round; stroke-linejoin:round;">
<path style="fill:#008400; fill-opacity:1.0; 
stroke:#008400; stroke-width:100; stroke-opacity:1; 
stroke-linecap:round; stroke-linejoin:round;fill-rule:evenodd;"
d="M 5769.52,781.827
5708.04,873.843
5665.68,976.086
5644.09,1084.63
5644.09,1195.29
5665.68,1303.84
5708.04,1406.08
5769.52,1498.09
5847.77,1576.35
5939.79,1637.83
6042.03,1680.18
6150.57,1701.77
6256.19,1701.77
6208.04,1773.84
6165.68,1876.09
6144.09,1984.63
6144.09,2095.29
6165.68,2203.84
6208.04,2306.08
6269.52,2398.09
6347.77,2476.35
6439.79,2537.83
6444.93,2539.96
6439.79,2542.09
6347.77,2603.57
6269.52,2681.83
6208.04,2773.84
6165.68,2876.09
6144.09,2984.63
6144.09,3095.29
6165.68,3203.84
6208.04,3306.08
6269.52,3398.09
6347.77,3476.35
6403.98,3513.91
6369.78,3499.74
6261.24,3478.15
6150.57,3478.15
6042.03,3499.74
5939.79,3542.09
5847.77,3603.57
5769.52,3681.83
5708.04,3773.84
5665.68,3876.09
5644.09,3984.63
5644.09,4095.29
5665.68,4203.84
5708.04,4306.08
5769.52,4398.09
5847.77,4476.35
5939.79,4537.83
6042.03,4580.18
6150.57,4601.77
6261.24,4601.77
6369.78,4580.18
6472.02,4537.83
6564.04,4476.35
6642.29,4398.09
6703.5,4306.5
7979.34,4306.5
8015.39,4360.45
8085.42,4430.48
8167.76,4485.5
8259.26,4523.4
8328.3,4537.13
8071.26,4536.39
8038.3,4539.64
8006.62,4549.25
7977.41,4564.86
7951.81,4585.87
7930.81,4611.47
7915.19,4640.67
7905.58,4672.36
7902.34,4705.31
7903.15,4988.88
7945.18,5030.91
8396.85,5030.91
8396.85,5023.03
8414.96,5023.03
8414.96,5030.91
8866.63,5030.91
8908.66,4988.88
8909.47,4705.31
8906.23,4672.36
8896.62,4640.67
8881.01,4611.47
8860,4585.87
8834.4,4564.86
8805.2,4549.25
8773.51,4539.64
8740.55,4536.39
8483.52,4537.13
8552.55,4523.4
8644.05,4485.5
8726.39,4430.48
8796.42,4360.45
8851.44,4278.1
8889.34,4186.61
8908.66,4089.48
8908.66,3990.44
8889.34,3893.31
8851.44,3801.82
8796.42,3719.47
8726.39,3649.44
8644.05,3594.42
8552.55,3556.53
8469.28,3539.96
8552.55,3523.4
8644.05,3485.5
8726.39,3430.48
8796.42,3360.45
8851.44,3278.1
8889.34,3186.61
8908.66,3089.48
8908.66,2990.44
8889.34,2893.31
8851.44,2801.82
8796.42,2719.47
8726.39,2649.44
8644.05,2594.42
8552.55,2556.53
8469.28,2539.96
8552.55,2523.4
8644.05,2485.5
8726.39,2430.48
8796.42,2360.45
8851.44,2278.1
8889.34,2186.61
8908.66,2089.48
8908.66,1990.44
8889.34,1893.31
8851.44,1801.82
8796.42,1719.47
8726.39,1649.44
8644.05,1594.42
8552.55,1556.53
8469.28,1539.96
8552.55,1523.4
8644.05,1485.5
8726.39,1430.48
8796.42,1360.45
8851.44,1278.1
8889.34,1186.61
8908.66,1089.48
8908.66,990.443
8889.34,893.312
8851.44,801.817
8808.53,737.598
8996.24,737.598
9064.45,744.287
9120.77,761.289
9172.71,788.906
9218.29,826.086
9255.79,871.411
9283.77,923.159
9301.16,979.353
9308.27,1046.94
9308.27,5030.29
9301.58,5098.51
9284.58,5154.82
9256.96,5206.76
9219.78,5252.35
9174.45,5289.84
9122.71,5317.82
9066.51,5335.22
8998.92,5342.32
8909.38,5342.32
8908.66,5091.04
8866.63,5049.02
8414.96,5049.02
8414.96,5056.89
8396.85,5056.89
8396.85,5049.02
7945.18,5049.02
7903.15,5091.04
7902.43,5342.32
4657.03,5342.32
4668.91,5315.77
4305.91,4952.77
3942.9,5315.77
3954.78,5342.32
3657.03,5342.32
3668.91,5315.77
3305.91,4952.77
2942.9,5315.77
2954.78,5342.32
2657.03,5342.32
2668.91,5315.77
2305.91,4952.77
1942.9,5315.77
1954.78,5342.32
1455.57,5342.32
1387.36,5335.63
1331.04,5318.63
1279.1,5291.01
1233.52,5253.84
1196.02,5208.51
1168.04,5156.76
1150.65,5100.57
1143.54,5032.98
1143.54,4744.61
1148.74,4749.07
1217.81,4788
1293.14,4812.71
1371.85,4822.24
1509.65,4822.24
1509.65,4426.97
1527.76,4426.97
1527.76,4822.24
1665.55,4822.24
1744.26,4812.71
1757.8,4808.27
1754.93,4817
1741.53,4926.85
1749.81,5037.2
1779.47,5143.82
1829.36,5242.61
1843.93,5264.41
1930.09,5302.97
2293.1,4939.96
2318.71,4939.96
2681.72,5302.97
2767.88,5264.41
2806.15,5196.66
2829.36,5242.61
2843.93,5264.41
2930.09,5302.97
3293.1,4939.96
3318.71,4939.96
3681.72,5302.97
3767.88,5264.41
3806.15,5196.66
3829.36,5242.61
3843.93,5264.41
3930.09,5302.97
4293.1,4939.96
4318.71,4939.96
4681.72,5302.97
4767.88,5264.41
4822.3,5168.05
4856.88,5062.93
4870.28,4953.07
4862,4842.72
4832.34,4736.1
4782.45,4637.31
4767.88,4615.51
4681.72,4576.95
4318.71,4939.96
4293.1,4939.96
3930.09,4576.95
3843.93,4615.51
3805.66,4683.27
3782.45,4637.31
3767.88,4615.51
3681.72,4576.95
3318.71,4939.96
3293.1,4939.96
2930.09,4576.95
2843.93,4615.51
2805.66,4683.27
2782.45,4637.31
2767.88,4615.51
2681.72,4576.95
2318.71,4939.96
2293.1,4939.96
2287.53,4934.39
2300.34,4921.59
2305.91,4927.15
2668.91,4564.15
2942.9,4564.15
3305.91,4927.15
3668.91,4564.15
3942.9,4564.15
4305.91,4927.15
4668.91,4564.15
4630.36,4477.98
4534,4423.56
4428.87,4388.99
4319.02,4375.58
4208.66,4383.87
4102.04,4413.53
4003.26,4463.41
3981.45,4477.98
3942.9,4564.15
3668.91,4564.15
3630.36,4477.98
3534,4423.56
3428.87,4388.99
3319.02,4375.58
3208.66,4383.87
3102.04,4413.53
3003.26,4463.41
2981.45,4477.98
2942.9,4564.15
2668.91,4564.15
2630.36,4477.98
2626.23,4475.65
2661.92,4472.83
2747.9,4448.56
2827.49,4407.98
2842.19,4398.16
2867.76,4323.08
2581.69,4037.02
2295.63,4323.08
2313.64,4375.99
2208.66,4383.87
2102.04,4413.53
2031.28,4449.26
2018.69,4426.97
1527.76,4426.97
1509.65,4426.97
1501.77,4426.97
1501.77,4408.86
1509.65,4408.86
1509.65,4013.58
1527.76,4013.58
1527.76,4408.86
2018.69,4408.86
2054.33,4345.73
2033.51,4271.55
1997.72,4200.81
1948.8,4138.41
1888.66,4086.76
1819.59,4047.83
1744.26,4023.12
1680.32,4015.37
2126.04,4015.37
2133.07,4104.44
2157.34,4190.42
2197.92,4270.01
2207.74,4284.71
2282.82,4310.28
2568.89,4024.21
2594.5,4024.21
2880.56,4310.28
2955.64,4284.71
2999.28,4206.75
3026.86,4121.78
3037.34,4033.05
3030.31,3943.99
3006.04,3858.01
2965.46,3778.42
2955.64,3763.72
2880.56,3738.15
2594.5,4024.21
2568.89,4024.21
2282.82,3738.15
2207.74,3763.72
2164.11,3841.67
2136.52,3926.65
2126.04,4015.37
1680.32,4015.37
1665.55,4013.58
1527.76,4013.58
1509.65,4013.58
1371.85,4013.58
1293.14,4023.12
1217.81,4047.83
1148.74,4086.76
1143.54,4091.22
1143.54,3725.34
2295.63,3725.34
2581.69,4011.41
2867.76,3725.34
2842.19,3650.26
2764.23,3606.63
2679.26,3579.04
2590.53,3568.56
2501.47,3575.59
2415.49,3599.86
2335.9,3640.44
2321.2,3650.26
2295.63,3725.34
1143.54,3725.34
1143.54,2354.58
2295.63,2354.58
2321.2,2429.66
2399.16,2473.29
2484.13,2500.88
2572.85,2511.36
2661.92,2504.33
2747.9,2480.06
2827.49,2439.48
2842.19,2429.66
2867.76,2354.58
2581.69,2068.51
2295.63,2354.58
1143.54,2354.58
1143.54,1988.7
1148.74,1993.17
1217.81,2032.1
1293.14,2056.8
1371.85,2066.34
1509.65,2066.34
1509.65,1671.06
1527.76,1671.06
1527.76,2066.34
1665.55,2066.34
1744.26,2056.8
1774.55,2046.87
2126.04,2046.87
2133.07,2135.93
2157.34,2221.91
2197.92,2301.5
2207.74,2316.21
2282.82,2341.77
2568.89,2055.71
2594.5,2055.71
2880.56,2341.77
2955.64,2316.21
2999.28,2238.25
3026.86,2153.27
3037.34,2064.55
3030.31,1975.49
3006.04,1889.51
2965.46,1809.91
2955.64,1795.21
2880.56,1769.64
2594.5,2055.71
2568.89,2055.71
2282.82,1769.64
2207.74,1795.21
2164.11,1873.17
2136.52,1958.14
2126.04,2046.87
1774.55,2046.87
1819.59,2032.1
1888.66,1993.17
1948.8,1941.51
1997.72,1879.11
2033.51,1808.37
2047.98,1756.84
2295.63,1756.84
2581.69,2042.9
2867.76,1756.84
2842.19,1681.76
2764.23,1638.12
2679.26,1610.54
2590.53,1600.06
2501.47,1607.09
2415.49,1631.36
2335.9,1671.94
2321.2,1681.76
2295.63,1756.84
2047.98,1756.84
2054.33,1734.19
2018.69,1671.06
1527.76,1671.06
1509.65,1671.06
1501.77,1671.06
1501.77,1652.95
1509.65,1652.95
1509.65,1257.68
1527.76,1257.68
1527.76,1652.95
2018.69,1652.95
2054.33,1589.83
2033.51,1515.64
1997.72,1444.9
1948.8,1382.51
1888.66,1330.85
1819.59,1291.92
1744.26,1267.21
1665.55,1257.68
1527.76,1257.68
1509.65,1257.68
1371.85,1257.68
1293.14,1267.21
1217.81,1291.92
1148.74,1330.85
1143.54,1335.32
1143.54,949.627
1148.33,900.839
1159.69,863.206
1178.14,828.5
1202.99,798.037
1233.28,772.98
1267.85,754.284
1305.4,742.66
1353.56,737.598
5813.75,737.598
Z" /> 
</g>
</g>
</g>
<g style="fill:#FFFFFF; fill-opacity:1.0; 
stroke:#FFFFFF; stroke-width:100; stroke-opacity:1; 
stroke-linecap:round; stroke-linejoin:round;">
</g>
<g style="fill:#FFFFFF; fill-opacity:1.0; 
stroke:#FFFFFF; stroke-width:0; stroke-opacity:1; 
stroke-linecap:round; stroke-linejoin:round;">
<circle cx="2581.69" cy="2055.71" r="167.323" /> 
</g>
<g style="fill:#FFFFFF; fill-opacity:1.0; 
stroke:#FFFFFF; stroke-width:39.3701; stroke-opacity:1; 
stroke-linecap:round; stroke-linejoin:round;">
</g>
<g style="fill:#FFFFFF; fill-opacity:1.0; 
stroke:#FFFFFF; stroke-width:0; stroke-opacity:1; 
stroke-linecap:round; stroke-linejoin:round;">
<circle cx="2581.69" cy="4024.21" r="167.323" /> 
</g>
<g style="fill:#FFFFFF; fill-opacity:1.0; 
stroke:#FFFFFF; stroke-width:39.3701; stroke-opacity:1; 
stroke-linecap:round; stroke-linejoin:round;">
</g>
<g style="fill:#FFFFFF; fill-opacity:1.0; 
stroke:#FFFFFF; stroke-width:334.646; stroke-opacity:1; 
stroke-linecap:round; stroke-linejoin:round;">
</g>
<g style="fill:#FFFFFF; fill-opacity:0.0; 
stroke:#FFFFFF; stroke-width:334.646; stroke-opacity:1; 
stroke-linecap:round; stroke-linejoin:round;">
<path d="M1430 1662
L1607 1662
" />
<path d="M1607 4417
L1430 4417
" />
</g>
<g style="fill:#FFFFFF; fill-opacity:1.0; 
stroke:#FFFFFF; stroke-width:0; stroke-opacity:1; 
stroke-linecap:round; stroke-linejoin:round;">
<circle cx="8405.91" cy="5039.96" r="196.85" /> 
</g>
<g style="fill:#FFFFFF; fill-opacity:1.0; 
stroke:#FFFFFF; stroke-width:39.3701; stroke-opacity:1; 
stroke-linecap:round; stroke-linejoin:round;">
</g>
<g style="fill:#FFFFFF; fill-opacity:1.0; 
stroke:#FFFFFF; stroke-width:0; stroke-opacity:1; 
stroke-linecap:round; stroke-linejoin:round;">
<circle cx="8405.91" cy="4039.96" r="196.85" /> 
</g>
<g style="fill:#FFFFFF; fill-opacity:1.0; 
stroke:#FFFFFF; stroke-width:39.3701; stroke-opacity:1; 
stroke-linecap:round; stroke-linejoin:round;">
</g>
<g style="fill:#FFFFFF; fill-opacity:1.0; 
stroke:#FFFFFF; stroke-width:0; stroke-opacity:1; 
stroke-linecap:round; stroke-linejoin:round;">
<circle cx="8405.91" cy="3039.96" r="196.85" /> 
</g>
<g style="fill:#FFFFFF; fill-opacity:1.0; 
stroke:#FFFFFF; stroke-width:39.3701; stroke-opacity:1; 
stroke-linecap:round; stroke-linejoin:round;">
</g>
<g style="fill:#FFFFFF; fill-opacity:1.0; 
stroke:#FFFFFF; stroke-width:0; stroke-opacity:1; 
stroke-linecap:round; stroke-linejoin:round;">
<circle cx="8405.91" cy="2039.96" r="196.85" /> 
</g>
<g style="fill:#FFFFFF; fill-opacity:1.0; 
stroke:#FFFFFF; stroke-width:39.3701; stroke-opacity:1; 
stroke-linecap:round; stroke-linejoin:round;">
</g>
<g style="fill:#FFFFFF; fill-opacity:1.0; 
stroke:#FFFFFF; stroke-width:0; stroke-opacity:1; 
stroke-linecap:round; stroke-linejoin:round;">
<circle cx="8405.91" cy="1039.96" r="196.85" /> 
</g>
<g style="fill:#FFFFFF; fill-opacity:1.0; 
stroke:#FFFFFF; stroke-width:39.3701; stroke-opacity:1; 
stroke-linecap:round; stroke-linejoin:round;">
</g>
<g style="fill:#000000; fill-opacity:1.0; 
stroke:#000000; stroke-width:39.3701; stroke-opacity:1; 
stroke-linecap:round; stroke-linejoin:round;">
<g >
</g>
<g style="fill:#840000; fill-opacity:1.0; 
stroke:#840000; stroke-width:39.3701; stroke-opacity:1; 
stroke-linecap:round; stroke-linejoin:round;">
</g>
<g style="fill:#840000; fill-opacity:1.0; 
stroke:#840000; stroke-width:0; stroke-opacity:1; 
stroke-linecap:round; stroke-linejoin:round;">
<path style="fill:#840000; fill-opacity:1.0; 
stroke:#840000; stroke-width:0; stroke-opacity:1; 
stroke-linecap:round; stroke-linejoin:round;fill-rule:evenodd;"
d="M 1144.69,3138.39
1892.72,3138.39
1892.72,3728.94
1144.69,3728.94
Z" /> 
</g>
<g style="fill:#848400; fill-opacity:1.0; 
stroke:#848400; stroke-width:0; stroke-opacity:1; 
stroke-linecap:round; stroke-linejoin:round;">
<circle cx="2581.69" cy="2055.71" r="285.433" /> 
</g>
<g style="fill:#848400; fill-opacity:1.0; 
stroke:#848400; stroke-width:39.3701; stroke-opacity:1; 
stroke-linecap:round; stroke-linejoin:round;">
</g>
<g style="fill:#840000; fill-opacity:1.0; 
stroke:#840000; stroke-width:39.3701; stroke-opacity:1; 
stroke-linecap:round; stroke-linejoin:round;">
</g>
<g style="fill:#840000; fill-opacity:1.0; 
stroke:#840000; stroke-width:0; stroke-opacity:1; 
stroke-linecap:round; stroke-linejoin:round;">
<path style="fill:#840000; fill-opacity:1.0; 
stroke:#840000; stroke-width:0; stroke-opacity:1; 
stroke-linecap:round; stroke-linejoin:round;fill-rule:evenodd;"
d="M 2315.94,2705.31
3004.92,2705.31
3004.92,2862.8
2315.94,2862.8
Z" /> 
<path style="fill:#840000; fill-opacity:1.0; 
stroke:#840000; stroke-width:0; stroke-opacity:1; 
stroke-linecap:round; stroke-linejoin:round;fill-rule:evenodd;"
d="M 2315.94,2449.41
3004.92,2449.41
3004.92,2606.89
2315.94,2606.89
Z" /> 
<path style="fill:#840000; fill-opacity:1.0; 
stroke:#840000; stroke-width:0; stroke-opacity:1; 
stroke-linecap:round; stroke-linejoin:round;fill-rule:evenodd;"
d="M 2315.94,3473.03
3004.92,3473.03
3004.92,3630.51
2315.94,3630.51
Z" /> 
<path style="fill:#840000; fill-opacity:1.0; 
stroke:#840000; stroke-width:0; stroke-opacity:1; 
stroke-linecap:round; stroke-linejoin:round;fill-rule:evenodd;"
d="M 2315.94,3217.13
2847.44,3217.13
2847.44,3374.61
2315.94,3374.61
Z" /> 
<path style="fill:#840000; fill-opacity:1.0; 
stroke:#840000; stroke-width:0; stroke-opacity:1; 
stroke-linecap:round; stroke-linejoin:round;fill-rule:evenodd;"
d="M 2315.94,2961.22
3004.92,2961.22
3004.92,3118.7
2315.94,3118.7
Z" /> 
</g>
<g style="fill:#848400; fill-opacity:1.0; 
stroke:#848400; stroke-width:0; stroke-opacity:1; 
stroke-linecap:round; stroke-linejoin:round;">
<circle cx="2581.69" cy="4024.21" r="285.433" /> 
</g>
<g style="fill:#848400; fill-opacity:1.0; 
stroke:#848400; stroke-width:39.3701; stroke-opacity:1; 
stroke-linecap:round; stroke-linejoin:round;">
</g>
<g style="fill:#840000; fill-opacity:1.0; 
stroke:#840000; stroke-width:39.3701; stroke-opacity:1; 
stroke-linecap:round; stroke-linejoin:round;">
</g>
<g style="fill:#840000; fill-opacity:1.0; 
stroke:#840000; stroke-width:0; stroke-opacity:1; 
stroke-linecap:round; stroke-linejoin:round;">
<path style="fill:#840000; fill-opacity:1.0; 
stroke:#840000; stroke-width:0; stroke-opacity:1; 
stroke-linecap:round; stroke-linejoin:round;fill-rule:evenodd;"
d="M 1144.69,2350.98
1892.72,2350.98
1892.72,2941.54
1144.69,2941.54
Z" /> 
</g>
<g style="fill:#848400; fill-opacity:1.0; 
stroke:#848400; stroke-width:0; stroke-opacity:1; 
stroke-linecap:round; stroke-linejoin:round;">
</g>
<g style="fill:#848400; fill-opacity:1.0; 
stroke:#848400; stroke-width:472.441; stroke-opacity:1; 
stroke-linecap:round; stroke-linejoin:round;">
</g>
<g style="fill:#848400; fill-opacity:0.0; 
stroke:#848400; stroke-width:472.441; stroke-opacity:1; 
stroke-linecap:round; stroke-linejoin:round;">
<path d="M1380 1662
L1656 1662
" />
<path d="M1656 4417
L1380 4417
" />
</g>
<g style="fill:#840000; fill-opacity:0.0; 
stroke:#840000; stroke-width:472.441; stroke-opacity:1; 
stroke-linecap:round; stroke-linejoin:round;">
</g>
<g style="fill:#840000; fill-opacity:0.0; 
stroke:#840000; stroke-width:0; stroke-opacity:1; 
stroke-linecap:round; stroke-linejoin:round;">
</g>
<g style="fill:#840000; fill-opacity:1.0; 
stroke:#840000; stroke-width:0; stroke-opacity:1; 
stroke-linecap:round; stroke-linejoin:round;">
<path style="fill:#840000; fill-opacity:1.0; 
stroke:#840000; stroke-width:0; stroke-opacity:1; 
stroke-linecap:round; stroke-linejoin:round;fill-rule:evenodd;"
d="M 1144.69,3945.47
1892.72,3945.47
1892.72,4417.91
1144.69,4417.91
Z" /> 
<path style="fill:#840000; fill-opacity:1.0; 
stroke:#840000; stroke-width:0; stroke-opacity:1; 
stroke-linecap:round; stroke-linejoin:round;fill-rule:evenodd;"
d="M 1144.69,1662.01
1892.72,1662.01
1892.72,2134.45
1144.69,2134.45
Z" /> 
</g>
<g >
</g>
<g >
</g>
<g >
</g>
<g >
</g>
<g >
</g>
<g >
</g>
<g >
</g>
<g >
</g>
<g style="fill:#848400; fill-opacity:1.0; 
stroke:#848400; stroke-width:0; stroke-opacity:1; 
stroke-linecap:round; stroke-linejoin:round;">
<path style="fill:#848400; fill-opacity:1.0; 
stroke:#848400; stroke-width:0; stroke-opacity:1; 
stroke-linecap:round; stroke-linejoin:round;fill-rule:evenodd;"
d="M 8071.26,5374.61
8071.26,4705.31
8740.55,4705.31
8740.55,5374.61
Z" /> 
<circle cx="8405.91" cy="4039.96" r="334.646" /> 
</g>
<g style="fill:#848400; fill-opacity:1.0; 
stroke:#848400; stroke-width:39.3701; stroke-opacity:1; 
stroke-linecap:round; stroke-linejoin:round;">
</g>
<g style="fill:#848400; fill-opacity:1.0; 
stroke:#848400; stroke-width:0; stroke-opacity:1; 
stroke-linecap:round; stroke-linejoin:round;">
<circle cx="8405.91" cy="3039.96" r="334.646" /> 
</g>
<g style="fill:#848400; fill-opacity:1.0; 
stroke:#848400; stroke-width:39.3701; stroke-opacity:1; 
stroke-linecap:round; stroke-linejoin:round;">
</g>
<g style="fill:#848400; fill-opacity:1.0; 
stroke:#848400; stroke-width:0; stroke-opacity:1; 
stroke-linecap:round; stroke-linejoin:round;">
<circle cx="8405.91" cy="2039.96" r="334.646" /> 
</g>
<g style="fill:#848400; fill-opacity:1.0; 
stroke:#848400; stroke-width:39.3701; stroke-opacity:1; 
stroke-linecap:round; stroke-linejoin:round;">
</g>
<g style="fill:#848400; fill-opacity:1.0; 
stroke:#848400; stroke-width:0; stroke-opacity:1; 
stroke-linecap:round; stroke-linejoin:round;">
<circle cx="8405.91" cy="1039.96" r="334.646" /> 
</g>
<g style="fill:#848400; fill-opacity:1.0; 
stroke:#848400; stroke-width:39.3701; stroke-opacity:1; 
stroke-linecap:round; stroke-linejoin:round;">
</g>
<g >
</g>
<g style="fill:#840000; fill-opacity:1.0; 
stroke:#840000; stroke-width:39.3701; stroke-opacity:1; 
stroke-linecap:round; stroke-linejoin:round;">
</g>
<g style="fill:#840000; fill-opacity:1.0; 
stroke:#840000; stroke-width:0; stroke-opacity:1; 
stroke-linecap:round; stroke-linejoin:round;">
<path style="fill:#840000; fill-opacity:1.0; 
stroke:#840000; stroke-width:0; stroke-opacity:1; 
stroke-linecap:round; stroke-linejoin:round;fill-rule:evenodd;"
d="M 5630.31,4393.9
5630.31,4137.99
6244.49,4137.99
6244.49,4393.9
Z" /> 
<path style="fill:#840000; fill-opacity:1.0; 
stroke:#840000; stroke-width:0; stroke-opacity:1; 
stroke-linecap:round; stroke-linejoin:round;fill-rule:evenodd;"
d="M 5630.31,5141.93
5630.31,4886.02
6244.49,4886.02
6244.49,5141.93
Z" /> 
<path style="fill:#840000; fill-opacity:1.0; 
stroke:#840000; stroke-width:0; stroke-opacity:1; 
stroke-linecap:round; stroke-linejoin:round;fill-rule:evenodd;"
d="M 4567.32,5141.93
4567.32,4886.02
5181.5,4886.02
5181.5,5141.93
Z" /> 
<path style="fill:#840000; fill-opacity:1.0; 
stroke:#840000; stroke-width:0; stroke-opacity:1; 
stroke-linecap:round; stroke-linejoin:round;fill-rule:evenodd;"
d="M 4567.32,4767.91
4567.32,4512.01
5181.5,4512.01
5181.5,4767.91
Z" /> 
<path style="fill:#840000; fill-opacity:1.0; 
stroke:#840000; stroke-width:0; stroke-opacity:1; 
stroke-linecap:round; stroke-linejoin:round;fill-rule:evenodd;"
d="M 4567.32,4393.9
4567.32,4137.99
5181.5,4137.99
5181.5,4393.9
Z" /> 
</g>
<g >
</g>
<g style="fill:#840000; fill-opacity:1.0; 
stroke:#840000; stroke-width:0; stroke-opacity:1; 
stroke-linecap:round; stroke-linejoin:round;">
<path style="fill:#840000; fill-opacity:1.0; 
stroke:#840000; stroke-width:0; stroke-opacity:1; 
stroke-linecap:round; stroke-linejoin:round;fill-rule:evenodd;"
d="M 5630.31,1193.9
5630.31,937.992
6244.49,937.992
6244.49,1193.9
Z" /> 
<path style="fill:#840000; fill-opacity:1.0; 
stroke:#840000; stroke-width:0; stroke-opacity:1; 
stroke-linecap:round; stroke-linejoin:round;fill-rule:evenodd;"
d="M 5630.31,1941.93
5630.31,1686.02
6244.49,1686.02
6244.49,1941.93
Z" /> 
<path style="fill:#840000; fill-opacity:1.0; 
stroke:#840000; stroke-width:0; stroke-opacity:1; 
stroke-linecap:round; stroke-linejoin:round;fill-rule:evenodd;"
d="M 4567.32,1941.93
4567.32,1686.02
5181.5,1686.02
5181.5,1941.93
Z" /> 
<path style="fill:#840000; fill-opacity:1.0; 
stroke:#840000; stroke-width:0; stroke-opacity:1; 
stroke-linecap:round; stroke-linejoin:round;fill-rule:evenodd;"
d="M 4567.32,1567.91
4567.32,1312.01
5181.5,1312.01
5181.5,1567.91
Z" /> 
<path style="fill:#840000; fill-opacity:1.0; 
stroke:#840000; stroke-width:0; stroke-opacity:1; 
stroke-linecap:round; stroke-linejoin:round;fill-rule:evenodd;"
d="M 4567.32,1193.9
4567.32,937.992
5181.5,937.992
5181.5,1193.9
Z" /> 
</g>
<g >
</g>
<g style="fill:#840000; fill-opacity:1.0; 
stroke:#840000; stroke-width:0; stroke-opacity:1; 
stroke-linecap:round; stroke-linejoin:round;">
<path style="fill:#840000; fill-opacity:1.0; 
stroke:#840000; stroke-width:0; stroke-opacity:1; 
stroke-linecap:round; stroke-linejoin:round;fill-rule:evenodd;"
d="M 6790.16,3482.87
6160.24,3482.87
6160.24,3364.76
6790.16,3364.76
Z" /> 
<path style="fill:#840000; fill-opacity:1.0; 
stroke:#840000; stroke-width:0; stroke-opacity:1; 
stroke-linecap:round; stroke-linejoin:round;fill-rule:evenodd;"
d="M 6790.16,3226.97
6160.24,3226.97
6160.24,3108.86
6790.16,3108.86
Z" /> 
<path style="fill:#840000; fill-opacity:1.0; 
stroke:#840000; stroke-width:0; stroke-opacity:1; 
stroke-linecap:round; stroke-linejoin:round;fill-rule:evenodd;"
d="M 6790.16,2971.06
6160.24,2971.06
6160.24,2852.95
6790.16,2852.95
Z" /> 
<path style="fill:#840000; fill-opacity:1.0; 
stroke:#840000; stroke-width:0; stroke-opacity:1; 
stroke-linecap:round; stroke-linejoin:round;fill-rule:evenodd;"
d="M 6790.16,2715.16
6160.24,2715.16
6160.24,2597.05
6790.16,2597.05
Z" /> 
<path style="fill:#840000; fill-opacity:1.0; 
stroke:#840000; stroke-width:0; stroke-opacity:1; 
stroke-linecap:round; stroke-linejoin:round;fill-rule:evenodd;"
d="M 5451.57,2715.16
4821.65,2715.16
4821.65,2597.05
5451.57,2597.05
Z" /> 
<path style="fill:#840000; fill-opacity:1.0; 
stroke:#840000; stroke-width:0; stroke-opacity:1; 
stroke-linecap:round; stroke-linejoin:round;fill-rule:evenodd;"
d="M 5451.57,2971.06
4821.65,2971.06
4821.65,2852.95
5451.57,2852.95
Z" /> 
<path style="fill:#840000; fill-opacity:1.0; 
stroke:#840000; stroke-width:0; stroke-opacity:1; 
stroke-linecap:round; stroke-linejoin:round;fill-rule:evenodd;"
d="M 5451.57,3226.97
4821.65,3226.97
4821.65,3108.86
5451.57,3108.86
Z" /> 
<path style="fill:#840000; fill-opacity:1.0; 
stroke:#840000; stroke-width:0; stroke-opacity:1; 
stroke-linecap:round; stroke-linejoin:round;fill-rule:evenodd;"
d="M 5451.57,3482.87
4821.65,3482.87
4821.65,3364.76
5451.57,3364.76
Z" /> 
</g>
<g >
</g>
<g style="fill:#840000; fill-opacity:1.0; 
stroke:#840000; stroke-width:0; stroke-opacity:1; 
stroke-linecap:round; stroke-linejoin:round;">
<path style="fill:#840000; fill-opacity:1.0; 
stroke:#840000; stroke-width:0; stroke-opacity:1; 
stroke-linecap:round; stroke-linejoin:round;fill-rule:evenodd;"
d="M 3654.24,3253.4
3663.32,3254.75
3672.22,3256.98
3680.86,3260.07
3689.16,3263.99
3697.03,3268.71
3704.4,3274.18
3711.2,3280.34
3717.36,3287.14
3722.82,3294.51
3727.54,3302.38
3731.46,3310.67
3734.56,3319.31
3736.79,3328.21
3738.13,3337.29
3738.58,3346.46
3738.58,3533.46
3738.13,3542.63
3736.79,3551.71
3734.56,3560.61
3731.46,3569.25
3727.54,3577.54
3722.82,3585.41
3717.36,3592.78
3711.2,3599.58
3704.4,3605.74
3697.03,3611.21
3689.16,3615.93
3680.86,3619.85
3672.22,3622.94
3663.32,3625.17
3654.24,3626.52
3645.08,3626.97
3448.23,3626.97
3439.06,3626.52
3429.99,3625.17
3421.09,3622.94
3412.45,3619.85
3404.15,3615.93
3396.28,3611.21
3388.91,3605.74
3382.11,3599.58
3375.95,3592.78
3370.48,3585.41
3365.77,3577.54
3361.84,3569.25
3358.75,3560.61
3356.52,3551.71
3355.17,3542.63
3354.72,3533.46
3354.72,3346.46
3355.17,3337.29
3356.52,3328.21
3358.75,3319.31
3361.84,3310.67
3365.77,3302.38
3370.48,3294.51
3375.95,3287.14
3382.11,3280.34
3388.91,3274.18
3396.28,3268.71
3404.15,3263.99
3412.45,3260.07
3421.09,3256.98
3429.99,3254.75
3439.06,3253.4
3448.23,3252.95
3645.08,3252.95
Z" /> 
<path style="fill:#840000; fill-opacity:1.0; 
stroke:#840000; stroke-width:0; stroke-opacity:1; 
stroke-linecap:round; stroke-linejoin:round;fill-rule:evenodd;"
d="M 4372.75,3253.4
4381.82,3254.75
4390.73,3256.98
4399.36,3260.07
4407.66,3263.99
4415.53,3268.71
4422.9,3274.18
4429.7,3280.34
4435.86,3287.14
4441.33,3294.51
4446.05,3302.38
4449.97,3310.67
4453.06,3319.31
4455.29,3328.21
4456.64,3337.29
4457.09,3346.46
4457.09,3533.46
4456.64,3542.63
4455.29,3551.71
4453.06,3560.61
4449.97,3569.25
4446.05,3577.54
4441.33,3585.41
4435.86,3592.78
4429.7,3599.58
4422.9,3605.74
4415.53,3611.21
4407.66,3615.93
4399.36,3619.85
4390.73,3622.94
4381.82,3625.17
4372.75,3626.52
4363.58,3626.97
4166.73,3626.97
4157.57,3626.52
4148.49,3625.17
4139.59,3622.94
4130.95,3619.85
4122.65,3615.93
4114.78,3611.21
4107.41,3605.74
4100.61,3599.58
4094.45,3592.78
4088.99,3585.41
4084.27,3577.54
4080.35,3569.25
4077.25,3560.61
4075.02,3551.71
4073.68,3542.63
4073.23,3533.46
4073.23,3346.46
4073.68,3337.29
4075.02,3328.21
4077.25,3319.31
4080.35,3310.67
4084.27,3302.38
4088.99,3294.51
4094.45,3287.14
4100.61,3280.34
4107.41,3274.18
4114.78,3268.71
4122.65,3263.99
4130.95,3260.07
4139.59,3256.98
4148.49,3254.75
4157.57,3253.4
4166.73,3252.95
4363.58,3252.95
Z" /> 
</g>
<g >
</g>
<g style="fill:#840000; fill-opacity:1.0; 
stroke:#840000; stroke-width:0; stroke-opacity:1; 
stroke-linecap:round; stroke-linejoin:round;">
<path style="fill:#840000; fill-opacity:1.0; 
stroke:#840000; stroke-width:0; stroke-opacity:1; 
stroke-linecap:round; stroke-linejoin:round;fill-rule:evenodd;"
d="M 3654.24,2653.4
3663.32,2654.75
3672.22,2656.98
3680.86,2660.07
3689.16,2663.99
3697.03,2668.71
3704.4,2674.18
3711.2,2680.34
3717.36,2687.14
3722.82,2694.51
3727.54,2702.38
3731.46,2710.67
3734.56,2719.31
3736.79,2728.21
3738.13,2737.29
3738.58,2746.46
3738.58,2933.46
3738.13,2942.63
3736.79,2951.71
3734.56,2960.61
3731.46,2969.25
3727.54,2977.54
3722.82,2985.41
3717.36,2992.78
3711.2,2999.58
3704.4,3005.74
3697.03,3011.21
3689.16,3015.93
3680.86,3019.85
3672.22,3022.94
3663.32,3025.17
3654.24,3026.52
3645.08,3026.97
3448.23,3026.97
3439.06,3026.52
3429.99,3025.17
3421.09,3022.94
3412.45,3019.85
3404.15,3015.93
3396.28,3011.21
3388.91,3005.74
3382.11,2999.58
3375.95,2992.78
3370.48,2985.41
3365.77,2977.54
3361.84,2969.25
3358.75,2960.61
3356.52,2951.71
3355.17,2942.63
3354.72,2933.46
3354.72,2746.46
3355.17,2737.29
3356.52,2728.21
3358.75,2719.31
3361.84,2710.67
3365.77,2702.38
3370.48,2694.51
3375.95,2687.14
3382.11,2680.34
3388.91,2674.18
3396.28,2668.71
3404.15,2663.99
3412.45,2660.07
3421.09,2656.98
3429.99,2654.75
3439.06,2653.4
3448.23,2652.95
3645.08,2652.95
Z" /> 
<path style="fill:#840000; fill-opacity:1.0; 
stroke:#840000; stroke-width:0; stroke-opacity:1; 
stroke-linecap:round; stroke-linejoin:round;fill-rule:evenodd;"
d="M 4372.75,2653.4
4381.82,2654.75
4390.73,2656.98
4399.36,2660.07
4407.66,2663.99
4415.53,2668.71
4422.9,2674.18
4429.7,2680.34
4435.86,2687.14
4441.33,2694.51
4446.05,2702.38
4449.97,2710.67
4453.06,2719.31
4455.29,2728.21
4456.64,2737.29
4457.09,2746.46
4457.09,2933.46
4456.64,2942.63
4455.29,2951.71
4453.06,2960.61
4449.97,2969.25
4446.05,2977.54
4441.33,2985.41
4435.86,2992.78
4429.7,2999.58
4422.9,3005.74
4415.53,3011.21
4407.66,3015.93
4399.36,3019.85
4390.73,3022.94
4381.82,3025.17
4372.75,3026.52
4363.58,3026.97
4166.73,3026.97
4157.57,3026.52
4148.49,3025.17
4139.59,3022.94
4130.95,3019.85
4122.65,3015.93
4114.78,3011.21
4107.41,3005.74
4100.61,2999.58
4094.45,2992.78
4088.99,2985.41
4084.27,2977.54
4080.35,2969.25
4077.25,2960.61
4075.02,2951.71
4073.68,2942.63
4073.23,2933.46
4073.23,2746.46
4073.68,2737.29
4075.02,2728.21
4077.25,2719.31
4080.35,2710.67
4084.27,2702.38
4088.99,2694.51
4094.45,2687.14
4100.61,2680.34
4107.41,2674.18
4114.78,2668.71
4122.65,2663.99
4130.95,2660.07
4139.59,2656.98
4148.49,2654.75
4157.57,2653.4
4166.73,2652.95
4363.58,2652.95
Z" /> 
</g>
<g >
</g>
<g style="fill:#840000; fill-opacity:1.0; 
stroke:#840000; stroke-width:0; stroke-opacity:1; 
stroke-linecap:round; stroke-linejoin:round;">
<path style="fill:#840000; fill-opacity:1.0; 
stroke:#840000; stroke-width:0; stroke-opacity:1; 
stroke-linecap:round; stroke-linejoin:round;fill-rule:evenodd;"
d="M 3648.57,3869.23
3657.65,3870.58
3666.55,3872.81
3675.19,3875.9
3683.49,3879.82
3691.36,3884.54
3698.73,3890
3705.53,3896.17
3711.69,3902.97
3717.16,3910.34
3721.87,3918.21
3725.8,3926.5
3728.89,3935.14
3731.12,3944.04
3732.46,3953.12
3732.91,3962.28
3732.91,4159.13
3732.46,4168.3
3731.12,4177.38
3728.89,4186.28
3725.8,4194.92
3721.87,4203.21
3717.16,4211.08
3711.69,4218.45
3705.53,4225.25
3698.73,4231.41
3691.36,4236.88
3683.49,4241.6
3675.19,4245.52
3666.55,4248.61
3657.65,4250.84
3648.57,4252.19
3639.41,4252.64
3452.4,4252.64
3443.24,4252.19
3434.16,4250.84
3425.26,4248.61
3416.62,4245.52
3408.32,4241.6
3400.45,4236.88
3393.08,4231.41
3386.28,4225.25
3380.12,4218.45
3374.66,4211.08
3369.94,4203.21
3366.02,4194.92
3362.92,4186.28
3360.69,4177.38
3359.35,4168.3
3358.9,4159.13
3358.9,3962.28
3359.35,3953.12
3360.69,3944.04
3362.92,3935.14
3366.02,3926.5
3369.94,3918.21
3374.66,3910.34
3380.12,3902.97
3386.28,3896.17
3393.08,3890
3400.45,3884.54
3408.32,3879.82
3416.62,3875.9
3425.26,3872.81
3434.16,3870.58
3443.24,3869.23
3452.4,3868.78
3639.41,3868.78
Z" /> 
<path style="fill:#840000; fill-opacity:1.0; 
stroke:#840000; stroke-width:0; stroke-opacity:1; 
stroke-linecap:round; stroke-linejoin:round;fill-rule:evenodd;"
d="M 3648.57,4587.73
3657.65,4589.08
3666.55,4591.31
3675.19,4594.4
3683.49,4598.32
3691.36,4603.04
3698.73,4608.51
3705.53,4614.67
3711.69,4621.47
3717.16,4628.84
3721.87,4636.71
3725.8,4645.01
3728.89,4653.64
3731.12,4662.55
3732.46,4671.62
3732.91,4680.79
3732.91,4877.64
3732.46,4886.8
3731.12,4895.88
3728.89,4904.78
3725.8,4913.42
3721.87,4921.72
3717.16,4929.59
3711.69,4936.96
3705.53,4943.76
3698.73,4949.92
3691.36,4955.38
3683.49,4960.1
3675.19,4964.02
3666.55,4967.12
3657.65,4969.35
3648.57,4970.69
3639.41,4971.14
3452.4,4971.14
3443.24,4970.69
3434.16,4969.35
3425.26,4967.12
3416.62,4964.02
3408.32,4960.1
3400.45,4955.38
3393.08,4949.92
3386.28,4943.76
3380.12,4936.96
3374.66,4929.59
3369.94,4921.72
3366.02,4913.42
3362.92,4904.78
3360.69,4895.88
3359.35,4886.8
3358.9,4877.64
3358.9,4680.79
3359.35,4671.62
3360.69,4662.55
3362.92,4653.64
3366.02,4645.01
3369.94,4636.71
3374.66,4628.84
3380.12,4621.47
3386.28,4614.67
3393.08,4608.51
3400.45,4603.04
3408.32,4598.32
3416.62,4594.4
3425.26,4591.31
3434.16,4589.08
3443.24,4587.73
3452.4,4587.28
3639.41,4587.28
Z" /> 
</g>
<g >
</g>
<g style="fill:#840000; fill-opacity:1.0; 
stroke:#840000; stroke-width:0; stroke-opacity:1; 
stroke-linecap:round; stroke-linejoin:round;">
<path style="fill:#840000; fill-opacity:1.0; 
stroke:#840000; stroke-width:0; stroke-opacity:1; 
stroke-linecap:round; stroke-linejoin:round;fill-rule:evenodd;"
d="M 7108.57,4607.73
7117.65,4609.08
7126.55,4611.31
7135.19,4614.4
7143.49,4618.32
7151.36,4623.04
7158.73,4628.51
7165.53,4634.67
7171.69,4641.47
7177.16,4648.84
7181.87,4656.71
7185.8,4665.01
7188.89,4673.64
7191.12,4682.55
7192.46,4691.62
7192.91,4700.79
7192.91,4897.64
7192.46,4906.8
7191.12,4915.88
7188.89,4924.78
7185.8,4933.42
7181.87,4941.72
7177.16,4949.59
7171.69,4956.96
7165.53,4963.76
7158.73,4969.92
7151.36,4975.38
7143.49,4980.1
7135.19,4984.02
7126.55,4987.12
7117.65,4989.35
7108.57,4990.69
7099.41,4991.14
6912.4,4991.14
6903.24,4990.69
6894.16,4989.35
6885.26,4987.12
6876.62,4984.02
6868.32,4980.1
6860.45,4975.38
6853.08,4969.92
6846.28,4963.76
6840.12,4956.96
6834.66,4949.59
6829.94,4941.72
6826.02,4933.42
6822.92,4924.78
6820.69,4915.88
6819.35,4906.8
6818.9,4897.64
6818.9,4700.79
6819.35,4691.62
6820.69,4682.55
6822.92,4673.64
6826.02,4665.01
6829.94,4656.71
6834.66,4648.84
6840.12,4641.47
6846.28,4634.67
6853.08,4628.51
6860.45,4623.04
6868.32,4618.32
6876.62,4614.4
6885.26,4611.31
6894.16,4609.08
6903.24,4607.73
6912.4,4607.28
7099.41,4607.28
Z" /> 
<path style="fill:#840000; fill-opacity:1.0; 
stroke:#840000; stroke-width:0; stroke-opacity:1; 
stroke-linecap:round; stroke-linejoin:round;fill-rule:evenodd;"
d="M 7108.57,3889.23
7117.65,3890.58
7126.55,3892.81
7135.19,3895.9
7143.49,3899.82
7151.36,3904.54
7158.73,3910
7165.53,3916.17
7171.69,3922.97
7177.16,3930.34
7181.87,3938.21
7185.8,3946.5
7188.89,3955.14
7191.12,3964.04
7192.46,3973.12
7192.91,3982.28
7192.91,4179.13
7192.46,4188.3
7191.12,4197.38
7188.89,4206.28
7185.8,4214.92
7181.87,4223.21
7177.16,4231.08
7171.69,4238.45
7165.53,4245.25
7158.73,4251.41
7151.36,4256.88
7143.49,4261.6
7135.19,4265.52
7126.55,4268.61
7117.65,4270.84
7108.57,4272.19
7099.41,4272.64
6912.4,4272.64
6903.24,4272.19
6894.16,4270.84
6885.26,4268.61
6876.62,4265.52
6868.32,4261.6
6860.45,4256.88
6853.08,4251.41
6846.28,4245.25
6840.12,4238.45
6834.66,4231.08
6829.94,4223.21
6826.02,4214.92
6822.92,4206.28
6820.69,4197.38
6819.35,4188.3
6818.9,4179.13
6818.9,3982.28
6819.35,3973.12
6820.69,3964.04
6822.92,3955.14
6826.02,3946.5
6829.94,3938.21
6834.66,3930.34
6840.12,3922.97
6846.28,3916.17
6853.08,3910
6860.45,3904.54
6868.32,3899.82
6876.62,3895.9
6885.26,3892.81
6894.16,3890.58
6903.24,3889.23
6912.4,3888.78
7099.41,3888.78
Z" /> 
</g>
<g >
</g>
<g style="fill:#840000; fill-opacity:1.0; 
stroke:#840000; stroke-width:0; stroke-opacity:1; 
stroke-linecap:round; stroke-linejoin:round;">
<path style="fill:#840000; fill-opacity:1.0; 
stroke:#840000; stroke-width:0; stroke-opacity:1; 
stroke-linecap:round; stroke-linejoin:round;fill-rule:evenodd;"
d="M 7708.57,3889.23
7717.65,3890.58
7726.55,3892.81
7735.19,3895.9
7743.49,3899.82
7751.36,3904.54
7758.73,3910
7765.53,3916.17
7771.69,3922.97
7777.16,3930.34
7781.87,3938.21
7785.8,3946.5
7788.89,3955.14
7791.12,3964.04
7792.46,3973.12
7792.91,3982.28
7792.91,4218.5
7792.46,4227.67
7791.12,4236.75
7788.89,4245.65
7785.8,4254.29
7781.87,4262.58
7777.16,4270.45
7771.69,4277.82
7765.53,4284.62
7758.73,4290.78
7751.36,4296.25
7743.49,4300.97
7735.19,4304.89
7726.55,4307.98
7717.65,4310.21
7708.57,4311.56
7699.41,4312.01
7512.4,4312.01
7503.24,4311.56
7494.16,4310.21
7485.26,4307.98
7476.62,4304.89
7468.32,4300.97
7460.45,4296.25
7453.08,4290.78
7446.28,4284.62
7440.12,4277.82
7434.66,4270.45
7429.94,4262.58
7426.02,4254.29
7422.92,4245.65
7420.69,4236.75
7419.35,4227.67
7418.9,4218.5
7418.9,3982.28
7419.35,3973.12
7420.69,3964.04
7422.92,3955.14
7426.02,3946.5
7429.94,3938.21
7434.66,3930.34
7440.12,3922.97
7446.28,3916.17
7453.08,3910
7460.45,3904.54
7468.32,3899.82
7476.62,3895.9
7485.26,3892.81
7494.16,3890.58
7503.24,3889.23
7512.4,3888.78
7699.41,3888.78
Z" /> 
<path style="fill:#840000; fill-opacity:1.0; 
stroke:#840000; stroke-width:0; stroke-opacity:1; 
stroke-linecap:round; stroke-linejoin:round;fill-rule:evenodd;"
d="M 7708.57,4568.36
7717.65,4569.71
7726.55,4571.94
7735.19,4575.03
7743.49,4578.95
7751.36,4583.67
7758.73,4589.14
7765.53,4595.3
7771.69,4602.1
7777.16,4609.47
7781.87,4617.34
7785.8,4625.64
7788.89,4634.27
7791.12,4643.18
7792.46,4652.25
7792.91,4661.42
7792.91,4897.64
7792.46,4906.8
7791.12,4915.88
7788.89,4924.78
7785.8,4933.42
7781.87,4941.72
7777.16,4949.59
7771.69,4956.96
7765.53,4963.76
7758.73,4969.92
7751.36,4975.38
7743.49,4980.1
7735.19,4984.02
7726.55,4987.12
7717.65,4989.35
7708.57,4990.69
7699.41,4991.14
7512.4,4991.14
7503.24,4990.69
7494.16,4989.35
7485.26,4987.12
7476.62,4984.02
7468.32,4980.1
7460.45,4975.38
7453.08,4969.92
7446.28,4963.76
7440.12,4956.96
7434.66,4949.59
7429.94,4941.72
7426.02,4933.42
7422.92,4924.78
7420.69,4915.88
7419.35,4906.8
7418.9,4897.64
7418.9,4661.42
7419.35,4652.25
7420.69,4643.18
7422.92,4634.27
7426.02,4625.64
7429.94,4617.34
7434.66,4609.47
7440.12,4602.1
7446.28,4595.3
7453.08,4589.14
7460.45,4583.67
7468.32,4578.95
7476.62,4575.03
7485.26,4571.94
7494.16,4569.71
7503.24,4568.36
7512.4,4567.91
7699.41,4567.91
Z" /> 
</g>
<g >
</g>
<g style="fill:#840000; fill-opacity:1.0; 
stroke:#840000; stroke-width:0; stroke-opacity:1; 
stroke-linecap:round; stroke-linejoin:round;">
<path style="fill:#840000; fill-opacity:1.0; 
stroke:#840000; stroke-width:0; stroke-opacity:1; 
stroke-linecap:round; stroke-linejoin:round;fill-rule:evenodd;"
d="M 7008.57,989.23
7017.65,990.576
7026.55,992.806
7035.19,995.897
7043.49,999.82
7051.36,1004.54
7058.73,1010
7065.53,1016.17
7071.69,1022.97
7077.16,1030.34
7081.87,1038.21
7085.8,1046.5
7088.89,1055.14
7091.12,1064.04
7092.46,1073.12
7092.91,1082.28
7092.91,1318.5
7092.46,1327.67
7091.12,1336.75
7088.89,1345.65
7085.8,1354.29
7081.87,1362.58
7077.16,1370.45
7071.69,1377.82
7065.53,1384.62
7058.73,1390.78
7051.36,1396.25
7043.49,1400.97
7035.19,1404.89
7026.55,1407.98
7017.65,1410.21
7008.57,1411.56
6999.41,1412.01
6812.4,1412.01
6803.24,1411.56
6794.16,1410.21
6785.26,1407.98
6776.62,1404.89
6768.32,1400.97
6760.45,1396.25
6753.08,1390.78
6746.28,1384.62
6740.12,1377.82
6734.66,1370.45
6729.94,1362.58
6726.02,1354.29
6722.92,1345.65
6720.69,1336.75
6719.35,1327.67
6718.9,1318.5
6718.9,1082.28
6719.35,1073.12
6720.69,1064.04
6722.92,1055.14
6726.02,1046.5
6729.94,1038.21
6734.66,1030.34
6740.12,1022.97
6746.28,1016.17
6753.08,1010
6760.45,1004.54
6768.32,999.82
6776.62,995.897
6785.26,992.806
6794.16,990.576
6803.24,989.23
6812.4,988.78
6999.41,988.78
Z" /> 
<path style="fill:#840000; fill-opacity:1.0; 
stroke:#840000; stroke-width:0; stroke-opacity:1; 
stroke-linecap:round; stroke-linejoin:round;fill-rule:evenodd;"
d="M 7008.57,1668.36
7017.65,1669.71
7026.55,1671.94
7035.19,1675.03
7043.49,1678.95
7051.36,1683.67
7058.73,1689.14
7065.53,1695.3
7071.69,1702.1
7077.16,1709.47
7081.87,1717.34
7085.8,1725.64
7088.89,1734.27
7091.12,1743.18
7092.46,1752.25
7092.91,1761.42
7092.91,1997.64
7092.46,2006.8
7091.12,2015.88
7088.89,2024.78
7085.8,2033.42
7081.87,2041.72
7077.16,2049.59
7071.69,2056.96
7065.53,2063.76
7058.73,2069.92
7051.36,2075.38
7043.49,2080.1
7035.19,2084.02
7026.55,2087.12
7017.65,2089.35
7008.57,2090.69
6999.41,2091.14
6812.4,2091.14
6803.24,2090.69
6794.16,2089.35
6785.26,2087.12
6776.62,2084.02
6768.32,2080.1
6760.45,2075.38
6753.08,2069.92
6746.28,2063.76
6740.12,2056.96
6734.66,2049.59
6729.94,2041.72
6726.02,2033.42
6722.92,2024.78
6720.69,2015.88
6719.35,2006.8
6718.9,1997.64
6718.9,1761.42
6719.35,1752.25
6720.69,1743.18
6722.92,1734.27
6726.02,1725.64
6729.94,1717.34
6734.66,1709.47
6740.12,1702.1
6746.28,1695.3
6753.08,1689.14
6760.45,1683.67
6768.32,1678.95
6776.62,1675.03
6785.26,1671.94
6794.16,1669.71
6803.24,1668.36
6812.4,1667.91
6999.41,1667.91
Z" /> 
</g>
<g >
</g>
<g style="fill:#840000; fill-opacity:1.0; 
stroke:#840000; stroke-width:0; stroke-opacity:1; 
stroke-linecap:round; stroke-linejoin:round;">
<path style="fill:#840000; fill-opacity:1.0; 
stroke:#840000; stroke-width:0; stroke-opacity:1; 
stroke-linecap:round; stroke-linejoin:round;fill-rule:evenodd;"
d="M 4258.57,1993.36
4267.65,1994.71
4276.55,1996.94
4285.19,2000.03
4293.49,2003.95
4301.36,2008.67
4308.73,2014.14
4315.53,2020.3
4321.69,2027.1
4327.16,2034.47
4331.87,2042.34
4335.8,2050.64
4338.89,2059.27
4341.12,2068.18
4342.46,2077.25
4342.91,2086.42
4342.91,2322.64
4342.46,2331.8
4341.12,2340.88
4338.89,2349.78
4335.8,2358.42
4331.87,2366.72
4327.16,2374.59
4321.69,2381.96
4315.53,2388.76
4308.73,2394.92
4301.36,2400.38
4293.49,2405.1
4285.19,2409.02
4276.55,2412.12
4267.65,2414.35
4258.57,2415.69
4249.41,2416.14
4062.4,2416.14
4053.24,2415.69
4044.16,2414.35
4035.26,2412.12
4026.62,2409.02
4018.32,2405.1
4010.45,2400.38
4003.08,2394.92
3996.28,2388.76
3990.12,2381.96
3984.66,2374.59
3979.94,2366.72
3976.02,2358.42
3972.92,2349.78
3970.69,2340.88
3969.35,2331.8
3968.9,2322.64
3968.9,2086.42
3969.35,2077.25
3970.69,2068.18
3972.92,2059.27
3976.02,2050.64
3979.94,2042.34
3984.66,2034.47
3990.12,2027.1
3996.28,2020.3
4003.08,2014.14
4010.45,2008.67
4018.32,2003.95
4026.62,2000.03
4035.26,1996.94
4044.16,1994.71
4053.24,1993.36
4062.4,1992.91
4249.41,1992.91
Z" /> 
<path style="fill:#840000; fill-opacity:1.0; 
stroke:#840000; stroke-width:0; stroke-opacity:1; 
stroke-linecap:round; stroke-linejoin:round;fill-rule:evenodd;"
d="M 4258.57,1314.23
4267.65,1315.58
4276.55,1317.81
4285.19,1320.9
4293.49,1324.82
4301.36,1329.54
4308.73,1335
4315.53,1341.17
4321.69,1347.97
4327.16,1355.34
4331.87,1363.21
4335.8,1371.5
4338.89,1380.14
4341.12,1389.04
4342.46,1398.12
4342.91,1407.28
4342.91,1643.5
4342.46,1652.67
4341.12,1661.75
4338.89,1670.65
4335.8,1679.29
4331.87,1687.58
4327.16,1695.45
4321.69,1702.82
4315.53,1709.62
4308.73,1715.78
4301.36,1721.25
4293.49,1725.97
4285.19,1729.89
4276.55,1732.98
4267.65,1735.21
4258.57,1736.56
4249.41,1737.01
4062.4,1737.01
4053.24,1736.56
4044.16,1735.21
4035.26,1732.98
4026.62,1729.89
4018.32,1725.97
4010.45,1721.25
4003.08,1715.78
3996.28,1709.62
3990.12,1702.82
3984.66,1695.45
3979.94,1687.58
3976.02,1679.29
3972.92,1670.65
3970.69,1661.75
3969.35,1652.67
3968.9,1643.5
3968.9,1407.28
3969.35,1398.12
3970.69,1389.04
3972.92,1380.14
3976.02,1371.5
3979.94,1363.21
3984.66,1355.34
3990.12,1347.97
3996.28,1341.17
4003.08,1335
4010.45,1329.54
4018.32,1324.82
4026.62,1320.9
4035.26,1317.81
4044.16,1315.58
4053.24,1314.23
4062.4,1313.78
4249.41,1313.78
Z" /> 
</g>
<g >
</g>
<g style="fill:#840000; fill-opacity:1.0; 
stroke:#840000; stroke-width:0; stroke-opacity:1; 
stroke-linecap:round; stroke-linejoin:round;">
<path style="fill:#840000; fill-opacity:1.0; 
stroke:#840000; stroke-width:0; stroke-opacity:1; 
stroke-linecap:round; stroke-linejoin:round;fill-rule:evenodd;"
d="M 3658.57,2003.21
3667.65,2004.55
3676.55,2006.78
3685.19,2009.87
3693.49,2013.8
3701.36,2018.51
3708.73,2023.98
3715.53,2030.14
3721.69,2036.94
3727.16,2044.31
3731.87,2052.18
3735.8,2060.48
3738.89,2069.12
3741.12,2078.02
3742.46,2087.09
3742.91,2096.26
3742.91,2322.64
3742.46,2331.8
3741.12,2340.88
3738.89,2349.78
3735.8,2358.42
3731.87,2366.72
3727.16,2374.59
3721.69,2381.96
3715.53,2388.76
3708.73,2394.92
3701.36,2400.38
3693.49,2405.1
3685.19,2409.02
3676.55,2412.12
3667.65,2414.35
3658.57,2415.69
3649.41,2416.14
3462.4,2416.14
3453.24,2415.69
3444.16,2414.35
3435.26,2412.12
3426.62,2409.02
3418.32,2405.1
3410.45,2400.38
3403.08,2394.92
3396.28,2388.76
3390.12,2381.96
3384.66,2374.59
3379.94,2366.72
3376.02,2358.42
3372.92,2349.78
3370.69,2340.88
3369.35,2331.8
3368.9,2322.64
3368.9,2096.26
3369.35,2087.09
3370.69,2078.02
3372.92,2069.12
3376.02,2060.48
3379.94,2052.18
3384.66,2044.31
3390.12,2036.94
3396.28,2030.14
3403.08,2023.98
3410.45,2018.51
3418.32,2013.8
3426.62,2009.87
3435.26,2006.78
3444.16,2004.55
3453.24,2003.21
3462.4,2002.76
3649.41,2002.76
Z" /> 
<path style="fill:#840000; fill-opacity:1.0; 
stroke:#840000; stroke-width:0; stroke-opacity:1; 
stroke-linecap:round; stroke-linejoin:round;fill-rule:evenodd;"
d="M 3658.57,1314.23
3667.65,1315.58
3676.55,1317.81
3685.19,1320.9
3693.49,1324.82
3701.36,1329.54
3708.73,1335
3715.53,1341.17
3721.69,1347.97
3727.16,1355.34
3731.87,1363.21
3735.8,1371.5
3738.89,1380.14
3741.12,1389.04
3742.46,1398.12
3742.91,1407.28
3742.91,1633.66
3742.46,1642.83
3741.12,1651.9
3738.89,1660.8
3735.8,1669.44
3731.87,1677.74
3727.16,1685.61
3721.69,1692.98
3715.53,1699.78
3708.73,1705.94
3701.36,1711.41
3693.49,1716.12
3685.19,1720.05
3676.55,1723.14
3667.65,1725.37
3658.57,1726.71
3649.41,1727.17
3462.4,1727.17
3453.24,1726.71
3444.16,1725.37
3435.26,1723.14
3426.62,1720.05
3418.32,1716.12
3410.45,1711.41
3403.08,1705.94
3396.28,1699.78
3390.12,1692.98
3384.66,1685.61
3379.94,1677.74
3376.02,1669.44
3372.92,1660.8
3370.69,1651.9
3369.35,1642.83
3368.9,1633.66
3368.9,1407.28
3369.35,1398.12
3370.69,1389.04
3372.92,1380.14
3376.02,1371.5
3379.94,1363.21
3384.66,1355.34
3390.12,1347.97
3396.28,1341.17
3403.08,1335
3410.45,1329.54
3418.32,1324.82
3426.62,1320.9
3435.26,1317.81
3444.16,1315.58
3453.24,1314.23
3462.4,1313.78
3649.41,1313.78
Z" /> 
</g>
<g >
</g>
<g >
</g>
<g style="fill:#840000; fill-opacity:1.0; 
stroke:#840000; stroke-width:0; stroke-opacity:1; 
stroke-linecap:round; stroke-linejoin:round;">
</g>
<g style="fill:#840000; fill-opacity:1.0; 
stroke:#840000; stroke-width:98.4252; stroke-opacity:1; 
stroke-linecap:round; stroke-linejoin:round;">
</g>
<g style="fill:#840000; fill-opacity:0.0; 
stroke:#840000; stroke-width:98.4252; stroke-opacity:1; 
stroke-linecap:round; stroke-linejoin:round;">
<path d="M1518 1898
L1518 4417
" />
<path d="M2581 3551
L2581 4024
" />
<path d="M6475 2656
L6629 2656
" />
<path d="M6475 2656
L6889 2656
" />
<path d="M6905 2639
L6905 1879
" />
<path d="M6889 2656
L6905 2639
" />
<path d="M9205 5039
L8405 5039
" />
<path d="M9205 1739
L9205 5039
" />
<path d="M9043 1577
L9205 1739
" />
<path d="M7847 1577
L9043 1577
" />
<path d="M6905 1879
L7545 1879
" />
<path d="M7545 1879
L7847 1577
" />
<path d="M7605 4779
L7605 5139
" />
<path d="M8305 5139
L8405 5039
" />
<path d="M7605 5139
L8305 5139
" />
<path d="M2581 4715
L2581 4024
" />
<path d="M4874 5013
L4874 5271
" />
<path d="M4874 5271
L4805 5339
" />
<path d="M4805 5339
L3205 5339
" />
<path d="M3205 5339
L2581 4715
" />
</g>
<g style="fill:#840000; fill-opacity:0.0; 
stroke:#840000; stroke-width:196.85; stroke-opacity:1; 
stroke-linecap:round; stroke-linejoin:round;">
<path d="M4241 1439
L4874 1439
" />
<path d="M4155 1525
L4241 1439
" />
</g>
<g style="fill:#840000; fill-opacity:0.0; 
stroke:#840000; stroke-width:98.4252; stroke-opacity:1; 
stroke-linecap:round; stroke-linejoin:round;">
<path d="M1518 1077
L1518 1898
" />
<path d="M4155 1525
L4155 814
" />
<path d="M3395 764
L1830 764
" />
<path d="M3420 789
L3395 764
" />
<path d="M4155 814
L4130 789
" />
<path d="M1830 764
L1518 1077
" />
<path d="M4130 789
L3420 789
" />
</g>
<g style="fill:#840000; fill-opacity:0.0; 
stroke:#840000; stroke-width:196.85; stroke-opacity:1; 
stroke-linecap:round; stroke-linejoin:round;">
<path d="M2424 1898
L2581 2055
" />
<path d="M1518 1898
L2424 1898
" />
<path d="M2424 4181
L2581 4024
" />
<path d="M1518 4181
L2424 4181
" />
<path d="M7586 4799
L7605 4779
" />
<path d="M7005 4799
L7586 4799
" />
<path d="M8145 4779
L8405 5039
" />
<path d="M7605 4779
L8145 4779
" />
</g>
<g style="fill:#840000; fill-opacity:0.0; 
stroke:#840000; stroke-width:98.4252; stroke-opacity:1; 
stroke-linecap:round; stroke-linejoin:round;">
<path d="M3405 3480
L3446 3439
" />
<path d="M3446 3383
L3446 3439
" />
<path d="M3146 3039
L3546 3439
" />
<path d="M2660 3039
L3146 3039
" />
<path d="M3546 3439
L3546 3621
" />
</g>
<g style="fill:#840000; fill-opacity:0.0; 
stroke:#840000; stroke-width:196.85; stroke-opacity:1; 
stroke-linecap:round; stroke-linejoin:round;">
<path d="M3546 4059
L3545 4060
" />
<path d="M3546 3439
L3546 4059
" />
</g>
<g style="fill:#840000; fill-opacity:0.0; 
stroke:#840000; stroke-width:98.4252; stroke-opacity:1; 
stroke-linecap:round; stroke-linejoin:round;">
<path d="M3390 2784
L3446 2839
" />
<path d="M3490 2784
L3546 2839
" />
<path d="M2660 2784
L3490 2784
" />
</g>
<g style="fill:#840000; fill-opacity:0.0; 
stroke:#840000; stroke-width:196.85; stroke-opacity:1; 
stroke-linecap:round; stroke-linejoin:round;">
<path d="M7025 4100
L7005 4080
" />
<path d="M7605 4100
L7025 4100
" />
</g>
<g style="fill:#840000; fill-opacity:0.0; 
stroke:#840000; stroke-width:98.4252; stroke-opacity:1; 
stroke-linecap:round; stroke-linejoin:round;">
<path d="M6475 3423
L6889 3423
" />
<path d="M7005 3539
L7005 4080
" />
<path d="M6889 3423
L7005 3539
" />
</g>
<g style="fill:#840000; fill-opacity:0.0; 
stroke:#840000; stroke-width:196.85; stroke-opacity:1; 
stroke-linecap:round; stroke-linejoin:round;">
<path d="M8345 4100
L8405 4039
" />
<path d="M7605 4100
L8345 4100
" />
<path d="M6531 4165
L6920 4165
" />
<path d="M6531 4813
L6531 4165
" />
<path d="M6920 4165
L7005 4080
" />
<path d="M5937 5013
L6331 5013
" />
<path d="M6331 5013
L6531 4813
" />
</g>
<g style="fill:#840000; fill-opacity:0.0; 
stroke:#840000; stroke-width:98.4252; stroke-opacity:1; 
stroke-linecap:round; stroke-linejoin:round;">
<path d="M5589 3423
L5705 3539
" />
<path d="M5136 3423
L5589 3423
" />
<path d="M5705 3539
L5805 3539
" />
<path d="M4874 4265
L4874 3871
" />
<path d="M4874 3871
L5005 3739
" />
<path d="M5005 3739
L5205 3739
" />
<path d="M5136 3670
L5205 3739
" />
<path d="M5136 3423
L5136 3670
" />
<path d="M5937 3671
L5805 3539
" />
<path d="M5937 4265
L5937 3671
" />
</g>
<g style="fill:#840000; fill-opacity:0.0; 
stroke:#840000; stroke-width:196.85; stroke-opacity:1; 
stroke-linecap:round; stroke-linejoin:round;">
<path d="M5937 1065
L6147 1065
" />
<path d="M6771 1065
L6905 1200
" />
<path d="M6421 1081
L6405 1065
" />
<path d="M6421 2016
L6421 1081
" />
<path d="M5937 1065
L6405 1065
" />
<path d="M6405 1065
L6771 1065
" />
<path d="M5705 3539
L5705 2732
" />
<path d="M5705 2732
L6421 2016
" />
<path d="M4839 1100
L4874 1065
" />
</g>
<g style="fill:#840000; fill-opacity:0.0; 
stroke:#840000; stroke-width:98.4252; stroke-opacity:1; 
stroke-linecap:round; stroke-linejoin:round;">
<path d="M5279 1813
L4874 1813
" />
<path d="M5309 1095
L5309 1784
" />
<path d="M5279 1065
L5309 1095
" />
<path d="M5309 1784
L5279 1813
" />
<path d="M4874 1065
L5279 1065
" />
</g>
<g style="fill:#840000; fill-opacity:0.0; 
stroke:#840000; stroke-width:196.85; stroke-opacity:1; 
stroke-linecap:round; stroke-linejoin:round;">
<path d="M4150 2209
L4155 2204
" />
<path d="M3555 2209
L4150 2209
" />
<path d="M4483 2204
L4874 1813
" />
<path d="M4155 2204
L4483 2204
" />
</g>
<g style="fill:#840000; fill-opacity:0.0; 
stroke:#840000; stroke-width:98.4252; stroke-opacity:1; 
stroke-linecap:round; stroke-linejoin:round;">
<path d="M2660 2528
L2926 2528
" />
</g>
<g style="fill:#840000; fill-opacity:0.0; 
stroke:#840000; stroke-width:196.85; stroke-opacity:1; 
stroke-linecap:round; stroke-linejoin:round;">
<path d="M3359 1716
L3555 1520
" />
<path d="M2660 2528
L2987 2528
" />
<path d="M2987 2528
L3135 2379
" />
<path d="M3135 1940
L3359 1716
" />
<path d="M3135 2379
L3135 1940
" />
</g>
<g style="fill:#840000; fill-opacity:0.0; 
stroke:#840000; stroke-width:98.4252; stroke-opacity:1; 
stroke-linecap:round; stroke-linejoin:round;">
<path d="M8277 3167
L8405 3039
" />
<path d="M6475 3167
L8277 3167
" />
<path d="M6475 2912
L7533 2912
" />
<path d="M7533 2912
L8405 2039
" />
<path d="M5136 2656
L5502 2290
" />
</g>
<g style="fill:#840000; fill-opacity:0.0; 
stroke:#840000; stroke-width:196.85; stroke-opacity:1; 
stroke-linecap:round; stroke-linejoin:round;">
<path d="M8405 1039
L8112 746
" />
<path d="M8112 746
L6999 746
" />
<path d="M6999 746
L5480 746
" />
</g>
<g style="fill:#840000; fill-opacity:0.0; 
stroke:#840000; stroke-width:98.4252; stroke-opacity:1; 
stroke-linecap:round; stroke-linejoin:round;">
<path d="M5502 2290
L5502 843
" />
<path d="M5136 2656
L5133 2656
" />
<path d="M5133 2656
L5075 2599
" />
<path d="M5075 2599
L5469 2205
" />
<path d="M4537 3167
L5136 3167
" />
<path d="M4265 3439
L4537 3167
" />
<path d="M4165 2839
L4237 2912
" />
<path d="M4337 2912
L5136 2912
" />
<path d="M4265 2839
L4337 2912
" />
</g>
<g style="fill:#840000; fill-opacity:0.0; 
stroke:#840000; stroke-width:196.85; stroke-opacity:1; 
stroke-linecap:round; stroke-linejoin:round;">
<path d="M3685 4639
L4874 4639
" />
<path d="M3545 4779
L3685 4639
" />
</g>
<g >
</g>
<g style="fill:#840000; fill-opacity:0.0; 
stroke:#840000; stroke-width:196.85; stroke-opacity:1; 
stroke-linecap:round; stroke-linejoin:round;">
<g >
</g>
<g style="fill:#840000; fill-opacity:1.0; 
stroke:#840000; stroke-width:100; stroke-opacity:1; 
stroke-linecap:round; stroke-linejoin:round;">
<path style="fill:#840000; fill-opacity:1.0; 
stroke:#840000; stroke-width:100; stroke-opacity:1; 
stroke-linecap:round; stroke-linejoin:round;fill-rule:evenodd;"
d="M 9064.45,744.287
9120.77,761.289
9172.71,788.906
9218.29,826.086
9255.79,871.411
9283.77,923.159
9301.16,979.353
9308.27,1046.94
9308.27,5030.29
9301.58,5098.51
9284.58,5154.82
9256.96,5206.76
9219.78,5252.35
9174.45,5289.84
9122.71,5317.82
9066.51,5335.22
8998.92,5342.32
8909.38,5342.32
8908.66,5091.04
8866.63,5049.02
8414.96,5049.02
8414.96,5056.89
8396.85,5056.89
8396.85,5049.02
8388.98,5049.02
8388.98,5030.91
8396.85,5030.91
8396.85,5023.03
8414.96,5023.03
8414.96,5030.91
8866.63,5030.91
8908.66,4988.88
8909.47,4705.31
8906.23,4672.36
8896.62,4640.67
8881.01,4611.47
8860,4585.87
8834.4,4564.86
8805.2,4549.25
8773.51,4539.64
8740.55,4536.39
8592.85,4536.81
8595.68,4533.36
8611.22,4504.29
8613.02,4498.35
8644.05,4485.5
8726.39,4430.48
8796.42,4360.45
8851.44,4278.1
8889.34,4186.61
8908.66,4089.48
8908.66,3990.44
8889.34,3893.31
8851.44,3801.82
8796.42,3719.47
8726.39,3649.44
8644.05,3594.42
8623.62,3585.96
8620.79,3557.16
8611.22,3525.63
8599.61,3503.91
8644.05,3485.5
8726.39,3430.48
8796.42,3360.45
8851.44,3278.1
8889.34,3186.61
8908.66,3089.48
8908.66,2990.44
8889.34,2893.31
8851.44,2801.82
8796.42,2719.47
8726.39,2649.44
8644.05,2594.42
8552.55,2556.53
8469.28,2539.96
8552.55,2523.4
8644.05,2485.5
8726.39,2430.48
8796.42,2360.45
8851.44,2278.1
8889.34,2186.61
8908.66,2089.48
8908.66,1990.44
8889.34,1893.31
8851.44,1801.82
8796.42,1719.47
8726.39,1649.44
8644.05,1594.42
8552.55,1556.53
8469.28,1539.96
8552.55,1523.4
8644.05,1485.5
8726.39,1430.48
8796.42,1360.45
8851.44,1278.1
8889.34,1186.61
8908.66,1089.48
8908.66,990.443
8889.34,893.312
8851.44,801.817
8808.53,737.598
8996.24,737.598
Z" /> 
<path style="fill:#840000; fill-opacity:1.0; 
stroke:#840000; stroke-width:100; stroke-opacity:1; 
stroke-linecap:round; stroke-linejoin:round;fill-rule:evenodd;"
d="M 5212.88,746.657
5215.44,772.614
5214.45,772.314
5181.5,769.069
4567.32,769.069
4534.37,772.314
4502.68,781.927
4473.47,797.537
4447.88,818.545
4426.87,844.143
4411.26,873.348
4401.64,905.037
4398.4,937.992
4398.4,1151.38
4386.67,1151.38
4375.87,1148.1
4342.91,1144.86
4206.99,1145.67
4201.28,1151.38
4110.53,1151.38
4104.82,1145.67
3968.9,1144.86
3935.94,1148.1
3925.14,1151.38
3705.48,1151.38
3700.61,1149.9
3649.41,1144.86
3462.4,1144.86
3411.2,1149.9
3406.33,1151.38
2905.91,1151.38
2896.15,1152.34
2886.77,1155.18
2878.13,1159.8
2870.55,1166.02
2864.33,1173.6
2859.71,1182.24
2856.87,1191.62
2855.91,1201.38
2855.91,1722.04
2842.19,1681.76
2764.23,1638.12
2679.26,1610.54
2590.53,1600.06
2501.47,1607.09
2415.49,1631.36
2335.9,1671.94
2321.2,1681.76
2295.63,1756.84
2581.69,2042.9
2587.26,2037.34
2600.07,2050.14
2594.5,2055.71
2600.07,2061.28
2587.26,2074.08
2581.69,2068.51
2576.13,2074.08
2563.32,2061.28
2568.89,2055.71
2282.82,1769.64
2207.74,1795.21
2164.11,1873.17
2136.52,1958.14
2127.18,2037.2
2061.21,2037.2
2060.83,1949.31
2018.8,1907.28
1975.63,1907.28
1989.83,1889.17
2018.8,1889.17
2060.83,1847.15
2061.64,1662.01
2060.83,1653.75
2060.83,1652.95
2060.75,1652.95
2058.39,1629.05
2049.23,1598.86
2054.33,1589.83
2033.51,1515.64
1997.72,1444.9
1948.8,1382.51
1888.66,1330.85
1819.59,1291.92
1744.26,1267.21
1665.55,1257.68
1527.76,1257.68
1527.76,2637.2
1535.63,2637.2
1535.63,2655.31
1527.76,2655.31
1527.76,3424.61
2018.8,3424.61
2026.67,3416.73
2153.05,3416.73
2155.2,3423.82
2150.27,3440.08
2147.02,3473.03
2147.83,3500.69
2189.86,3542.72
2307.69,3542.72
2315.94,3543.53
2677.36,3543.53
2677.36,3560.83
2669.49,3560.83
2669.49,3568.7
2651.38,3568.7
2651.38,3560.83
2189.86,3560.83
2147.83,3602.85
2147.02,3630.51
2150.27,3663.47
2159.88,3695.16
2175.49,3724.36
2196.5,3749.96
2211.64,3762.39
2207.74,3763.72
2164.11,3841.67
2136.52,3926.65
2126.04,4015.37
2133.07,4104.44
2157.34,4190.42
2197.92,4270.01
2207.74,4284.71
2282.82,4310.28
2568.89,4024.21
2563.32,4018.64
2576.13,4005.84
2581.69,4011.41
2587.26,4005.84
2600.07,4018.64
2594.5,4024.21
2600.07,4029.78
2587.26,4042.59
2581.69,4037.02
2295.63,4323.08
2321.2,4398.16
2399.16,4441.8
2484.13,4469.38
2572.85,4479.86
2661.92,4472.83
2747.9,4448.56
2827.49,4407.98
2842.19,4398.16
2855.91,4357.89
2855.91,5039.96
2856.87,5049.71
2859.71,5059.09
2864.33,5067.74
2870.55,5075.32
2878.13,5081.53
2886.77,5086.15
2896.15,5089
2905.91,5089.96
3299.44,5089.96
3306.6,5095.84
3351.97,5120.09
3401.2,5135.02
3452.4,5140.07
3639.41,5140.07
3690.61,5135.02
3739.84,5120.09
3785.21,5095.84
3792.37,5089.96
4398.95,5089.96
4398.4,5141.93
4401.64,5174.88
4411.26,5206.57
4426.87,5235.78
4447.88,5261.38
4473.47,5282.38
4502.68,5297.99
4534.37,5307.61
4567.32,5310.85
4823.33,5310.04
4865.35,5268.01
4865.35,5023.03
4883.46,5023.03
4883.46,5268.01
4925.49,5310.04
5181.5,5310.85
5214.45,5307.61
5246.14,5297.99
5275.34,5282.38
5300.94,5261.38
5321.95,5235.78
5337.56,5206.57
5347.17,5174.88
5350.42,5141.93
5349.61,5065.06
5307.58,5023.03
4883.46,5023.03
4865.35,5023.03
4857.48,5023.03
4857.48,5004.92
4865.35,5004.92
4865.35,4997.05
4883.46,4997.05
4883.46,5004.92
5307.58,5004.92
5320.96,4991.54
5461.39,4991.54
5461.39,5141.93
5464.64,5174.88
5474.25,5206.57
5489.86,5235.78
5510.87,5261.38
5536.47,5282.38
5565.67,5297.99
5597.36,5307.61
5630.31,5310.85
6244.49,5310.85
6277.44,5307.61
6309.13,5297.99
6338.34,5282.38
6340.02,5281
6344.98,5280.51
6344.98,5280.51
6384.14,5276.66
6434.38,5261.41
6480.69,5236.66
6515.53,5208.07
6705.91,5208.07
6738.7,5204.84
6770.24,5195.27
6799.3,5179.74
6823.31,5160.04
6954.82,5159.25
6996.85,5117.22
6996.85,4808.27
6988.98,4808.27
6988.98,4790.16
6996.85,4790.16
6996.85,4782.28
7014.96,4782.28
7014.96,4790.16
7022.83,4790.16
7022.83,4808.27
7014.96,4808.27
7014.96,5117.22
7056.99,5159.25
7192.91,5160.07
7225.87,5156.82
7257.56,5147.21
7286.76,5131.6
7305.91,5115.89
7325.05,5131.6
7354.25,5147.21
7385.94,5156.82
7418.9,5160.07
7554.82,5159.25
7596.85,5117.22
7596.85,4788.58
7588.98,4788.58
7588.98,4770.47
7596.85,4770.47
7596.85,4762.6
7614.96,4762.6
7614.96,4770.47
7622.83,4770.47
7622.83,4788.58
7614.96,4788.58
7614.96,5117.22
7656.99,5159.25
7792.91,5160.07
7825.87,5156.82
7857.56,5147.21
7886.76,5131.6
7903.07,5118.21
7902.43,5342.32
1455.57,5342.32
1387.36,5335.63
1331.04,5318.63
1279.1,5291.01
1233.52,5253.84
1196.02,5208.51
1168.04,5156.76
1150.65,5100.57
1143.54,5032.98
1143.54,4744.61
1148.74,4749.07
1217.81,4788
1293.14,4812.71
1371.85,4822.24
1509.65,4822.24
1509.65,3442.72
1527.76,3442.72
1527.76,4822.24
1665.55,4822.24
1744.26,4812.71
1819.59,4788
1888.66,4749.07
1948.8,4697.42
1997.72,4635.02
2033.51,4564.28
2054.33,4490.09
2049.23,4481.07
2058.39,4450.87
2060.75,4426.97
2060.83,4426.97
2060.83,4426.17
2061.64,4417.91
2060.83,4232.78
2018.8,4190.75
1989.83,4190.75
1975.63,4172.64
2018.8,4172.64
2060.83,4130.61
2061.64,3945.47
2058.39,3912.52
2048.78,3880.83
2033.17,3851.62
2021.34,3837.2
2033.17,3822.79
2048.78,3793.58
2058.39,3761.89
2061.64,3728.94
2060.83,3484.74
2018.8,3442.72
1527.76,3442.72
1509.65,3442.72
1501.77,3442.72
1501.77,3424.61
1509.65,3424.61
1509.65,2655.31
1501.77,2655.31
1501.77,2637.2
1509.65,2637.2
1509.65,1257.68
1371.85,1257.68
1293.14,1267.21
1217.81,1291.92
1148.74,1330.85
1143.54,1335.32
1143.54,949.627
1148.33,900.839
1159.69,863.206
1178.14,828.5
1202.99,798.037
1233.28,772.98
1267.85,754.284
1305.4,742.66
1353.56,737.598
5213.78,737.598
Z" /> 
<path style="fill:#840000; fill-opacity:1.0; 
stroke:#840000; stroke-width:100; stroke-opacity:1; 
stroke-linecap:round; stroke-linejoin:round;fill-rule:evenodd;"
d="M 7903.15,1089.48
7922.47,1186.61
7960.37,1278.1
8015.39,1360.45
8085.42,1430.48
8167.76,1485.5
8259.26,1523.4
8342.53,1539.96
8259.26,1556.53
8167.76,1594.42
8085.42,1649.44
8015.39,1719.47
7960.37,1801.82
7922.47,1893.31
7903.15,1990.44
7903.15,2089.48
7903.25,2089.96
7705.91,2089.96
7699.94,2090.32
7690.37,2092.44
7681.4,2096.38
7673.37,2102
6981.9,2694.69
6945.77,2694.69
6916.24,2665.16
6484.25,2665.16
6484.25,2673.03
6466.14,2673.03
6466.14,2665.16
6458.27,2665.16
6458.27,2647.05
6466.14,2647.05
6466.14,2470.96
6484.25,2470.96
6484.25,2647.05
6916.24,2647.05
6958.27,2605.02
6959.08,2597.05
6955.84,2564.09
6946.22,2532.4
6930.61,2503.2
6909.6,2477.6
6884.01,2456.59
6854.8,2440.98
6823.11,2431.37
6790.16,2428.12
6526.28,2428.94
6484.25,2470.96
6466.14,2470.96
6424.11,2428.94
6386.5,2428.82
6581.82,2233.51
6586.77,2236.15
6596.15,2239
6605.91,2239.96
6640.7,2239.96
6654.25,2247.21
6685.94,2256.82
6718.9,2260.07
6854.82,2259.25
6874.11,2239.96
6937.7,2239.96
6956.99,2259.25
7092.91,2260.07
7125.87,2256.82
7157.56,2247.21
7171.11,2239.96
7205.91,2239.96
7215.66,2239
7225.04,2236.15
7233.68,2231.53
7241.26,2225.32
7247.48,2217.74
7252.1,2209.09
7254.94,2199.71
7255.91,2189.96
7255.91,2132.95
7258.59,2124.1
7261.84,2091.14
7261.02,1930.61
7255.91,1925.49
7255.91,1833.56
7261.02,1828.44
7261.84,1667.91
7258.59,1634.96
7255.91,1626.1
7255.91,1372.63
7256.79,1369.7
7261.84,1318.5
7261.84,1082.28
7256.79,1031.09
7255.91,1028.16
7255.91,1013.19
7903.15,1013.19
Z" /> 
</g>
</g>
<g style="fill:#840000; fill-opacity:1.0; 
stroke:#840000; stroke-width:100; stroke-opacity:1; 
stroke-linecap:round; stroke-linejoin:round;">
<g >
<path style="fill:#840000; fill-opacity:1.0; 
stroke:#840000; stroke-width:100; stroke-opacity:1; 
stroke-linecap:round; stroke-linejoin:round;fill-rule:evenodd;"
d="M 6484.25,3414.76
6492.13,3414.76
6492.13,3432.87
6484.25,3432.87
6484.25,3608.96
6526.28,3650.98
6790.16,3651.8
6823.11,3648.55
6854.8,3638.94
6884.01,3623.33
6909.6,3602.32
6930.61,3576.72
6946.22,3547.52
6955.84,3515.83
6959.08,3482.87
6958.27,3474.9
6916.24,3432.87
6928.11,3432.87
7120.55,3625.32
7128.13,3631.53
7136.77,3636.15
7146.15,3639
7155.91,3639.96
8110.85,3639.96
8084.87,3706.12
8405.91,4027.15
8405.91,4052.77
8400.34,4058.33
8387.53,4045.53
8393.1,4039.96
8072.06,3718.92
7991.94,3750.39
7949.5,3825.87
7948.98,3824.14
7933.37,3794.93
7912.36,3769.33
7886.76,3748.32
7857.56,3732.71
7825.87,3723.1
7792.91,3719.86
7656.99,3720.67
7614.96,3762.7
7614.96,4091.34
7622.83,4091.34
7622.83,4109.45
7614.96,4109.45
7614.96,4117.32
7596.85,4117.32
7596.85,4109.45
7588.98,4109.45
7588.98,4091.34
7596.85,4091.34
7596.85,3762.7
7554.82,3720.67
7418.9,3719.86
7385.94,3723.1
7354.25,3732.71
7325.05,3748.32
7305.91,3764.04
7286.76,3748.32
7257.56,3732.71
7225.87,3723.1
7192.91,3719.86
7056.99,3720.67
7014.96,3762.7
7014.96,4071.65
7022.83,4071.65
7022.83,4089.76
7014.96,4089.76
7014.96,4097.64
6996.85,4097.64
6996.85,4089.76
6692.81,4089.76
6650.79,4131.79
6649.97,4272.64
6653.22,4305.59
6662.83,4337.28
6678.44,4366.49
6698.32,4390.71
6696.15,4390.92
6686.77,4393.77
6678.13,4398.39
6670.55,4404.61
6664.33,4412.18
6659.71,4420.83
6656.87,4430.21
6655.91,4439.96
6655.91,4646.66
6655.02,4649.59
6649.97,4700.79
6649.97,4897.64
6655.02,4948.84
6655.91,4951.77
6655.91,4989.96
6385.53,4989.96
6412.6,4962.89
6413.41,4886.02
6410.17,4853.07
6400.55,4821.38
6384.94,4792.17
6363.94,4766.58
6338.34,4745.57
6309.13,4729.96
6277.44,4720.35
6255.91,4718.22
6255.91,4561.7
6277.44,4559.58
6309.13,4549.96
6338.34,4534.35
6363.94,4513.34
6384.94,4487.75
6400.55,4458.54
6410.17,4426.85
6413.41,4393.9
6413.41,4137.99
6410.17,4105.04
6400.55,4073.35
6384.94,4044.14
6363.94,4018.55
6338.34,3997.54
6309.13,3981.93
6277.44,3972.31
6255.91,3970.19
6255.91,3888.78
6649.97,3888.78
6650.79,4029.63
6692.81,4071.65
6996.85,4071.65
6996.85,3762.7
6954.82,3720.67
6818.9,3719.86
6785.94,3723.1
6754.25,3732.71
6725.05,3748.32
6699.45,3769.33
6678.44,3794.93
6662.83,3824.14
6653.22,3855.82
6649.97,3888.78
6255.91,3888.78
6255.91,3651.5
6424.11,3650.98
6466.14,3608.96
6466.14,3432.87
6458.27,3432.87
6458.27,3414.76
6466.14,3414.76
6466.14,3406.89
6484.25,3406.89
Z" /> 
</g>
</g>
<g style="fill:#840000; fill-opacity:1.0; 
stroke:#840000; stroke-width:100; stroke-opacity:1; 
stroke-linecap:round; stroke-linejoin:round;">
<g >
<path style="fill:#840000; fill-opacity:1.0; 
stroke:#840000; stroke-width:100; stroke-opacity:1; 
stroke-linecap:round; stroke-linejoin:round;fill-rule:evenodd;"
d="M 6550.79,1149.31
6555.91,1154.43
6555.91,1246.36
6550.79,1251.48
6549.97,1412.01
6553.22,1444.96
6555.91,1453.82
6555.91,1707.29
6555.02,1710.22
6549.97,1761.42
6549.97,1989.96
6505.91,1989.96
6496.15,1990.92
6486.77,1993.77
6478.13,1998.39
6470.55,2004.61
5970.55,2504.61
5964.33,2512.18
5959.71,2520.83
5956.87,2530.21
5955.91,2539.96
5955.91,4002.46
5946.46,4011.91
5946.46,4256.89
5954.33,4256.89
5954.33,4275
5946.46,4275
5946.46,4282.87
5928.35,4282.87
5928.35,4275
5504.23,4275
5478.25,4300.98
5333.56,4300.98
5307.58,4275
4883.46,4275
4883.46,4282.87
4865.35,4282.87
4865.35,4275
4857.48,4275
4857.48,4256.89
4865.35,4256.89
4865.35,4011.91
4883.46,4011.91
4883.46,4256.89
5307.58,4256.89
5349.61,4214.86
5350.42,4137.99
5461.39,4137.99
5462.2,4214.86
5504.23,4256.89
5928.35,4256.89
5928.35,4011.91
5886.32,3969.88
5630.31,3969.07
5597.36,3972.31
5565.67,3981.93
5536.47,3997.54
5510.87,4018.55
5489.86,4044.14
5474.25,4073.35
5464.64,4105.04
5461.39,4137.99
5350.42,4137.99
5347.17,4105.04
5337.56,4073.35
5321.95,4044.14
5300.94,4018.55
5275.34,3997.54
5246.14,3981.93
5214.45,3972.31
5181.5,3969.07
4925.49,3969.88
4883.46,4011.91
4865.35,4011.91
4823.33,3969.88
4755.91,3969.67
4755.91,3638.35
4757.01,3638.94
4788.7,3648.55
4821.65,3651.8
5085.53,3650.98
5127.56,3608.96
5127.56,3432.87
5145.67,3432.87
5145.67,3608.96
5187.7,3650.98
5451.57,3651.8
5484.53,3648.55
5516.22,3638.94
5545.42,3623.33
5571.02,3602.32
5592.03,3576.72
5607.64,3547.52
5617.25,3515.83
5620.5,3482.87
5619.69,3474.9
5577.66,3432.87
5145.67,3432.87
5127.56,3432.87
5119.69,3432.87
5119.69,3414.76
5127.56,3414.76
5127.56,3406.89
5145.67,3406.89
5145.67,3414.76
5577.66,3414.76
5602.46,3389.96
5605.91,3389.96
5615.66,3389
5625.04,3386.15
5633.68,3381.53
5641.26,3375.32
5647.48,3367.74
5652.1,3359.09
5654.94,3349.71
5655.91,3339.96
5655.91,2445.48
5656.78,2444.77
5683.93,2411.68
5704.11,2373.92
5716.54,2332.96
5719.68,2301.03
5719.68,2301.03
5720.74,2290.35
5719.68,2279.68
5719.68,2110.85
6244.49,2110.85
6277.44,2107.61
6309.13,2097.99
6338.34,2082.38
6363.94,2061.38
6384.94,2035.78
6400.55,2006.57
6410.17,1974.88
6413.41,1941.93
6413.41,1686.02
6410.17,1653.07
6400.55,1621.38
6384.94,1592.17
6363.94,1566.58
6338.34,1545.57
6309.13,1529.96
6277.44,1520.35
6244.49,1517.1
6228.35,1517.1
6228.35,1362.77
6244.49,1362.82
6277.44,1359.58
6309.13,1349.96
6338.34,1334.35
6363.94,1313.34
6384.94,1287.75
6400.55,1258.54
6410.17,1226.85
6413.41,1193.9
6412.6,1117.03
6370.57,1075
5946.46,1075
5946.46,1082.87
5928.35,1082.87
5928.35,1075
5920.47,1075
5920.47,1056.89
5928.35,1056.89
5928.35,1049.02
5946.46,1049.02
5946.46,1056.89
6370.57,1056.89
6412.6,1014.86
6412.62,1013.19
6550.1,1013.19
Z" /> 
</g>
</g>
</g>
<g style="fill:#FFFFFF; fill-opacity:1.0; 
stroke:#FFFFFF; stroke-width:100; stroke-opacity:1; 
stroke-linecap:round; stroke-linejoin:round;">
</g>
<g style="fill:#FFFFFF; fill-opacity:1.0; 
stroke:#FFFFFF; stroke-width:0; stroke-opacity:1; 
stroke-linecap:round; stroke-linejoin:round;">
<circle cx="2581.69" cy="2055.71" r="167.323" /> 
</g>
<g style="fill:#FFFFFF; fill-opacity:1.0; 
stroke:#FFFFFF; stroke-width:39.3701; stroke-opacity:1; 
stroke-linecap:round; stroke-linejoin:round;">
</g>
<g style="fill:#FFFFFF; fill-opacity:1.0; 
stroke:#FFFFFF; stroke-width:0; stroke-opacity:1; 
stroke-linecap:round; stroke-linejoin:round;">
<circle cx="2581.69" cy="4024.21" r="167.323" /> 
</g>
<g style="fill:#FFFFFF; fill-opacity:1.0; 
stroke:#FFFFFF; stroke-width:39.3701; stroke-opacity:1; 
stroke-linecap:round; stroke-linejoin:round;">
</g>
<g style="fill:#FFFFFF; fill-opacity:1.0; 
stroke:#FFFFFF; stroke-width:334.646; stroke-opacity:1; 
stroke-linecap:round; stroke-linejoin:round;">
</g>
<g style="fill:#FFFFFF; fill-opacity:0.0; 
stroke:#FFFFFF; stroke-width:334.646; stroke-opacity:1; 
stroke-linecap:round; stroke-linejoin:round;">
<path d="M1430 1662
L1607 1662
" />
<path d="M1607 4417
L1430 4417
" />
</g>
<g style="fill:#FFFFFF; fill-opacity:1.0; 
stroke:#FFFFFF; stroke-width:0; stroke-opacity:1; 
stroke-linecap:round; stroke-linejoin:round;">
<circle cx="8405.91" cy="5039.96" r="196.85" /> 
</g>
<g style="fill:#FFFFFF; fill-opacity:1.0; 
stroke:#FFFFFF; stroke-width:39.3701; stroke-opacity:1; 
stroke-linecap:round; stroke-linejoin:round;">
</g>
<g style="fill:#FFFFFF; fill-opacity:1.0; 
stroke:#FFFFFF; stroke-width:0; stroke-opacity:1; 
stroke-linecap:round; stroke-linejoin:round;">
<circle cx="8405.91" cy="4039.96" r="196.85" /> 
</g>
<g style="fill:#FFFFFF; fill-opacity:1.0; 
stroke:#FFFFFF; stroke-width:39.3701; stroke-opacity:1; 
stroke-linecap:round; stroke-linejoin:round;">
</g>
<g style="fill:#FFFFFF; fill-opacity:1.0; 
stroke:#FFFFFF; stroke-width:0; stroke-opacity:1; 
stroke-linecap:round; stroke-linejoin:round;">
<circle cx="8405.91" cy="3039.96" r="196.85" /> 
</g>
<g style="fill:#FFFFFF; fill-opacity:1.0; 
stroke:#FFFFFF; stroke-width:39.3701; stroke-opacity:1; 
stroke-linecap:round; stroke-linejoin:round;">
</g>
<g style="fill:#FFFFFF; fill-opacity:1.0; 
stroke:#FFFFFF; stroke-width:0; stroke-opacity:1; 
stroke-linecap:round; stroke-linejoin:round;">
<circle cx="8405.91" cy="2039.96" r="196.85" /> 
</g>
<g style="fill:#FFFFFF; fill-opacity:1.0; 
stroke:#FFFFFF; stroke-width:39.3701; stroke-opacity:1; 
stroke-linecap:round; stroke-linejoin:round;">
</g>
<g style="fill:#FFFFFF; fill-opacity:1.0; 
stroke:#FFFFFF; stroke-width:0; stroke-opacity:1; 
stroke-linecap:round; stroke-linejoin:round;">
<circle cx="8405.91" cy="1039.96" r="196.85" /> 
</g>
<g style="fill:#FFFFFF; fill-opacity:1.0; 
stroke:#FFFFFF; stroke-width:39.3701; stroke-opacity:1; 
stroke-linecap:round; stroke-linejoin:round;">
</g>
<g style="fill:#000000; fill-opacity:1.0; 
stroke:#000000; stroke-width:39.3701; stroke-opacity:1; 
stroke-linecap:round; stroke-linejoin:round;">
</g>
<g style="fill:#C2C200; fill-opacity:1.0; 
stroke:#C2C200; stroke-width:39.3701; stroke-opacity:1; 
stroke-linecap:round; stroke-linejoin:round;">
</g>
<g style="fill:#C2C200; fill-opacity:0.0; 
stroke:#C2C200; stroke-width:59.0551; stroke-opacity:1; 
stroke-linecap:round; stroke-linejoin:round;">
<path d="M945.906 5039.96 A500 500 0.0 0 0 1445.91 5539.96" />
<path d="M1345.91 539.961 A400 400 0.0 0 0 945.906 939.961" />
<path d="M945 939
L945 5039
" />
<path d="M9005 5539
L1445 5539
" />
<path d="M9005 539
L1345 539
" />
<path d="M9505 1039
L9505 5039
" />
<path d="M9505.91 1039.96 A500 500 0.0 0 0 9005.91 539.961" />
<path d="M9005.91 5539.96 A500 500 0.0 0 0 9505.91 5039.96" />
<g >
</g>
<g >
</g>
<g >
</g>
<g >
</g>
<g >
</g>
<g >
</g>
<g >
</g>
<g >
</g>
<g >
</g>
<g >
</g>
<g >
</g>
<g >
</g>
<g >
</g>
<g >
</g>
<g >
</g>
<g >
</g>
<g >
</g>
<g >
</g>
<g >
</g>
<g >
</g>
<g >
</g>
</g> 
</svg>
