<?xml version="1.0" encoding="UTF-8" standalone="no"?>
<!DOCTYPE svg PUBLIC "-//W3C//DTD SVG 1.1//EN"
 "http://www.w3.org/Graphics/SVG/1.1/DTD/svg11.dtd">
<!-- Generated by graphviz version 2.38.0 (20140413.2041)
 -->
<!-- Title: onehotIdx Pages: 1 -->
<svg width="1120pt" height="842pt"
 viewBox="0.00 0.00 1119.67 842.00" xmlns="http://www.w3.org/2000/svg" xmlns:xlink="http://www.w3.org/1999/xlink">
<g id="graph0" class="graph" transform="scale(1 1) rotate(0) translate(4 838)">
<title>onehotIdx</title>
<polygon fill="white" stroke="none" points="-4,4 -4,-838 1115.67,-838 1115.67,4 -4,4"/>
<text text-anchor="middle" x="555.837" y="-7.8" font-family="Times,serif" font-size="14.00">onehotIdx</text>
<!-- n7 -->
<g id="node1" class="node"><title>n7</title>
<polygon fill="none" stroke="black" points="90.0706,-384.044 90.0706,-398.956 63.6826,-409.5 26.3644,-409.5 -0.0235329,-398.956 -0.0235329,-384.044 26.3644,-373.5 63.6826,-373.5 90.0706,-384.044"/>
<text text-anchor="middle" x="45.0235" y="-387.8" font-family="Times,serif" font-size="14.00">i_onehot</text>
</g>
<!-- x0 -->
<g id="node9" class="node"><title>x0</title>
<path fill="none" stroke="black" d="M162.047,-577.5C162.047,-577.5 201.047,-577.5 201.047,-577.5 207.047,-577.5 213.047,-583.5 213.047,-589.5 213.047,-589.5 213.047,-601.5 213.047,-601.5 213.047,-607.5 207.047,-613.5 201.047,-613.5 201.047,-613.5 162.047,-613.5 162.047,-613.5 156.047,-613.5 150.047,-607.5 150.047,-601.5 150.047,-601.5 150.047,-589.5 150.047,-589.5 150.047,-583.5 156.047,-577.5 162.047,-577.5"/>
<text text-anchor="middle" x="181.547" y="-591.8" font-family="Times,serif" font-size="14.00">4:4 &#45; 0:0</text>
</g>
<!-- n7&#45;&gt;x0 -->
<g id="edge30" class="edge"><title>n7:e&#45;&gt;x0:s0:w</title>
<path fill="none" stroke="#e7298a" stroke-width="3" d="M90.047,-391.5C126.931,-391.5 91.4895,-523.541 108.047,-556.5 117.785,-575.884 122.922,-590.536 139.963,-594.458"/>
<polygon fill="#e7298a" stroke="#e7298a" stroke-width="3" points="139.74,-597.954 150.047,-595.5 140.46,-590.991 139.74,-597.954"/>
<text text-anchor="middle" x="120.047" y="-595.3" font-family="Times,serif" font-size="14.00" fill="#e7298a">&lt;7&gt;</text>
</g>
<!-- x1 -->
<g id="node10" class="node"><title>x1</title>
<path fill="none" stroke="black" d="M162.047,-522.5C162.047,-522.5 201.047,-522.5 201.047,-522.5 207.047,-522.5 213.047,-528.5 213.047,-534.5 213.047,-534.5 213.047,-546.5 213.047,-546.5 213.047,-552.5 207.047,-558.5 201.047,-558.5 201.047,-558.5 162.047,-558.5 162.047,-558.5 156.047,-558.5 150.047,-552.5 150.047,-546.5 150.047,-546.5 150.047,-534.5 150.047,-534.5 150.047,-528.5 156.047,-522.5 162.047,-522.5"/>
<text text-anchor="middle" x="181.547" y="-536.8" font-family="Times,serif" font-size="14.00">5:5 &#45; 0:0</text>
</g>
<!-- n7&#45;&gt;x1 -->
<g id="edge41" class="edge"><title>n7:e&#45;&gt;x1:s0:w</title>
<path fill="none" stroke="#e7298a" stroke-width="3" d="M90.047,-391.5C117.232,-391.5 93.4865,-489.543 108.047,-512.5 117.998,-528.189 124.886,-537.095 139.7,-539.693"/>
<polygon fill="#e7298a" stroke="#e7298a" stroke-width="3" points="139.805,-543.212 150.047,-540.5 140.349,-536.233 139.805,-543.212"/>
<text text-anchor="middle" x="120.047" y="-541.3" font-family="Times,serif" font-size="14.00" fill="#e7298a">&lt;7&gt;</text>
</g>
<!-- x2 -->
<g id="node12" class="node"><title>x2</title>
<path fill="none" stroke="black" d="M243.047,-481.5C243.047,-481.5 282.047,-481.5 282.047,-481.5 288.047,-481.5 294.047,-487.5 294.047,-493.5 294.047,-493.5 294.047,-505.5 294.047,-505.5 294.047,-511.5 288.047,-517.5 282.047,-517.5 282.047,-517.5 243.047,-517.5 243.047,-517.5 237.047,-517.5 231.047,-511.5 231.047,-505.5 231.047,-505.5 231.047,-493.5 231.047,-493.5 231.047,-487.5 237.047,-481.5 243.047,-481.5"/>
<text text-anchor="middle" x="262.547" y="-495.8" font-family="Times,serif" font-size="14.00">6:6 &#45; 0:0</text>
</g>
<!-- n7&#45;&gt;x2 -->
<g id="edge42" class="edge"><title>n7:e&#45;&gt;x2:s0:w</title>
<path fill="none" stroke="#e7298a" stroke-width="3" d="M90.047,-391.5C118.74,-391.5 88.5361,-432.461 108.047,-453.5 145.331,-493.704 169.607,-498.967 220.802,-499.457"/>
<polygon fill="#e7298a" stroke="#e7298a" stroke-width="3" points="221.032,-502.958 231.047,-499.5 221.062,-495.958 221.032,-502.958"/>
<text text-anchor="middle" x="120.047" y="-480.3" font-family="Times,serif" font-size="14.00" fill="#e7298a">&lt;7&gt;</text>
</g>
<!-- x4 -->
<g id="node15" class="node"><title>x4</title>
<path fill="none" stroke="black" d="M162.047,-797.5C162.047,-797.5 201.047,-797.5 201.047,-797.5 207.047,-797.5 213.047,-803.5 213.047,-809.5 213.047,-809.5 213.047,-821.5 213.047,-821.5 213.047,-827.5 207.047,-833.5 201.047,-833.5 201.047,-833.5 162.047,-833.5 162.047,-833.5 156.047,-833.5 150.047,-827.5 150.047,-821.5 150.047,-821.5 150.047,-809.5 150.047,-809.5 150.047,-803.5 156.047,-797.5 162.047,-797.5"/>
<text text-anchor="middle" x="181.547" y="-811.8" font-family="Times,serif" font-size="14.00">1:1 &#45; 0:0</text>
</g>
<!-- n7&#45;&gt;x4 -->
<g id="edge43" class="edge"><title>n7:e&#45;&gt;x4:s0:w</title>
<path fill="none" stroke="#e7298a" stroke-width="3" d="M90.047,-391.5C111.348,-391.5 99.3184,-755.069 108.047,-774.5 117.15,-794.763 122.289,-810.247 139.723,-814.397"/>
<polygon fill="#e7298a" stroke="#e7298a" stroke-width="3" points="139.732,-817.918 150.047,-815.5 140.475,-810.958 139.732,-817.918"/>
<text text-anchor="middle" x="120.047" y="-814.3" font-family="Times,serif" font-size="14.00" fill="#e7298a">&lt;7&gt;</text>
</g>
<!-- x5 -->
<g id="node16" class="node"><title>x5</title>
<path fill="none" stroke="black" d="M162.047,-742.5C162.047,-742.5 201.047,-742.5 201.047,-742.5 207.047,-742.5 213.047,-748.5 213.047,-754.5 213.047,-754.5 213.047,-766.5 213.047,-766.5 213.047,-772.5 207.047,-778.5 201.047,-778.5 201.047,-778.5 162.047,-778.5 162.047,-778.5 156.047,-778.5 150.047,-772.5 150.047,-766.5 150.047,-766.5 150.047,-754.5 150.047,-754.5 150.047,-748.5 156.047,-742.5 162.047,-742.5"/>
<text text-anchor="middle" x="181.547" y="-756.8" font-family="Times,serif" font-size="14.00">0:0 &#45; 0:0</text>
</g>
<!-- n7&#45;&gt;x5 -->
<g id="edge44" class="edge"><title>n7:e&#45;&gt;x5:s0:w</title>
<path fill="none" stroke="#e7298a" stroke-width="3" d="M90.047,-391.5C126.546,-391.5 92.9599,-686.265 108.047,-719.5 117.229,-739.727 122.313,-755.237 139.729,-759.395"/>
<polygon fill="#e7298a" stroke="#e7298a" stroke-width="3" points="139.731,-762.915 150.047,-760.5 140.477,-755.955 139.731,-762.915"/>
<text text-anchor="middle" x="120.047" y="-759.3" font-family="Times,serif" font-size="14.00" fill="#e7298a">&lt;7&gt;</text>
</g>
<!-- x6 -->
<g id="node18" class="node"><title>x6</title>
<path fill="none" stroke="black" d="M162.047,-687.5C162.047,-687.5 201.047,-687.5 201.047,-687.5 207.047,-687.5 213.047,-693.5 213.047,-699.5 213.047,-699.5 213.047,-711.5 213.047,-711.5 213.047,-717.5 207.047,-723.5 201.047,-723.5 201.047,-723.5 162.047,-723.5 162.047,-723.5 156.047,-723.5 150.047,-717.5 150.047,-711.5 150.047,-711.5 150.047,-699.5 150.047,-699.5 150.047,-693.5 156.047,-687.5 162.047,-687.5"/>
<text text-anchor="middle" x="181.547" y="-701.8" font-family="Times,serif" font-size="14.00">2:2 &#45; 0:0</text>
</g>
<!-- n7&#45;&gt;x6 -->
<g id="edge45" class="edge"><title>n7:e&#45;&gt;x6:s0:w</title>
<path fill="none" stroke="#e7298a" stroke-width="3" d="M90.047,-391.5C120.557,-391.5 95.1154,-637.866 108.047,-665.5 117.351,-685.382 122.573,-700.409 139.836,-704.432"/>
<polygon fill="#e7298a" stroke="#e7298a" stroke-width="3" points="139.737,-707.94 150.047,-705.5 140.466,-700.978 139.737,-707.94"/>
<text text-anchor="middle" x="120.047" y="-704.3" font-family="Times,serif" font-size="14.00" fill="#e7298a">&lt;7&gt;</text>
</g>
<!-- x7 -->
<g id="node19" class="node"><title>x7</title>
<path fill="none" stroke="black" d="M162.047,-632.5C162.047,-632.5 201.047,-632.5 201.047,-632.5 207.047,-632.5 213.047,-638.5 213.047,-644.5 213.047,-644.5 213.047,-656.5 213.047,-656.5 213.047,-662.5 207.047,-668.5 201.047,-668.5 201.047,-668.5 162.047,-668.5 162.047,-668.5 156.047,-668.5 150.047,-662.5 150.047,-656.5 150.047,-656.5 150.047,-644.5 150.047,-644.5 150.047,-638.5 156.047,-632.5 162.047,-632.5"/>
<text text-anchor="middle" x="181.547" y="-646.8" font-family="Times,serif" font-size="14.00">3:3 &#45; 0:0</text>
</g>
<!-- n7&#45;&gt;x7 -->
<g id="edge46" class="edge"><title>n7:e&#45;&gt;x7:s0:w</title>
<path fill="none" stroke="#e7298a" stroke-width="3" d="M90.047,-391.5C114.462,-391.5 97.5175,-588.472 108.047,-610.5 117.514,-630.305 122.621,-645.386 139.847,-649.427"/>
<polygon fill="#e7298a" stroke="#e7298a" stroke-width="3" points="139.736,-652.934 150.047,-650.5 140.468,-645.973 139.736,-652.934"/>
<text text-anchor="middle" x="120.047" y="-650.3" font-family="Times,serif" font-size="14.00" fill="#e7298a">&lt;7&gt;</text>
</g>
<!-- x9 -->
<g id="node24" class="node"><title>x9</title>
<path fill="none" stroke="black" d="M162.047,-390.5C162.047,-390.5 201.047,-390.5 201.047,-390.5 207.047,-390.5 213.047,-396.5 213.047,-402.5 213.047,-402.5 213.047,-414.5 213.047,-414.5 213.047,-420.5 207.047,-426.5 201.047,-426.5 201.047,-426.5 162.047,-426.5 162.047,-426.5 156.047,-426.5 150.047,-420.5 150.047,-414.5 150.047,-414.5 150.047,-402.5 150.047,-402.5 150.047,-396.5 156.047,-390.5 162.047,-390.5"/>
<text text-anchor="middle" x="181.547" y="-404.8" font-family="Times,serif" font-size="14.00">3:3 &#45; 0:0</text>
</g>
<!-- n7&#45;&gt;x9 -->
<g id="edge47" class="edge"><title>n7:e&#45;&gt;x9:s0:w</title>
<path fill="none" stroke="#e7298a" stroke-width="3" d="M90.047,-391.5C113.974,-391.5 120.649,-404.169 139.859,-407.634"/>
<polygon fill="#e7298a" stroke="#e7298a" stroke-width="3" points="139.786,-411.14 150.047,-408.5 140.38,-404.165 139.786,-411.14"/>
<text text-anchor="middle" x="120.047" y="-409.3" font-family="Times,serif" font-size="14.00" fill="#e7298a">&lt;7&gt;</text>
</g>
<!-- x10 -->
<g id="node25" class="node"><title>x10</title>
<path fill="none" stroke="black" d="M162.047,-335.5C162.047,-335.5 201.047,-335.5 201.047,-335.5 207.047,-335.5 213.047,-341.5 213.047,-347.5 213.047,-347.5 213.047,-359.5 213.047,-359.5 213.047,-365.5 207.047,-371.5 201.047,-371.5 201.047,-371.5 162.047,-371.5 162.047,-371.5 156.047,-371.5 150.047,-365.5 150.047,-359.5 150.047,-359.5 150.047,-347.5 150.047,-347.5 150.047,-341.5 156.047,-335.5 162.047,-335.5"/>
<text text-anchor="middle" x="181.547" y="-349.8" font-family="Times,serif" font-size="14.00">1:1 &#45; 0:0</text>
</g>
<!-- n7&#45;&gt;x10 -->
<g id="edge31" class="edge"><title>n7:e&#45;&gt;x10:s0:w</title>
<path fill="none" stroke="#e7298a" stroke-width="3" d="M90.047,-391.5C100.461,-391.5 99.4398,-382.362 108.047,-376.5 122.339,-366.767 127.084,-357.666 139.776,-354.596"/>
<polygon fill="#e7298a" stroke="#e7298a" stroke-width="3" points="140.475,-358.041 150.047,-353.5 139.732,-351.081 140.475,-358.041"/>
<text text-anchor="middle" x="120.047" y="-380.3" font-family="Times,serif" font-size="14.00" fill="#e7298a">&lt;7&gt;</text>
</g>
<!-- x11 -->
<g id="node27" class="node"><title>x11</title>
<path fill="none" stroke="black" d="M243.047,-298.5C243.047,-298.5 282.047,-298.5 282.047,-298.5 288.047,-298.5 294.047,-304.5 294.047,-310.5 294.047,-310.5 294.047,-322.5 294.047,-322.5 294.047,-328.5 288.047,-334.5 282.047,-334.5 282.047,-334.5 243.047,-334.5 243.047,-334.5 237.047,-334.5 231.047,-328.5 231.047,-322.5 231.047,-322.5 231.047,-310.5 231.047,-310.5 231.047,-304.5 237.047,-298.5 243.047,-298.5"/>
<text text-anchor="middle" x="262.547" y="-312.8" font-family="Times,serif" font-size="14.00">5:5 &#45; 0:0</text>
</g>
<!-- n7&#45;&gt;x11 -->
<g id="edge32" class="edge"><title>n7:e&#45;&gt;x11:s0:w</title>
<path fill="none" stroke="#e7298a" stroke-width="3" d="M90.047,-391.5C114.504,-391.5 90.6545,-356.694 108.047,-339.5 145.126,-302.845 171.908,-314.703 220.935,-316.329"/>
<polygon fill="#e7298a" stroke="#e7298a" stroke-width="3" points="220.989,-319.83 231.047,-316.5 221.108,-312.831 220.989,-319.83"/>
<text text-anchor="middle" x="120.047" y="-343.3" font-family="Times,serif" font-size="14.00" fill="#e7298a">&lt;7&gt;</text>
</g>
<!-- x13 -->
<g id="node30" class="node"><title>x13</title>
<path fill="none" stroke="black" d="M243.047,-438.5C243.047,-438.5 282.047,-438.5 282.047,-438.5 288.047,-438.5 294.047,-444.5 294.047,-450.5 294.047,-450.5 294.047,-462.5 294.047,-462.5 294.047,-468.5 288.047,-474.5 282.047,-474.5 282.047,-474.5 243.047,-474.5 243.047,-474.5 237.047,-474.5 231.047,-468.5 231.047,-462.5 231.047,-462.5 231.047,-450.5 231.047,-450.5 231.047,-444.5 237.047,-438.5 243.047,-438.5"/>
<text text-anchor="middle" x="262.547" y="-452.8" font-family="Times,serif" font-size="14.00">6:6 &#45; 0:0</text>
</g>
<!-- n7&#45;&gt;x13 -->
<g id="edge33" class="edge"><title>n7:e&#45;&gt;x13:s0:w</title>
<path fill="none" stroke="#e7298a" stroke-width="3" d="M90.047,-391.5C106.754,-391.5 94.888,-414.207 108.047,-424.5 116.249,-430.915 183.891,-452.161 221.028,-455.927"/>
<polygon fill="#e7298a" stroke="#e7298a" stroke-width="3" points="220.863,-459.423 231.047,-456.5 221.263,-452.435 220.863,-459.423"/>
<text text-anchor="middle" x="120.047" y="-438.3" font-family="Times,serif" font-size="14.00" fill="#e7298a">&lt;7&gt;</text>
</g>
<!-- x15 -->
<g id="node32" class="node"><title>x15</title>
<path fill="none" stroke="black" d="M162.047,-209C162.047,-209 201.047,-209 201.047,-209 207.047,-209 213.047,-215 213.047,-221 213.047,-221 213.047,-266 213.047,-266 213.047,-272 207.047,-278 201.047,-278 201.047,-278 162.047,-278 162.047,-278 156.047,-278 150.047,-272 150.047,-266 150.047,-266 150.047,-221 150.047,-221 150.047,-215 156.047,-209 162.047,-209"/>
<text text-anchor="middle" x="181.547" y="-262.8" font-family="Times,serif" font-size="14.00">5:5 &#45; 2:2</text>
<polyline fill="none" stroke="black" points="150.047,-255 213.047,-255 "/>
<text text-anchor="middle" x="181.547" y="-239.8" font-family="Times,serif" font-size="14.00">3:3 &#45; 1:1</text>
<polyline fill="none" stroke="black" points="150.047,-232 213.047,-232 "/>
<text text-anchor="middle" x="181.547" y="-216.8" font-family="Times,serif" font-size="14.00">1:1 &#45; 0:0</text>
</g>
<!-- n7&#45;&gt;x15 -->
<g id="edge34" class="edge"><title>n7:e&#45;&gt;x15:s0:w</title>
<path fill="none" stroke="#e7298a" stroke-width="3" d="M90.047,-391.5C128.036,-391.5 80.1104,-247.243 108.047,-221.5 119.096,-211.318 127.469,-216.875 140.047,-219.434"/>
<polygon fill="#e7298a" stroke="#e7298a" stroke-width="3" points="139.732,-222.921 150.047,-220.5 140.474,-215.96 139.732,-222.921"/>
<text text-anchor="middle" x="120.047" y="-225.3" font-family="Times,serif" font-size="14.00" fill="#e7298a">&lt;7&gt;</text>
</g>
<!-- n7&#45;&gt;x15 -->
<g id="edge35" class="edge"><title>n7:e&#45;&gt;x15:s1:w</title>
<path fill="none" stroke="#e7298a" stroke-width="3" d="M90.047,-391.5C119.652,-391.5 89.6357,-282.683 108.047,-259.5 118.141,-246.79 126.372,-244.171 139.818,-243.636"/>
<polygon fill="#e7298a" stroke="#e7298a" stroke-width="3" points="140.095,-247.133 150.047,-243.5 140.001,-240.133 140.095,-247.133"/>
<text text-anchor="middle" x="120.047" y="-263.3" font-family="Times,serif" font-size="14.00" fill="#e7298a">&lt;7&gt;</text>
</g>
<!-- n7&#45;&gt;x15 -->
<g id="edge36" class="edge"><title>n7:e&#45;&gt;x15:s2:w</title>
<path fill="none" stroke="#e7298a" stroke-width="3" d="M90.047,-391.5C111.315,-391.5 96.7121,-315.496 108.047,-297.5 112.78,-289.985 128.086,-275.806 140.206,-269.572"/>
<polygon fill="#e7298a" stroke="#e7298a" stroke-width="3" points="141.544,-272.821 150.047,-266.5 139.458,-266.139 141.544,-272.821"/>
<text text-anchor="middle" x="120.047" y="-301.3" font-family="Times,serif" font-size="14.00" fill="#e7298a">&lt;7&gt;</text>
</g>
<!-- x16 -->
<g id="node33" class="node"><title>x16</title>
<path fill="none" stroke="black" d="M162.047,-143.5C162.047,-143.5 201.047,-143.5 201.047,-143.5 207.047,-143.5 213.047,-149.5 213.047,-155.5 213.047,-155.5 213.047,-177.5 213.047,-177.5 213.047,-183.5 207.047,-189.5 201.047,-189.5 201.047,-189.5 162.047,-189.5 162.047,-189.5 156.047,-189.5 150.047,-183.5 150.047,-177.5 150.047,-177.5 150.047,-155.5 150.047,-155.5 150.047,-149.5 156.047,-143.5 162.047,-143.5"/>
<text text-anchor="middle" x="181.547" y="-174.3" font-family="Times,serif" font-size="14.00">6:6 &#45; 2:2</text>
<polyline fill="none" stroke="black" points="150.047,-166.5 213.047,-166.5 "/>
<text text-anchor="middle" x="181.547" y="-151.3" font-family="Times,serif" font-size="14.00">3:2 &#45; 1:0</text>
</g>
<!-- n7&#45;&gt;x16 -->
<g id="edge37" class="edge"><title>n7:e&#45;&gt;x16:s0:w</title>
<path fill="none" stroke="#e7298a" stroke-width="3" d="M90.047,-391.5C117.453,-391.5 87.9731,-164.159 108.047,-145.5 115.86,-138.238 121.666,-143.049 132.047,-145.5 136.128,-146.463 138.372,-148.501 140.527,-150.394"/>
<polygon fill="#e7298a" stroke="#e7298a" stroke-width="3" points="139.479,-153.754 150.047,-154.5 142.251,-147.326 139.479,-153.754"/>
<text text-anchor="middle" x="120.047" y="-149.3" font-family="Times,serif" font-size="14.00" fill="#e7298a">&lt;7&gt;</text>
</g>
<!-- n7&#45;&gt;x16 -->
<g id="edge38" class="edge"><title>n7:e&#45;&gt;x16:s1:w</title>
<path fill="none" stroke="#e7298a" stroke-width="3" d="M90.047,-391.5C111.695,-391.5 95.4821,-215.128 108.047,-197.5 117.802,-183.814 126.028,-179.796 139.979,-178.794"/>
<polygon fill="#e7298a" stroke="#e7298a" stroke-width="3" points="140.154,-182.291 150.047,-178.5 139.949,-175.294 140.154,-182.291"/>
<text text-anchor="middle" x="120.047" y="-201.3" font-family="Times,serif" font-size="14.00" fill="#e7298a">&lt;7&gt;</text>
</g>
<!-- x17 -->
<g id="node34" class="node"><title>x17</title>
<path fill="none" stroke="black" d="M162.047,-88.5C162.047,-88.5 201.047,-88.5 201.047,-88.5 207.047,-88.5 213.047,-94.5 213.047,-100.5 213.047,-100.5 213.047,-112.5 213.047,-112.5 213.047,-118.5 207.047,-124.5 201.047,-124.5 201.047,-124.5 162.047,-124.5 162.047,-124.5 156.047,-124.5 150.047,-118.5 150.047,-112.5 150.047,-112.5 150.047,-100.5 150.047,-100.5 150.047,-94.5 156.047,-88.5 162.047,-88.5"/>
<text text-anchor="middle" x="181.547" y="-102.8" font-family="Times,serif" font-size="14.00">6:4 &#45; 2:0</text>
</g>
<!-- n7&#45;&gt;x17 -->
<g id="edge39" class="edge"><title>n7:e&#45;&gt;x17:s0:w</title>
<path fill="none" stroke="#e7298a" stroke-width="3" d="M90.047,-391.5C119.892,-391.5 90.5455,-147.675 108.047,-123.5 117.642,-110.247 126.078,-107.307 139.705,-106.671"/>
<polygon fill="#e7298a" stroke="#e7298a" stroke-width="3" points="140.106,-110.165 150.047,-106.5 139.991,-103.166 140.106,-110.165"/>
<text text-anchor="middle" x="120.047" y="-127.3" font-family="Times,serif" font-size="14.00" fill="#e7298a">&lt;7&gt;</text>
</g>
<!-- x18 -->
<g id="node35" class="node"><title>x18</title>
<path fill="none" stroke="black" d="M162.047,-23.5C162.047,-23.5 201.047,-23.5 201.047,-23.5 207.047,-23.5 213.047,-29.5 213.047,-35.5 213.047,-35.5 213.047,-57.5 213.047,-57.5 213.047,-63.5 207.047,-69.5 201.047,-69.5 201.047,-69.5 162.047,-69.5 162.047,-69.5 156.047,-69.5 150.047,-63.5 150.047,-57.5 150.047,-57.5 150.047,-35.5 150.047,-35.5 150.047,-29.5 156.047,-23.5 162.047,-23.5"/>
<text text-anchor="middle" x="181.547" y="-54.3" font-family="Times,serif" font-size="14.00">0 &#45;&gt; 7:7</text>
<polyline fill="none" stroke="black" points="150.047,-46.5 213.047,-46.5 "/>
<text text-anchor="middle" x="181.547" y="-31.3" font-family="Times,serif" font-size="14.00">6:0 &#45; 6:0</text>
</g>
<!-- n7&#45;&gt;x18 -->
<g id="edge40" class="edge"><title>n7:e&#45;&gt;x18:s0:w</title>
<path fill="none" stroke="#e7298a" stroke-width="3" d="M90.047,-391.5C123.773,-391.5 96.1602,-120.062 108.047,-88.5 117.424,-63.6031 119.269,-40.932 139.952,-35.6533"/>
<polygon fill="#e7298a" stroke="#e7298a" stroke-width="3" points="140.509,-39.1125 150.047,-34.5 139.714,-32.1578 140.509,-39.1125"/>
<text text-anchor="middle" x="120.047" y="-92.3" font-family="Times,serif" font-size="14.00" fill="#e7298a">&lt;7&gt;</text>
</g>
<!-- n8 -->
<g id="node2" class="node"><title>n8</title>
<polygon fill="none" stroke="black" points="399.367,-261.5 336.862,-243.5 399.367,-225.5 461.872,-243.5 399.367,-261.5"/>
<text text-anchor="middle" x="399.367" y="-239.8" font-family="Times,serif" font-size="14.00">idx_or[0]</text>
</g>
<!-- n9 -->
<g id="node3" class="node"><title>n9</title>
<polygon fill="none" stroke="black" points="399.367,-184.5 336.862,-166.5 399.367,-148.5 461.872,-166.5 399.367,-184.5"/>
<text text-anchor="middle" x="399.367" y="-162.8" font-family="Times,serif" font-size="14.00">idx_or[1]</text>
</g>
<!-- n10 -->
<g id="node4" class="node"><title>n10</title>
<polygon fill="none" stroke="black" points="399.367,-124.5 336.862,-106.5 399.367,-88.5 461.872,-106.5 399.367,-124.5"/>
<text text-anchor="middle" x="399.367" y="-102.8" font-family="Times,serif" font-size="14.00">idx_or[2]</text>
</g>
<!-- n11 -->
<g id="node5" class="node"><title>n11</title>
<polygon fill="none" stroke="black" points="1105.32,-499.044 1105.32,-513.956 1080.47,-524.5 1045.33,-524.5 1020.48,-513.956 1020.48,-499.044 1045.33,-488.5 1080.47,-488.5 1105.32,-499.044"/>
<text text-anchor="middle" x="1062.9" y="-502.8" font-family="Times,serif" font-size="14.00">o_index</text>
</g>
<!-- x8 -->
<g id="node22" class="node"><title>x8</title>
<path fill="none" stroke="black" d="M703.187,-560.5C703.187,-560.5 742.187,-560.5 742.187,-560.5 748.187,-560.5 754.187,-566.5 754.187,-572.5 754.187,-572.5 754.187,-584.5 754.187,-584.5 754.187,-590.5 748.187,-596.5 742.187,-596.5 742.187,-596.5 703.187,-596.5 703.187,-596.5 697.187,-596.5 691.187,-590.5 691.187,-584.5 691.187,-584.5 691.187,-572.5 691.187,-572.5 691.187,-566.5 697.187,-560.5 703.187,-560.5"/>
<text text-anchor="middle" x="722.687" y="-574.8" font-family="Times,serif" font-size="14.00">2:2 &#45; 0:0</text>
</g>
<!-- n11&#45;&gt;x8 -->
<g id="edge20" class="edge"><title>n11:e&#45;&gt;x8:s0:w</title>
<path fill="none" stroke="#e6ab02" d="M1106.9,-506.5C1114.91,-506.5 1111.17,-518.465 1105.9,-524.5 1013.23,-630.594 931.346,-550.345 794.687,-584.5 776.411,-589.068 772.814,-594.191 754.187,-597 726.28,-601.209 711.175,-616.41 690.687,-597 688.165,-594.611 686.128,-590.945 685.233,-587.505"/>
<polygon fill="#e6ab02" stroke="#e6ab02" points="688.39,-589.015 689.687,-578.5 682.116,-585.912 688.39,-589.015"/>
</g>
<!-- n12 -->
<g id="node6" class="node"><title>n12</title>
<polygon fill="none" stroke="black" points="1103.09,-621.044 1103.09,-635.956 1079.55,-646.5 1046.25,-646.5 1022.7,-635.956 1022.7,-621.044 1046.25,-610.5 1079.55,-610.5 1103.09,-621.044"/>
<text text-anchor="middle" x="1062.9" y="-624.8" font-family="Times,serif" font-size="14.00">o_valid</text>
</g>
<!-- n13 -->
<g id="node7" class="node"><title>n13</title>
<polygon fill="none" stroke="black" points="399.367,-64.5 312.227,-46.5 399.367,-28.5 486.507,-46.5 399.367,-64.5"/>
<text text-anchor="middle" x="399.367" y="-42.8" font-family="Times,serif" font-size="14.00">paddedOnehot</text>
</g>
<!-- c17 -->
<g id="node8" class="node"><title>c17</title>
<polygon fill="none" stroke="black" points="345.367,-529.5 345.367,-575.5 453.367,-575.5 453.367,-529.5 345.367,-529.5"/>
<text text-anchor="middle" x="358.367" y="-560.3" font-family="Times,serif" font-size="14.00">A</text>
<polyline fill="none" stroke="black" points="345.367,-552.5 371.367,-552.5 "/>
<text text-anchor="middle" x="358.367" y="-537.3" font-family="Times,serif" font-size="14.00">B</text>
<polyline fill="none" stroke="black" points="371.367,-529.5 371.367,-575.5 "/>
<text text-anchor="middle" x="399.367" y="-556.3" font-family="Times,serif" font-size="14.00">_2_</text>
<text text-anchor="middle" x="399.367" y="-541.3" font-family="Times,serif" font-size="14.00">$_OR_</text>
<polyline fill="none" stroke="black" points="427.367,-529.5 427.367,-575.5 "/>
<text text-anchor="middle" x="440.367" y="-548.8" font-family="Times,serif" font-size="14.00">Y</text>
</g>
<!-- c18 -->
<g id="node11" class="node"><title>c18</title>
<polygon fill="none" stroke="black" points="523.687,-503.5 523.687,-549.5 631.687,-549.5 631.687,-503.5 523.687,-503.5"/>
<text text-anchor="middle" x="536.687" y="-534.3" font-family="Times,serif" font-size="14.00">A</text>
<polyline fill="none" stroke="black" points="523.687,-526.5 549.687,-526.5 "/>
<text text-anchor="middle" x="536.687" y="-511.3" font-family="Times,serif" font-size="14.00">B</text>
<polyline fill="none" stroke="black" points="549.687,-503.5 549.687,-549.5 "/>
<text text-anchor="middle" x="577.687" y="-530.3" font-family="Times,serif" font-size="14.00">_3_</text>
<text text-anchor="middle" x="577.687" y="-515.3" font-family="Times,serif" font-size="14.00">$_OR_</text>
<polyline fill="none" stroke="black" points="605.687,-503.5 605.687,-549.5 "/>
<text text-anchor="middle" x="618.687" y="-522.8" font-family="Times,serif" font-size="14.00">Y</text>
</g>
<!-- c17&#45;&gt;c18 -->
<g id="edge23" class="edge"><title>c17:p16:e&#45;&gt;c18:p14:w</title>
<path fill="none" stroke="#7570b3" d="M454.367,-552.5C482.115,-552.5 490.399,-541.589 513.585,-539.032"/>
<polygon fill="#7570b3" stroke="#7570b3" points="513.885,-542.521 523.687,-538.5 513.517,-535.531 513.885,-542.521"/>
</g>
<!-- x0&#45;&gt;c17 -->
<g id="edge1" class="edge"><title>x0:e&#45;&gt;c17:p14:w</title>
<path fill="none" stroke="#e6ab02" d="M225.324,-595.038C271.137,-591.475 286.419,-568.432 332.347,-564.943"/>
<polygon fill="none" stroke="#e6ab02" points="225.039,-595.048 219.193,-599.271 213.047,-595.5 218.892,-591.277 225.039,-595.048"/>
<polygon fill="none" stroke="#e6ab02" points="332.375,-564.942 338.224,-560.724 344.367,-564.5 338.518,-568.718 332.375,-564.942"/>
</g>
<!-- x1&#45;&gt;c17 -->
<g id="edge2" class="edge"><title>x1:e&#45;&gt;c17:p15:w</title>
<path fill="none" stroke="#666666" d="M225.048,-540.5C269.944,-540.5 287.45,-540.5 332.333,-540.5"/>
<polygon fill="none" stroke="#666666" points="225.047,-540.5 219.047,-544.5 213.047,-540.5 219.047,-536.5 225.047,-540.5"/>
<polygon fill="none" stroke="#666666" points="332.367,-540.5 338.367,-536.5 344.367,-540.5 338.367,-544.5 332.367,-540.5"/>
</g>
<!-- x3 -->
<g id="node13" class="node"><title>x3</title>
<path fill="none" stroke="black" d="M806.687,-507.5C806.687,-507.5 845.687,-507.5 845.687,-507.5 851.687,-507.5 857.687,-513.5 857.687,-519.5 857.687,-519.5 857.687,-531.5 857.687,-531.5 857.687,-537.5 851.687,-543.5 845.687,-543.5 845.687,-543.5 806.687,-543.5 806.687,-543.5 800.687,-543.5 794.687,-537.5 794.687,-531.5 794.687,-531.5 794.687,-519.5 794.687,-519.5 794.687,-513.5 800.687,-507.5 806.687,-507.5"/>
<text text-anchor="middle" x="826.187" y="-521.8" font-family="Times,serif" font-size="14.00">0:0 &#45; 2:2</text>
</g>
<!-- c18&#45;&gt;x3 -->
<g id="edge4" class="edge"><title>c18:p16:e&#45;&gt;x3:w</title>
<path fill="none" stroke="#1b9e77" d="M643.884,-526.49C702.532,-526.393 723.814,-525.608 782.441,-525.51"/>
<polygon fill="none" stroke="#1b9e77" points="643.687,-526.49 637.69,-530.495 631.687,-526.5 637.684,-522.495 643.687,-526.49"/>
<polygon fill="none" stroke="#1b9e77" points="782.687,-525.51 788.684,-521.505 794.687,-525.5 788.69,-529.505 782.687,-525.51"/>
</g>
<!-- x2&#45;&gt;c18 -->
<g id="edge3" class="edge"><title>x2:e&#45;&gt;c18:p15:w</title>
<path fill="none" stroke="#a6761d" d="M306.253,-499.574C394.55,-500.657 423.154,-513.338 511.426,-514.426"/>
<polygon fill="none" stroke="#a6761d" points="306.047,-499.572 300.023,-503.536 294.047,-499.5 300.071,-495.536 306.047,-499.572"/>
<polygon fill="none" stroke="#a6761d" points="511.687,-514.427 517.711,-510.464 523.687,-514.5 517.663,-518.464 511.687,-514.427"/>
</g>
<!-- x3&#45;&gt;n11 -->
<g id="edge19" class="edge"><title>x3:s0:e&#45;&gt;n11:w</title>
<path fill="none" stroke="#e6ab02" d="M857.687,-525.5C922.475,-525.5 938.735,-520.878 1002.69,-510.5 1006.23,-509.926 1008.55,-509.088 1010.72,-508.328"/>
<polygon fill="#e6ab02" stroke="#e6ab02" points="1011.48,-511.747 1020.69,-506.5 1010.22,-504.861 1011.48,-511.747"/>
</g>
<!-- c19 -->
<g id="node14" class="node"><title>c19</title>
<polygon fill="none" stroke="black" points="345.367,-749.5 345.367,-795.5 453.367,-795.5 453.367,-749.5 345.367,-749.5"/>
<text text-anchor="middle" x="358.367" y="-780.3" font-family="Times,serif" font-size="14.00">A</text>
<polyline fill="none" stroke="black" points="345.367,-772.5 371.367,-772.5 "/>
<text text-anchor="middle" x="358.367" y="-757.3" font-family="Times,serif" font-size="14.00">B</text>
<polyline fill="none" stroke="black" points="371.367,-749.5 371.367,-795.5 "/>
<text text-anchor="middle" x="399.367" y="-776.3" font-family="Times,serif" font-size="14.00">_4_</text>
<text text-anchor="middle" x="399.367" y="-761.3" font-family="Times,serif" font-size="14.00">$_OR_</text>
<polyline fill="none" stroke="black" points="427.367,-749.5 427.367,-795.5 "/>
<text text-anchor="middle" x="440.367" y="-768.8" font-family="Times,serif" font-size="14.00">Y</text>
</g>
<!-- c21 -->
<g id="node20" class="node"><title>c21</title>
<polygon fill="none" stroke="black" points="668.687,-646.5 668.687,-692.5 776.687,-692.5 776.687,-646.5 668.687,-646.5"/>
<text text-anchor="middle" x="681.687" y="-677.3" font-family="Times,serif" font-size="14.00">A</text>
<polyline fill="none" stroke="black" points="668.687,-669.5 694.687,-669.5 "/>
<text text-anchor="middle" x="681.687" y="-654.3" font-family="Times,serif" font-size="14.00">B</text>
<polyline fill="none" stroke="black" points="694.687,-646.5 694.687,-692.5 "/>
<text text-anchor="middle" x="722.687" y="-673.3" font-family="Times,serif" font-size="14.00">_6_</text>
<text text-anchor="middle" x="722.687" y="-658.3" font-family="Times,serif" font-size="14.00">$_OR_</text>
<polyline fill="none" stroke="black" points="750.687,-646.5 750.687,-692.5 "/>
<text text-anchor="middle" x="763.687" y="-665.8" font-family="Times,serif" font-size="14.00">Y</text>
</g>
<!-- c19&#45;&gt;c21 -->
<g id="edge24" class="edge"><title>c19:p16:e&#45;&gt;c21:p15:w</title>
<path fill="none" stroke="#666666" d="M454.367,-772.5C558.983,-772.5 560.594,-664.793 658.571,-657.851"/>
<polygon fill="#666666" stroke="#666666" points="658.814,-661.344 668.687,-657.5 658.572,-654.349 658.814,-661.344"/>
</g>
<!-- x4&#45;&gt;c19 -->
<g id="edge5" class="edge"><title>x4:e&#45;&gt;c19:p14:w</title>
<path fill="none" stroke="#e7298a" d="M225.324,-815.038C271.137,-811.475 286.419,-788.432 332.347,-784.943"/>
<polygon fill="none" stroke="#e7298a" points="225.039,-815.048 219.193,-819.271 213.047,-815.5 218.892,-811.277 225.039,-815.048"/>
<polygon fill="none" stroke="#e7298a" points="332.375,-784.942 338.224,-780.724 344.367,-784.5 338.518,-788.718 332.375,-784.942"/>
</g>
<!-- x5&#45;&gt;c19 -->
<g id="edge6" class="edge"><title>x5:e&#45;&gt;c19:p15:w</title>
<path fill="none" stroke="#1b9e77" d="M225.048,-760.5C269.944,-760.5 287.45,-760.5 332.333,-760.5"/>
<polygon fill="none" stroke="#1b9e77" points="225.047,-760.5 219.047,-764.5 213.047,-760.5 219.047,-756.5 225.047,-760.5"/>
<polygon fill="none" stroke="#1b9e77" points="332.367,-760.5 338.367,-756.5 344.367,-760.5 338.367,-764.5 332.367,-760.5"/>
</g>
<!-- c20 -->
<g id="node17" class="node"><title>c20</title>
<polygon fill="none" stroke="black" points="345.367,-639.5 345.367,-685.5 453.367,-685.5 453.367,-639.5 345.367,-639.5"/>
<text text-anchor="middle" x="358.367" y="-670.3" font-family="Times,serif" font-size="14.00">A</text>
<polyline fill="none" stroke="black" points="345.367,-662.5 371.367,-662.5 "/>
<text text-anchor="middle" x="358.367" y="-647.3" font-family="Times,serif" font-size="14.00">B</text>
<polyline fill="none" stroke="black" points="371.367,-639.5 371.367,-685.5 "/>
<text text-anchor="middle" x="399.367" y="-666.3" font-family="Times,serif" font-size="14.00">_5_</text>
<text text-anchor="middle" x="399.367" y="-651.3" font-family="Times,serif" font-size="14.00">$_OR_</text>
<polyline fill="none" stroke="black" points="427.367,-639.5 427.367,-685.5 "/>
<text text-anchor="middle" x="440.367" y="-658.8" font-family="Times,serif" font-size="14.00">Y</text>
</g>
<!-- n4 -->
<g id="node36" class="node"><title>n4</title>
<ellipse fill="black" stroke="black" cx="577.687" cy="-627.5" rx="1.8" ry="1.8"/>
</g>
<!-- c20&#45;&gt;n4 -->
<g id="edge25" class="edge"><title>c20:p16:e&#45;&gt;n4:w</title>
<path fill="none" stroke="#7570b3" d="M454.367,-662.5C478.119,-662.5 481.933,-651.312 504.687,-644.5 531.883,-636.358 540.715,-629.289 564.688,-627.792"/>
<polygon fill="#7570b3" stroke="#7570b3" points="564.793,-631.29 574.687,-627.5 564.589,-624.293 564.793,-631.29"/>
</g>
<!-- x6&#45;&gt;c20 -->
<g id="edge7" class="edge"><title>x6:e&#45;&gt;c20:p14:w</title>
<path fill="none" stroke="#e7298a" d="M225.324,-705.038C271.137,-701.475 286.419,-678.432 332.347,-674.943"/>
<polygon fill="none" stroke="#e7298a" points="225.039,-705.048 219.193,-709.271 213.047,-705.5 218.892,-701.277 225.039,-705.048"/>
<polygon fill="none" stroke="#e7298a" points="332.375,-674.942 338.224,-670.724 344.367,-674.5 338.518,-678.718 332.375,-674.942"/>
</g>
<!-- x7&#45;&gt;c20 -->
<g id="edge8" class="edge"><title>x7:e&#45;&gt;c20:p15:w</title>
<path fill="none" stroke="#d95f02" d="M225.048,-650.5C269.944,-650.5 287.45,-650.5 332.333,-650.5"/>
<polygon fill="none" stroke="#d95f02" points="225.047,-650.5 219.047,-654.5 213.047,-650.5 219.047,-646.5 225.047,-650.5"/>
<polygon fill="none" stroke="#d95f02" points="332.367,-650.5 338.367,-646.5 344.367,-650.5 338.367,-654.5 332.367,-650.5"/>
</g>
<!-- c22 -->
<g id="node21" class="node"><title>c22</title>
<polygon fill="none" stroke="black" points="875.687,-605.5 875.687,-651.5 983.687,-651.5 983.687,-605.5 875.687,-605.5"/>
<text text-anchor="middle" x="888.687" y="-636.3" font-family="Times,serif" font-size="14.00">A</text>
<polyline fill="none" stroke="black" points="875.687,-628.5 901.687,-628.5 "/>
<text text-anchor="middle" x="888.687" y="-613.3" font-family="Times,serif" font-size="14.00">B</text>
<polyline fill="none" stroke="black" points="901.687,-605.5 901.687,-651.5 "/>
<text text-anchor="middle" x="929.687" y="-632.3" font-family="Times,serif" font-size="14.00">_7_</text>
<text text-anchor="middle" x="929.687" y="-617.3" font-family="Times,serif" font-size="14.00">$_OR_</text>
<polyline fill="none" stroke="black" points="957.687,-605.5 957.687,-651.5 "/>
<text text-anchor="middle" x="970.687" y="-624.8" font-family="Times,serif" font-size="14.00">Y</text>
</g>
<!-- c21&#45;&gt;c22 -->
<g id="edge28" class="edge"><title>c21:p16:e&#45;&gt;c22:p14:w</title>
<path fill="none" stroke="#666666" d="M776.687,-669.5C818.954,-669.5 828.462,-644.854 865.61,-641.003"/>
<polygon fill="#666666" stroke="#666666" points="865.874,-644.495 875.687,-640.5 865.525,-637.503 865.874,-644.495"/>
</g>
<!-- c22&#45;&gt;n12 -->
<g id="edge21" class="edge"><title>c22:p16:e&#45;&gt;n12:w</title>
<path fill="none" stroke="#e7298a" d="M983.687,-628.5C996.689,-628.5 1002.22,-628.5 1011.73,-628.5"/>
<polygon fill="#e7298a" stroke="#e7298a" points="1011.9,-632 1021.9,-628.5 1011.9,-625 1011.9,-632"/>
</g>
<!-- x8&#45;&gt;c22 -->
<g id="edge9" class="edge"><title>x8:e&#45;&gt;c22:p15:w</title>
<path fill="none" stroke="#e6ab02" d="M767.681,-579.128C809.326,-583.654 821.936,-611.246 863.485,-615.849"/>
<polygon fill="none" stroke="#e6ab02" points="767.671,-579.127 761.47,-582.808 755.687,-578.5 761.888,-574.819 767.671,-579.127"/>
<polygon fill="none" stroke="#e6ab02" points="863.704,-615.861 869.908,-612.186 875.687,-616.5 869.482,-620.175 863.704,-615.861"/>
</g>
<!-- c23 -->
<g id="node23" class="node"><title>c23</title>
<polygon fill="none" stroke="black" points="345.367,-355.5 345.367,-401.5 453.367,-401.5 453.367,-355.5 345.367,-355.5"/>
<text text-anchor="middle" x="358.367" y="-386.3" font-family="Times,serif" font-size="14.00">A</text>
<polyline fill="none" stroke="black" points="345.367,-378.5 371.367,-378.5 "/>
<text text-anchor="middle" x="358.367" y="-363.3" font-family="Times,serif" font-size="14.00">B</text>
<polyline fill="none" stroke="black" points="371.367,-355.5 371.367,-401.5 "/>
<text text-anchor="middle" x="399.367" y="-382.3" font-family="Times,serif" font-size="14.00">_8_</text>
<text text-anchor="middle" x="399.367" y="-367.3" font-family="Times,serif" font-size="14.00">$_OR_</text>
<polyline fill="none" stroke="black" points="427.367,-355.5 427.367,-401.5 "/>
<text text-anchor="middle" x="440.367" y="-374.8" font-family="Times,serif" font-size="14.00">Y</text>
</g>
<!-- c24 -->
<g id="node26" class="node"><title>c24</title>
<polygon fill="none" stroke="black" points="523.687,-343.5 523.687,-389.5 631.687,-389.5 631.687,-343.5 523.687,-343.5"/>
<text text-anchor="middle" x="536.687" y="-374.3" font-family="Times,serif" font-size="14.00">A</text>
<polyline fill="none" stroke="black" points="523.687,-366.5 549.687,-366.5 "/>
<text text-anchor="middle" x="536.687" y="-351.3" font-family="Times,serif" font-size="14.00">B</text>
<polyline fill="none" stroke="black" points="549.687,-343.5 549.687,-389.5 "/>
<text text-anchor="middle" x="577.687" y="-370.3" font-family="Times,serif" font-size="14.00">_9_</text>
<text text-anchor="middle" x="577.687" y="-355.3" font-family="Times,serif" font-size="14.00">$_OR_</text>
<polyline fill="none" stroke="black" points="605.687,-343.5 605.687,-389.5 "/>
<text text-anchor="middle" x="618.687" y="-362.8" font-family="Times,serif" font-size="14.00">Y</text>
</g>
<!-- c23&#45;&gt;c24 -->
<g id="edge29" class="edge"><title>c23:p16:e&#45;&gt;c24:p14:w</title>
<path fill="none" stroke="#66a61e" d="M454.367,-378.5C481.445,-378.5 490.674,-378.5 513.429,-378.5"/>
<polygon fill="#66a61e" stroke="#66a61e" points="513.687,-382 523.687,-378.5 513.687,-375 513.687,-382"/>
</g>
<!-- x9&#45;&gt;c23 -->
<g id="edge10" class="edge"><title>x9:e&#45;&gt;c23:p14:w</title>
<path fill="none" stroke="#7570b3" d="M225.141,-408.232C270.317,-406.167 287.077,-392.84 332.239,-390.77"/>
<polygon fill="none" stroke="#7570b3" points="225.044,-408.234 219.134,-412.366 213.047,-408.5 218.957,-404.368 225.044,-408.234"/>
<polygon fill="none" stroke="#7570b3" points="332.37,-390.767 338.279,-386.635 344.367,-390.5 338.458,-394.633 332.37,-390.767"/>
</g>
<!-- x10&#45;&gt;c23 -->
<g id="edge11" class="edge"><title>x10:e&#45;&gt;c23:p15:w</title>
<path fill="none" stroke="#66a61e" d="M225.097,-353.694C270.139,-355.185 287.255,-364.81 332.284,-366.305"/>
<polygon fill="none" stroke="#66a61e" points="225.045,-353.693 218.982,-357.596 213.047,-353.5 219.111,-349.597 225.045,-353.693"/>
<polygon fill="none" stroke="#66a61e" points="332.369,-366.306 338.432,-362.404 344.367,-366.5 338.303,-370.403 332.369,-366.306"/>
</g>
<!-- x12 -->
<g id="node28" class="node"><title>x12</title>
<path fill="none" stroke="black" d="M806.687,-385.5C806.687,-385.5 845.687,-385.5 845.687,-385.5 851.687,-385.5 857.687,-391.5 857.687,-397.5 857.687,-397.5 857.687,-409.5 857.687,-409.5 857.687,-415.5 851.687,-421.5 845.687,-421.5 845.687,-421.5 806.687,-421.5 806.687,-421.5 800.687,-421.5 794.687,-415.5 794.687,-409.5 794.687,-409.5 794.687,-397.5 794.687,-397.5 794.687,-391.5 800.687,-385.5 806.687,-385.5"/>
<text text-anchor="middle" x="826.187" y="-399.8" font-family="Times,serif" font-size="14.00">0:0 &#45; 0:0</text>
</g>
<!-- c24&#45;&gt;x12 -->
<g id="edge13" class="edge"><title>c24:p16:e&#45;&gt;x12:w</title>
<path fill="none" stroke="#666666" d="M643.756,-366.843C703.923,-370.347 722.399,-399.62 782.521,-403.152"/>
<polygon fill="none" stroke="#666666" points="643.682,-366.841 637.571,-370.669 631.687,-366.5 637.798,-362.672 643.682,-366.841"/>
<polygon fill="none" stroke="#666666" points="782.692,-403.156 788.804,-399.33 794.687,-403.5 788.575,-407.327 782.692,-403.156"/>
</g>
<!-- x11&#45;&gt;c24 -->
<g id="edge12" class="edge"><title>x11:e&#45;&gt;c24:p15:w</title>
<path fill="none" stroke="#e6ab02" d="M306.277,-316.587C382.842,-317.712 405.877,-329.622 486.687,-345.5 498.493,-347.82 503.659,-351.39 511.741,-353.26"/>
<polygon fill="none" stroke="#e6ab02" points="306.047,-316.586 300.018,-320.543 294.047,-316.5 300.075,-312.543 306.047,-316.586"/>
<polygon fill="none" stroke="#e6ab02" points="511.751,-353.261 518.132,-349.902 523.687,-354.5 517.306,-357.859 511.751,-353.261"/>
</g>
<!-- x12&#45;&gt;n11 -->
<g id="edge17" class="edge"><title>x12:s0:e&#45;&gt;n11:w</title>
<path fill="none" stroke="#e6ab02" d="M857.687,-403.5C917.302,-403.5 937.053,-412.361 983.687,-449.5 1003.99,-465.67 994.417,-496.144 1010.49,-504.395"/>
<polygon fill="#e6ab02" stroke="#e6ab02" points="1010.19,-507.905 1020.69,-506.5 1011.6,-501.05 1010.19,-507.905"/>
</g>
<!-- c25 -->
<g id="node29" class="node"><title>c25</title>
<polygon fill="none" stroke="black" points="668.687,-451.5 668.687,-497.5 776.687,-497.5 776.687,-451.5 668.687,-451.5"/>
<text text-anchor="middle" x="681.687" y="-482.3" font-family="Times,serif" font-size="14.00">A</text>
<polyline fill="none" stroke="black" points="668.687,-474.5 694.687,-474.5 "/>
<text text-anchor="middle" x="681.687" y="-459.3" font-family="Times,serif" font-size="14.00">B</text>
<polyline fill="none" stroke="black" points="694.687,-451.5 694.687,-497.5 "/>
<text text-anchor="middle" x="722.687" y="-478.3" font-family="Times,serif" font-size="14.00">_10_</text>
<text text-anchor="middle" x="722.687" y="-463.3" font-family="Times,serif" font-size="14.00">$_OR_</text>
<polyline fill="none" stroke="black" points="750.687,-451.5 750.687,-497.5 "/>
<text text-anchor="middle" x="763.687" y="-470.8" font-family="Times,serif" font-size="14.00">Y</text>
</g>
<!-- x14 -->
<g id="node31" class="node"><title>x14</title>
<path fill="none" stroke="black" d="M910.187,-459.5C910.187,-459.5 949.187,-459.5 949.187,-459.5 955.187,-459.5 961.187,-465.5 961.187,-471.5 961.187,-471.5 961.187,-483.5 961.187,-483.5 961.187,-489.5 955.187,-495.5 949.187,-495.5 949.187,-495.5 910.187,-495.5 910.187,-495.5 904.187,-495.5 898.187,-489.5 898.187,-483.5 898.187,-483.5 898.187,-471.5 898.187,-471.5 898.187,-465.5 904.187,-459.5 910.187,-459.5"/>
<text text-anchor="middle" x="929.687" y="-473.8" font-family="Times,serif" font-size="14.00">0:0 &#45; 1:1</text>
</g>
<!-- c25&#45;&gt;x14 -->
<g id="edge15" class="edge"><title>c25:p16:e&#45;&gt;x14:w</title>
<path fill="none" stroke="#e7298a" d="M788.774,-474.555C828.587,-474.925 844.72,-477.07 884.49,-477.444"/>
<polygon fill="none" stroke="#e7298a" points="788.687,-474.554 782.669,-478.527 776.687,-474.5 782.705,-470.527 788.687,-474.554"/>
<polygon fill="none" stroke="#e7298a" points="884.687,-477.445 890.705,-473.473 896.687,-477.5 890.669,-481.473 884.687,-477.445"/>
</g>
<!-- x13&#45;&gt;c25 -->
<g id="edge14" class="edge"><title>x13:e&#45;&gt;c25:p15:w</title>
<path fill="none" stroke="#7570b3" d="M306.494,-456.511C458.799,-456.793 504.1,-462.214 656.55,-462.489"/>
<polygon fill="none" stroke="#7570b3" points="306.047,-456.511 300.043,-460.506 294.047,-456.5 300.051,-452.506 306.047,-456.511"/>
<polygon fill="none" stroke="#7570b3" points="656.687,-462.489 662.691,-458.495 668.687,-462.5 662.683,-466.495 656.687,-462.489"/>
</g>
<!-- x14&#45;&gt;n11 -->
<g id="edge18" class="edge"><title>x14:s0:e&#45;&gt;n11:w</title>
<path fill="none" stroke="#e6ab02" d="M962.687,-477.5C987.68,-477.5 991.269,-499.308 1010.58,-505.101"/>
<polygon fill="#e6ab02" stroke="#e6ab02" points="1010.3,-508.596 1020.69,-506.5 1011.26,-501.663 1010.3,-508.596"/>
</g>
<!-- x15&#45;&gt;n8 -->
<g id="edge48" class="edge"><title>x15:e&#45;&gt;n8:w</title>
<path fill="none" stroke="#e7298a" stroke-width="3" d="M213.047,-243.5C263.908,-243.5 279.081,-243.5 325.341,-243.5"/>
<polygon fill="#e7298a" stroke="#e7298a" stroke-width="3" points="325.367,-247 335.367,-243.5 325.367,-240 325.367,-247"/>
<text text-anchor="middle" x="262.547" y="-247.3" font-family="Times,serif" font-size="14.00" fill="#e7298a">&lt;3&gt;</text>
</g>
<!-- x16&#45;&gt;n9 -->
<g id="edge49" class="edge"><title>x16:e&#45;&gt;n9:w</title>
<path fill="none" stroke="#a6761d" stroke-width="3" d="M213.047,-166.5C263.908,-166.5 279.081,-166.5 325.341,-166.5"/>
<polygon fill="#a6761d" stroke="#a6761d" stroke-width="3" points="325.367,-170 335.367,-166.5 325.367,-163 325.367,-170"/>
<text text-anchor="middle" x="262.547" y="-170.3" font-family="Times,serif" font-size="14.00" fill="#a6761d">&lt;3&gt;</text>
</g>
<!-- x17&#45;&gt;n10 -->
<g id="edge16" class="edge"><title>x17:e&#45;&gt;n10:w</title>
<path fill="none" stroke="#66a61e" stroke-width="3" d="M213.047,-106.5C263.908,-106.5 279.081,-106.5 325.341,-106.5"/>
<polygon fill="#66a61e" stroke="#66a61e" stroke-width="3" points="325.367,-110 335.367,-106.5 325.367,-103 325.367,-110"/>
<text text-anchor="middle" x="262.547" y="-110.3" font-family="Times,serif" font-size="14.00" fill="#66a61e">&lt;3&gt;</text>
</g>
<!-- x18&#45;&gt;n13 -->
<g id="edge22" class="edge"><title>x18:e&#45;&gt;n13:w</title>
<path fill="none" stroke="#e6ab02" stroke-width="3" d="M213.047,-46.5C253.438,-46.5 266.02,-46.5 301.849,-46.5"/>
<polygon fill="#e6ab02" stroke="#e6ab02" stroke-width="3" points="302.047,-50.0001 312.047,-46.5 302.047,-43.0001 302.047,-50.0001"/>
<text text-anchor="middle" x="262.547" y="-50.3" font-family="Times,serif" font-size="14.00" fill="#e6ab02">&lt;8&gt;</text>
</g>
<!-- n4&#45;&gt;c21 -->
<g id="edge26" class="edge"><title>n4:e&#45;&gt;c21:p14:w</title>
<path fill="none" stroke="#7570b3" d="M580.687,-627.5C622.81,-627.5 623.084,-673.004 658.342,-680.469"/>
<polygon fill="#7570b3" stroke="#7570b3" points="658.389,-683.991 668.687,-681.5 659.083,-677.026 658.389,-683.991"/>
</g>
<!-- n4&#45;&gt;c25 -->
<g id="edge27" class="edge"><title>n4:e&#45;&gt;c25:p14:w</title>
<path fill="none" stroke="#7570b3" d="M580.687,-627.5C618.821,-627.5 611.573,-590.898 631.687,-558.5 648.588,-531.277 636.195,-495.434 658.698,-487.919"/>
<polygon fill="#7570b3" stroke="#7570b3" points="659.278,-491.371 668.687,-486.5 658.294,-484.441 659.278,-491.371"/>
</g>
</g>
</svg>
