<?xml version="1.0" encoding="UTF-8" standalone="no"?>
<svg
   xmlns:dc="http://purl.org/dc/elements/1.1/"
   xmlns:cc="http://creativecommons.org/ns#"
   xmlns:rdf="http://www.w3.org/1999/02/22-rdf-syntax-ns#"
   xmlns:svg="http://www.w3.org/2000/svg"
   xmlns="http://www.w3.org/2000/svg"
   xmlns:sodipodi="http://sodipodi.sourceforge.net/DTD/sodipodi-0.dtd"
   xmlns:inkscape="http://www.inkscape.org/namespaces/inkscape"
   version="1.1"
   width="50mm"
   height="60.007mm"
   viewBox="0 0 19685.054 23624.825"
   id="svg972"
   sodipodi:docname="correlatorLPF.svg"
   inkscape:version="0.92.1 r15371">
  <metadata
     id="metadata978">
    <rdf:RDF>
      <cc:Work
         rdf:about="">
        <dc:format>image/svg+xml</dc:format>
        <dc:type
           rdf:resource="http://purl.org/dc/dcmitype/StillImage" />
        <dc:title>SVG Picture created as correlatorLPF.svg date 2020/12/15 12:53:22 </dc:title>
      </cc:Work>
    </rdf:RDF>
  </metadata>
  <defs
     id="defs976" />
  <sodipodi:namedview
     pagecolor="#ffffff"
     bordercolor="#666666"
     borderopacity="1"
     objecttolerance="10"
     gridtolerance="10"
     guidetolerance="10"
     inkscape:pageopacity="0"
     inkscape:pageshadow="2"
     inkscape:window-width="1920"
     inkscape:window-height="1031"
     id="namedview974"
     showgrid="true"
     inkscape:document-units="mm"
     units="mm"
     inkscape:zoom="2.2047876"
     inkscape:cx="236.09665"
     inkscape:cy="134.92676"
     inkscape:window-x="1920"
     inkscape:window-y="26"
     inkscape:window-maximized="1"
     inkscape:current-layer="svg972"
     inkscape:showpageshadow="false"
     borderlayer="false">
    <inkscape:grid
       type="xygrid"
       id="grid4630"
       units="mm"
       spacingx="393.70111"
       spacingy="393.70111" />
  </sodipodi:namedview>
  <title
     id="title2">SVG Picture created as correlatorLPF.svg date 2020/12/15 12:53:22 </title>
  <desc
     id="desc4">Picture generated by Eeschema-SVG </desc>
  <g
     transform="translate(-31251.956,-23780.695)"
     style="fill:#840000;fill-opacity:0;stroke:#840000;stroke-width:100;stroke-linecap:round;stroke-linejoin:round;stroke-opacity:1"
     id="g634">
    <rect
       x="38000"
       y="36100"
       width="2000"
       height="800"
       rx="0"
       id="rect632" />
  </g>
  <g
     transform="translate(-31251.956,-23780.695)"
     style="fill:#840000;fill-opacity:0;stroke:#840000;stroke-width:60;stroke-linecap:round;stroke-linejoin:round;stroke-opacity:1"
     id="g640">
    <path
       inkscape:connector-curvature="0"
       d="m 40000,36500 h 500"
       id="path636" />
    <path
       inkscape:connector-curvature="0"
       d="m 38000,36500 h -500"
       id="path638" />
  </g>
  <g
     transform="translate(-31251.956,-23780.695)"
     style="fill:#008484;fill-opacity:0;stroke:#008484;stroke-width:60;stroke-linecap:round;stroke-linejoin:round;stroke-opacity:1"
     id="g652">
    <path
       inkscape:connector-curvature="0"
       d="m 38410,35740 -160,-240"
       id="path642" />
    <path
       inkscape:connector-curvature="0"
       d="m 38130,35740 v -500 h 190 l 40,30 30,20 20,50 v 70 l -20,50 -30,20 -40,20 h -190"
       id="path644" />
    <path
       inkscape:connector-curvature="0"
       d="m 38600,35290 30,-20 40,-30 h 120 l 50,30 20,20 30,50 v 40 l -30,80 -280,280 h 310"
       id="path646" />
    <path
       inkscape:connector-curvature="0"
       d="m 38850,36240 h -90 l -50,30 -20,20 -50,70 -30,100 v 190 l 30,40 20,30 50,20 h 90 l 50,-20 30,-30 20,-40 v -120 l -20,-50 -30,-20 -50,-30 h -90 l -50,30 -20,20 -30,50"
       id="path648" />
    <path
       inkscape:connector-curvature="0"
       d="m 39190,36460 -50,-30 -30,-20 -20,-50 v -20 l 20,-50 30,-20 50,-30 h 90 l 50,30 20,20 30,50 v 20 l -30,50 -20,20 -50,30 h -90 l -50,20 -30,20 -20,50 v 100 l 20,40 30,30 50,20 h 90 l 50,-20 20,-30 30,-40 v -100 l -30,-50 -20,-20 -50,-20"
       id="path650" />
  </g>
  <g
     transform="translate(-31251.956,-23780.695)"
     style="fill:#840000;fill-opacity:0;stroke:#840000;stroke-width:100;stroke-linecap:round;stroke-linejoin:round;stroke-opacity:1"
     id="g660">
    <rect
       x="38000"
       y="28600"
       width="2000"
       height="800"
       rx="0"
       id="rect658" />
  </g>
  <g
     transform="translate(-31251.956,-23780.695)"
     style="fill:#840000;fill-opacity:0;stroke:#840000;stroke-width:60;stroke-linecap:round;stroke-linejoin:round;stroke-opacity:1"
     id="g666">
    <path
       inkscape:connector-curvature="0"
       d="m 40000,29000 h 500"
       id="path662" />
    <path
       inkscape:connector-curvature="0"
       d="m 38000,29000 h -500"
       id="path664" />
  </g>
  <g
     transform="translate(-31251.956,-23780.695)"
     style="fill:#008484;fill-opacity:0;stroke:#008484;stroke-width:60;stroke-linecap:round;stroke-linejoin:round;stroke-opacity:1"
     id="g680">
    <path
       inkscape:connector-curvature="0"
       d="m 38410,28240 -160,-240"
       id="path668" />
    <path
       inkscape:connector-curvature="0"
       d="m 38130,28240 v -500 h 190 l 40,30 30,20 20,50 v 70 l -20,50 -30,20 -40,20 h -190"
       id="path670" />
    <path
       inkscape:connector-curvature="0"
       d="m 38890,28240 h -290"
       id="path672" />
    <path
       inkscape:connector-curvature="0"
       d="m 38750,28240 v -500 l -50,70 -50,50 -50,20"
       id="path674" />
    <path
       inkscape:connector-curvature="0"
       d="m 38850,28740 h -90 l -50,30 -20,20 -50,70 -30,100 v 190 l 30,40 20,30 50,20 h 90 l 50,-20 30,-30 20,-40 v -120 l -20,-50 -30,-20 -50,-30 h -90 l -50,30 -20,20 -30,50"
       id="path676" />
    <path
       inkscape:connector-curvature="0"
       d="m 39190,28960 -50,-30 -30,-20 -20,-50 v -20 l 20,-50 30,-20 50,-30 h 90 l 50,30 20,20 30,50 v 20 l -30,50 -20,20 -50,30 h -90 l -50,20 -30,20 -20,50 v 100 l 20,40 30,30 50,20 h 90 l 50,-20 20,-30 30,-40 v -100 l -30,-50 -20,-20 -50,-20"
       id="path678" />
  </g>
  <g
     transform="translate(-31251.956,-23780.695)"
     style="fill:#840000;fill-opacity:0;stroke:#840000;stroke-width:200;stroke-linecap:round;stroke-linejoin:round;stroke-opacity:1"
     id="g690">
    <polyline
       fill="none;"
       points="40200,31300 41800,31300 "
       id="polyline686" />
    <polyline
       fill="none;"
       points="40200,30700 41800,30700 "
       id="polyline688" />
  </g>
  <g
     transform="translate(-31251.956,-23780.695)"
     style="fill:#840000;fill-opacity:0;stroke:#840000;stroke-width:60;stroke-linecap:round;stroke-linejoin:round;stroke-opacity:1"
     id="g696">
    <path
       inkscape:connector-curvature="0"
       d="M 41000,30600 V 29500"
       id="path692" />
    <path
       inkscape:connector-curvature="0"
       d="m 41000,31400 v 1100"
       id="path694" />
  </g>
  <g
     transform="translate(-31251.956,-23780.695)"
     style="fill:#008484;fill-opacity:0;stroke:#008484;stroke-width:60;stroke-linecap:round;stroke-linejoin:round;stroke-opacity:1"
     id="g716">
    <path
       inkscape:connector-curvature="0"
       d="m 42580,30730 -20,30 -70,20 h -50 l -70,-20 -50,-50 -20,-50 -30,-90 v -70 l 30,-100 20,-50 50,-40 70,-30 h 50 l 70,30 20,20"
       id="path698" />
    <path
       inkscape:connector-curvature="0"
       d="m 43060,30780 h -290"
       id="path700" />
    <path
       inkscape:connector-curvature="0"
       d="m 42920,30780 v -500 l -50,70 -50,50 -50,20"
       id="path702" />
    <path
       inkscape:connector-curvature="0"
       d="m 42560,31690 h -290"
       id="path704" />
    <path
       inkscape:connector-curvature="0"
       d="m 42410,31690 v -500 l -40,70 -50,50 -50,20"
       id="path706" />
    <path
       inkscape:connector-curvature="0"
       d="m 42870,31190 h 40 l 50,30 20,20 30,50 20,90 v 120 l -20,100 -30,40 -20,30 -50,20 h -40 l -50,-20 -30,-30 -20,-40 -20,-100 v -120 l 20,-90 20,-50 30,-20 50,-30"
       id="path708" />
    <path
       inkscape:connector-curvature="0"
       d="m 43340,31190 h 50 l 50,30 20,20 20,50 30,90 v 120 l -30,100 -20,40 -20,30 -50,20 h -50 l -50,-20 -20,-30 -20,-40 -30,-100 v -120 l 30,-90 20,-50 20,-20 50,-30"
       id="path710" />
    <path
       inkscape:connector-curvature="0"
       d="m 43720,31360 v 330"
       id="path712" />
    <path
       inkscape:connector-curvature="0"
       d="m 43720,31410 30,-30 40,-20 h 80 l 40,20 30,50 v 260"
       id="path714" />
  </g>
  <g
     transform="translate(-31251.956,-23780.695)"
     style="fill:#840000;fill-opacity:0;stroke:#840000;stroke-width:60;stroke-linecap:round;stroke-linejoin:round;stroke-opacity:1"
     id="g738">
    <path
       inkscape:connector-curvature="0"
       d="m 44994.3,41002.5 a 1250,1250 0 0 0 -1987.3,-1.7"
       id="path722" />
    <circle
       cx="43000"
       cy="41500"
       r="350"
       id="circle724" />
    <circle
       cx="45000"
       cy="41500"
       r="350"
       id="circle726" />
    <path
       inkscape:connector-curvature="0"
       d="M 42650,41500 H 41000"
       id="path728" />
    <path
       inkscape:connector-curvature="0"
       d="m 41960,41370 h -290"
       id="path730" />
    <path
       inkscape:connector-curvature="0"
       d="m 41820,41370 v -500 l -50,70 -50,50 -50,20"
       id="path732" />
    <path
       inkscape:connector-curvature="0"
       d="m 45350,41500 h 1650"
       id="path734" />
    <path
       inkscape:connector-curvature="0"
       d="m 46020,40920 30,-20 40,-30 h 120 l 50,30 20,20 30,50 v 40 l -30,80 -280,280 h 310"
       id="path736" />
  </g>
  <g
     transform="translate(-31251.956,-23780.695)"
     style="fill:#008484;fill-opacity:0;stroke:#008484;stroke-width:60;stroke-linecap:round;stroke-linejoin:round;stroke-opacity:1"
     id="g746">
    <path
       inkscape:connector-curvature="0"
       d="m 43580,41740 v 360 l -30,70 -40,50 -70,20 h -50"
       id="path740" />
    <path
       inkscape:connector-curvature="0"
       d="m 43820,42240 v -500 h 190 l 40,30 30,20 20,50 v 70 l -20,50 -30,20 -40,20 h -190"
       id="path742" />
    <path
       inkscape:connector-curvature="0"
       d="m 44290,41790 30,-20 40,-30 h 120 l 50,30 20,20 30,50 v 40 l -30,80 -280,280 h 310"
       id="path744" />
  </g>
  <g
     transform="translate(-31251.956,-23780.695)"
     style="fill:#840000;fill-opacity:0;stroke:#840000;stroke-width:60;stroke-linecap:round;stroke-linejoin:round;stroke-opacity:1"
     id="g768">
    <path
       inkscape:connector-curvature="0"
       d="m 44994.3,33502.5 a 1250,1250 0 0 0 -1987.3,-1.7"
       id="path752" />
    <circle
       cx="43000"
       cy="34000"
       r="350"
       id="circle754" />
    <circle
       cx="45000"
       cy="34000"
       r="350"
       id="circle756" />
    <path
       inkscape:connector-curvature="0"
       d="M 42650,34000 H 41000"
       id="path758" />
    <path
       inkscape:connector-curvature="0"
       d="m 41960,33870 h -290"
       id="path760" />
    <path
       inkscape:connector-curvature="0"
       d="m 41820,33870 v -500 l -50,70 -50,50 -50,20"
       id="path762" />
    <path
       inkscape:connector-curvature="0"
       d="m 45350,34000 h 1650"
       id="path764" />
    <path
       inkscape:connector-curvature="0"
       d="m 46020,33420 30,-20 40,-30 h 120 l 50,30 20,20 30,50 v 40 l -30,80 -280,280 h 310"
       id="path766" />
  </g>
  <g
     transform="translate(-31251.956,-23780.695)"
     style="fill:#008484;fill-opacity:0;stroke:#008484;stroke-width:60;stroke-linecap:round;stroke-linejoin:round;stroke-opacity:1"
     id="g778">
    <path
       inkscape:connector-curvature="0"
       d="m 43580,34240 v 360 l -30,70 -40,50 -70,20 h -50"
       id="path770" />
    <path
       inkscape:connector-curvature="0"
       d="m 43820,34740 v -500 h 190 l 40,30 30,20 20,50 v 70 l -20,50 -30,20 -40,20 h -190"
       id="path772" />
    <path
       inkscape:connector-curvature="0"
       d="m 44580,34740 h -290"
       id="path774" />
    <path
       inkscape:connector-curvature="0"
       d="m 44440,34740 v -500 l -50,70 -50,50 -50,20"
       id="path776" />
  </g>
  <g
     transform="translate(-31251.956,-23780.695)"
     style="fill:#840000;fill-opacity:0;stroke:#840000;stroke-width:80;stroke-linecap:round;stroke-linejoin:round;stroke-opacity:1"
     id="g786">
    <polyline
       fill="none;"
       points="41500,39000 40500,39000 "
       id="polyline784" />
  </g>
  <g
     transform="translate(-31251.956,-23780.695)"
     style="fill:#840000;fill-opacity:0;stroke:#840000;stroke-width:60;stroke-linecap:round;stroke-linejoin:round;stroke-opacity:1"
     id="g790">
    <polyline
       fill="none;"
       points="41000,39000 41000,38000 "
       id="polyline788" />
  </g>
  <g
     transform="translate(-31251.956,-23780.695)"
     style="fill:#840000;fill-opacity:0;stroke:#840000;stroke-width:80;stroke-linecap:round;stroke-linejoin:round;stroke-opacity:1"
     id="g794">
    <polyline
       fill="none;"
       points="41500,38000 40500,38000 41000,39000 41500,38000 "
       id="polyline792" />
  </g>
  <g
     transform="translate(-31251.956,-23780.695)"
     style="fill:#840000;fill-opacity:0;stroke:#840000;stroke-width:60;stroke-linecap:round;stroke-linejoin:round;stroke-opacity:1"
     id="g804">
    <polyline
       fill="none;"
       points="41300,39700 41900,40300 41900,40000 41900,40300 41600,40300 "
       id="polyline796" />
    <polyline
       fill="none;"
       points="41300,39200 41900,39800 41900,39500 41900,39800 41600,39800 "
       id="polyline798" />
    <path
       inkscape:connector-curvature="0"
       d="m 41000,39000 v 1000"
       id="path800" />
    <path
       inkscape:connector-curvature="0"
       d="M 41000,38000 V 37000"
       id="path802" />
  </g>
  <g
     transform="translate(-31251.956,-23780.695)"
     style="fill:#008484;fill-opacity:0;stroke:#008484;stroke-width:60;stroke-linecap:round;stroke-linejoin:round;stroke-opacity:1"
     id="g814">
    <path
       inkscape:connector-curvature="0"
       d="m 41880,38690 h -230 v -500"
       id="path806" />
    <path
       inkscape:connector-curvature="0"
       d="m 42050,38430 h 170"
       id="path808" />
    <path
       inkscape:connector-curvature="0"
       d="m 42290,38690 h -240 v -500 h 240"
       id="path810" />
    <path
       inkscape:connector-curvature="0"
       d="m 42500,38690 v -500 h 120 l 70,30 50,40 20,50 30,100 v 70 l -30,90 -20,50 -50,50 -70,20 h -120"
       id="path812" />
  </g>
  <g
     transform="translate(-31251.956,-23780.695)"
     style="fill:#840000;fill-opacity:0;stroke:#840000;stroke-width:60;stroke-linecap:round;stroke-linejoin:round;stroke-opacity:1"
     id="g822">
    <polyline
       fill="none;"
       points="47000,43000 47000,43500 47500,43500 47000,44000 46500,43500 47000,43500 "
       id="polyline820" />
  </g>
  <g
     transform="translate(-31251.956,-23780.695)"
     style="fill:#008484;fill-opacity:0;stroke:#008484;stroke-width:60;stroke-linecap:round;stroke-linejoin:round;stroke-opacity:1"
     id="g830">
    <path
       inkscape:connector-curvature="0"
       d="m 46660,44500 -40,-30 h -70 l -80,30 -40,40 -30,50 -20,100 v 70 l 20,90 30,50 40,50 80,20 h 40 l 70,-20 30,-30 v -160 h -100"
       id="path824" />
    <path
       inkscape:connector-curvature="0"
       d="m 46900,44970 v -500 l 290,500 v -500"
       id="path826" />
    <path
       inkscape:connector-curvature="0"
       d="m 47430,44970 v -500 h 120 l 70,30 40,40 30,50 20,100 v 70 l -20,90 -30,50 -40,50 -70,20 h -120"
       id="path828" />
  </g>
  <g
     transform="translate(-31251.956,-23780.695)"
     style="fill:#840000;fill-opacity:1;stroke:#840000;stroke-width:60;stroke-linecap:round;stroke-linejoin:round;stroke-opacity:1"
     id="g840">
    <rect
       x="34500"
       y="42950"
       width="340"
       height="100"
       rx="0"
       id="rect836" />
    <rect
       x="34500"
       y="41950"
       width="340"
       height="100"
       rx="0"
       id="rect838" />
  </g>
  <g
     transform="translate(-31251.956,-23780.695)"
     style="fill:#840000;fill-opacity:0;stroke:#840000;stroke-width:60;stroke-linecap:round;stroke-linejoin:round;stroke-opacity:1"
     id="g856">
    <polyline
       fill="none;"
       points="35000,43000 34840,43000 "
       id="polyline842" />
    <polyline
       fill="none;"
       points="35000,42000 34840,42000 "
       id="polyline844" />
    <path
       inkscape:connector-curvature="0"
       d="m 35000,42000 h 1500"
       id="path846" />
    <path
       inkscape:connector-curvature="0"
       d="m 35890,41870 h -290"
       id="path848" />
    <path
       inkscape:connector-curvature="0"
       d="m 35750,41870 v -500 l -50,70 -50,50 -50,20"
       id="path850" />
    <path
       inkscape:connector-curvature="0"
       d="m 35000,43000 h 1500"
       id="path852" />
    <path
       inkscape:connector-curvature="0"
       d="m 35600,42420 30,-20 40,-30 h 120 l 50,30 20,20 30,50 v 40 l -30,80 -280,280 h 310"
       id="path854" />
  </g>
  <g
     transform="translate(-31251.956,-23780.695)"
     style="fill:#008484;fill-opacity:0;stroke:#008484;stroke-width:60;stroke-linecap:round;stroke-linejoin:round;stroke-opacity:1"
     id="g864">
    <path
       inkscape:connector-curvature="0"
       d="m 33830,42240 v 360 l -30,70 -40,50 -70,20 h -50"
       id="path858" />
    <path
       inkscape:connector-curvature="0"
       d="m 34330,42740 h -290"
       id="path860" />
    <path
       inkscape:connector-curvature="0"
       d="m 34190,42740 v -500 l -50,70 -50,50 -50,20"
       id="path862" />
  </g>
  <g
     transform="translate(-31251.956,-23780.695)"
     style="fill:#008400;fill-opacity:0;stroke:#008400;stroke-width:60;stroke-linecap:round;stroke-linejoin:round;stroke-opacity:1"
     id="g886">
    <path
       inkscape:connector-curvature="0"
       d="m 40500,36500 h 500"
       id="path866" />
    <path
       inkscape:connector-curvature="0"
       d="m 41000,36500 v 500"
       id="path868" />
    <path
       inkscape:connector-curvature="0"
       d="m 41000,40000 v 1500"
       id="path870" />
    <path
       inkscape:connector-curvature="0"
       d="m 41000,32500 v 1500"
       id="path872" />
    <path
       inkscape:connector-curvature="0"
       d="m 40500,29000 h 500"
       id="path874" />
    <path
       inkscape:connector-curvature="0"
       d="m 41000,29000 v 500"
       id="path876" />
    <path
       inkscape:connector-curvature="0"
       d="M 36500,36500 V 29000"
       id="path878" />
    <path
       inkscape:connector-curvature="0"
       d="m 36500,29000 h 1000"
       id="path880" />
    <path
       inkscape:connector-curvature="0"
       d="m 36500,36500 h 1000"
       id="path882" />
    <path
       inkscape:connector-curvature="0"
       d="m 47000,34000 v 7500"
       id="path884" />
  </g>
  <g
     transform="translate(-31251.956,-23780.695)"
     style="fill:#840000;fill-opacity:0;stroke:#840000;stroke-width:60;stroke-linecap:round;stroke-linejoin:round;stroke-opacity:1"
     id="g896">
    <circle
       cx="41000"
       cy="27700"
       r="300"
       id="circle892" />
    <path
       inkscape:connector-curvature="0"
       d="m 41000,28000 v 1000"
       id="path894" />
  </g>
  <g
     transform="translate(-31251.956,-23780.695)"
     style="fill:#008484;fill-opacity:0;stroke:#008484;stroke-width:60;stroke-linecap:round;stroke-linejoin:round;stroke-opacity:1"
     id="g926">
    <path
       inkscape:connector-curvature="0"
       d="m 41650,28000 h 280"
       id="path898" />
    <path
       inkscape:connector-curvature="0"
       d="m 41790,28500 v -500"
       id="path900" />
    <path
       inkscape:connector-curvature="0"
       d="m 42290,28480 -50,20 h -90 l -50,-20 -20,-50 v -190 l 20,-50 50,-20 h 90 l 50,20 30,50 v 50 l -240,40"
       id="path902" />
    <path
       inkscape:connector-curvature="0"
       d="m 42510,28480 40,20 h 100 l 50,-20 20,-50 v -20 l -20,-50 -50,-30 h -70 l -50,-20 -20,-50 v -20 l 20,-50 50,-20 h 70 l 50,20"
       id="path904" />
    <path
       inkscape:connector-curvature="0"
       d="m 42860,28170 h 190"
       id="path906" />
    <path
       inkscape:connector-curvature="0"
       d="m 42930,28000 v 430 l 30,50 50,20 h 40"
       id="path908" />
    <path
       inkscape:connector-curvature="0"
       d="m 43220,28500 v -500 h 190 l 50,30 20,20 30,50 v 70 l -30,50 -20,20 -50,20 h -190"
       id="path910" />
    <path
       inkscape:connector-curvature="0"
       d="m 43790,28500 -50,-20 -20,-30 -20,-40 v -150 l 20,-40 20,-30 50,-20 h 70 l 50,20 20,30 30,40 v 150 l -30,40 -20,30 -50,20 h -70"
       id="path912" />
    <path
       inkscape:connector-curvature="0"
       d="m 44170,28500 v -330"
       id="path914" />
    <path
       inkscape:connector-curvature="0"
       d="m 44170,28000 -20,30 20,20 30,-20 -30,-30 v 50"
       id="path916" />
    <path
       inkscape:connector-curvature="0"
       d="m 44410,28170 v 330"
       id="path918" />
    <path
       inkscape:connector-curvature="0"
       d="m 44410,28220 20,-30 50,-20 h 70 l 50,20 20,50 v 260"
       id="path920" />
    <path
       inkscape:connector-curvature="0"
       d="m 44790,28170 h 190"
       id="path922" />
    <path
       inkscape:connector-curvature="0"
       d="m 44860,28000 v 430 l 30,50 40,20 h 50"
       id="path924" />
  </g>
  <g
     transform="translate(-31251.956,-23780.695)"
     style="fill:#008400;fill-opacity:1;stroke:#008400;stroke-width:100;stroke-linecap:round;stroke-linejoin:round;stroke-opacity:1"
     id="g934">
    <circle
       cx="41000"
       cy="29000"
       r="200"
       id="circle932" />
  </g>
  <g
     transform="translate(-31251.956,-23780.695)"
     style="fill:#008400;fill-opacity:0;stroke:#008400;stroke-width:60;stroke-linecap:round;stroke-linejoin:round;stroke-opacity:1"
     id="g940">
    <path
       inkscape:connector-curvature="0"
       d="M 47000,43000 V 41500"
       id="path938" />
  </g>
  <g
     transform="translate(-31251.956,-23780.695)"
     style="fill:#008400;fill-opacity:1;stroke:#008400;stroke-width:100;stroke-linecap:round;stroke-linejoin:round;stroke-opacity:1"
     id="g946">
    <circle
       cx="47000"
       cy="41500"
       r="200"
       id="circle944" />
  </g>
  <g
     transform="translate(-31251.956,-23780.695)"
     style="fill:#008400;fill-opacity:0;stroke:#008400;stroke-width:60;stroke-linecap:round;stroke-linejoin:round;stroke-opacity:1"
     id="g952">
    <path
       inkscape:connector-curvature="0"
       d="M 36500,43000 H 47000"
       id="path950" />
  </g>
  <g
     transform="translate(-31251.956,-23780.695)"
     style="fill:#008400;fill-opacity:1;stroke:#008400;stroke-width:100;stroke-linecap:round;stroke-linejoin:round;stroke-opacity:1"
     id="g958">
    <circle
       cx="47000"
       cy="43000"
       r="200"
       id="circle956" />
  </g>
  <g
     transform="translate(-31251.956,-23780.695)"
     style="fill:#008400;fill-opacity:0;stroke:#008400;stroke-width:60;stroke-linecap:round;stroke-linejoin:round;stroke-opacity:1"
     id="g964">
    <path
       inkscape:connector-curvature="0"
       d="M 36500,42000 V 36500"
       id="path962" />
  </g>
  <g
     transform="translate(-31251.956,-23780.695)"
     style="fill:#008400;fill-opacity:1;stroke:#008400;stroke-width:100;stroke-linecap:round;stroke-linejoin:round;stroke-opacity:1"
     id="g970">
    <circle
       cx="36500"
       cy="36500"
       r="200"
       id="circle968" />
  </g>
</svg>
