<?xml version="1.0" encoding="UTF-8" standalone="no"?>
<!-- Created with Inkscape (http://www.inkscape.org/) -->

<svg
   xmlns:dc="http://purl.org/dc/elements/1.1/"
   xmlns:cc="http://creativecommons.org/ns#"
   xmlns:rdf="http://www.w3.org/1999/02/22-rdf-syntax-ns#"
   xmlns:svg="http://www.w3.org/2000/svg"
   xmlns="http://www.w3.org/2000/svg"
   xmlns:sodipodi="http://sodipodi.sourceforge.net/DTD/sodipodi-0.dtd"
   xmlns:inkscape="http://www.inkscape.org/namespaces/inkscape"
   width="210mm"
   height="297mm"
   viewBox="0 0 210 297"
   version="1.1"
   id="svg8"
   inkscape:version="0.92.3 (2405546, 2018-03-11)"
   sodipodi:docname="logdropWindow_design.svg">
  <defs
     id="defs2">
    <marker
       inkscape:isstock="true"
       style="overflow:visible"
       id="marker2504"
       refX="0.0"
       refY="0.0"
       orient="auto"
       inkscape:stockid="DotS">
      <path
         transform="scale(0.2) translate(7.4, 1)"
         style="fill-rule:evenodd;stroke:#000000;stroke-width:1pt;stroke-opacity:1;fill:#000000;fill-opacity:1"
         d="M -2.5,-1.0 C -2.5,1.7600000 -4.7400000,4.0 -7.5,4.0 C -10.260000,4.0 -12.5,1.7600000 -12.5,-1.0 C -12.5,-3.7600000 -10.260000,-6.0 -7.5,-6.0 C -4.7400000,-6.0 -2.5,-3.7600000 -2.5,-1.0 z "
         id="path2502" />
    </marker>
    <marker
       inkscape:isstock="true"
       style="overflow:visible"
       id="marker2452"
       refX="0.0"
       refY="0.0"
       orient="auto"
       inkscape:stockid="DotS">
      <path
         transform="scale(0.2) translate(7.4, 1)"
         style="fill-rule:evenodd;stroke:#000000;stroke-width:1pt;stroke-opacity:1;fill:#000000;fill-opacity:1"
         d="M -2.5,-1.0 C -2.5,1.7600000 -4.7400000,4.0 -7.5,4.0 C -10.260000,4.0 -12.5,1.7600000 -12.5,-1.0 C -12.5,-3.7600000 -10.260000,-6.0 -7.5,-6.0 C -4.7400000,-6.0 -2.5,-3.7600000 -2.5,-1.0 z "
         id="path2450" />
    </marker>
    <marker
       inkscape:isstock="true"
       style="overflow:visible"
       id="marker2442"
       refX="0.0"
       refY="0.0"
       orient="auto"
       inkscape:stockid="DotS">
      <path
         transform="scale(0.2) translate(7.4, 1)"
         style="fill-rule:evenodd;stroke:#000000;stroke-width:1pt;stroke-opacity:1;fill:#000000;fill-opacity:1"
         d="M -2.5,-1.0 C -2.5,1.7600000 -4.7400000,4.0 -7.5,4.0 C -10.260000,4.0 -12.5,1.7600000 -12.5,-1.0 C -12.5,-3.7600000 -10.260000,-6.0 -7.5,-6.0 C -4.7400000,-6.0 -2.5,-3.7600000 -2.5,-1.0 z "
         id="path2440" />
    </marker>
    <marker
       inkscape:isstock="true"
       style="overflow:visible"
       id="marker2396"
       refX="0.0"
       refY="0.0"
       orient="auto"
       inkscape:stockid="DotS">
      <path
         transform="scale(0.2) translate(7.4, 1)"
         style="fill-rule:evenodd;stroke:#000000;stroke-width:1pt;stroke-opacity:1;fill:#000000;fill-opacity:1"
         d="M -2.5,-1.0 C -2.5,1.7600000 -4.7400000,4.0 -7.5,4.0 C -10.260000,4.0 -12.5,1.7600000 -12.5,-1.0 C -12.5,-3.7600000 -10.260000,-6.0 -7.5,-6.0 C -4.7400000,-6.0 -2.5,-3.7600000 -2.5,-1.0 z "
         id="path2394" />
    </marker>
    <marker
       inkscape:stockid="DotS"
       orient="auto"
       refY="0.0"
       refX="0.0"
       id="DotS"
       style="overflow:visible"
       inkscape:isstock="true"
       inkscape:collect="always">
      <path
         id="path2045"
         d="M -2.5,-1.0 C -2.5,1.7600000 -4.7400000,4.0 -7.5,4.0 C -10.260000,4.0 -12.5,1.7600000 -12.5,-1.0 C -12.5,-3.7600000 -10.260000,-6.0 -7.5,-6.0 C -4.7400000,-6.0 -2.5,-3.7600000 -2.5,-1.0 z "
         style="fill-rule:evenodd;stroke:#000000;stroke-width:1pt;stroke-opacity:1;fill:#000000;fill-opacity:1"
         transform="scale(0.2) translate(7.4, 1)" />
    </marker>
    <marker
       inkscape:isstock="true"
       style="overflow:visible"
       id="marker2312"
       refX="0.0"
       refY="0.0"
       orient="auto"
       inkscape:stockid="DotM">
      <path
         transform="scale(0.4) translate(7.4, 1)"
         style="fill-rule:evenodd;stroke:#000000;stroke-width:1pt;stroke-opacity:1;fill:#000000;fill-opacity:1"
         d="M -2.5,-1.0 C -2.5,1.7600000 -4.7400000,4.0 -7.5,4.0 C -10.260000,4.0 -12.5,1.7600000 -12.5,-1.0 C -12.5,-3.7600000 -10.260000,-6.0 -7.5,-6.0 C -4.7400000,-6.0 -2.5,-3.7600000 -2.5,-1.0 z "
         id="path2310" />
    </marker>
    <marker
       inkscape:isstock="true"
       style="overflow:visible"
       id="marker2284"
       refX="0.0"
       refY="0.0"
       orient="auto"
       inkscape:stockid="DotM">
      <path
         transform="scale(0.4) translate(7.4, 1)"
         style="fill-rule:evenodd;stroke:#000000;stroke-width:1pt;stroke-opacity:1;fill:#000000;fill-opacity:1"
         d="M -2.5,-1.0 C -2.5,1.7600000 -4.7400000,4.0 -7.5,4.0 C -10.260000,4.0 -12.5,1.7600000 -12.5,-1.0 C -12.5,-3.7600000 -10.260000,-6.0 -7.5,-6.0 C -4.7400000,-6.0 -2.5,-3.7600000 -2.5,-1.0 z "
         id="path2282" />
    </marker>
    <marker
       inkscape:isstock="true"
       style="overflow:visible"
       id="marker2262"
       refX="0.0"
       refY="0.0"
       orient="auto"
       inkscape:stockid="DotM">
      <path
         transform="scale(0.4) translate(7.4, 1)"
         style="fill-rule:evenodd;stroke:#000000;stroke-width:1pt;stroke-opacity:1;fill:#000000;fill-opacity:1"
         d="M -2.5,-1.0 C -2.5,1.7600000 -4.7400000,4.0 -7.5,4.0 C -10.260000,4.0 -12.5,1.7600000 -12.5,-1.0 C -12.5,-3.7600000 -10.260000,-6.0 -7.5,-6.0 C -4.7400000,-6.0 -2.5,-3.7600000 -2.5,-1.0 z "
         id="path2260" />
    </marker>
  </defs>
  <sodipodi:namedview
     id="base"
     pagecolor="#ffffff"
     bordercolor="#666666"
     borderopacity="1.0"
     inkscape:pageopacity="0.0"
     inkscape:pageshadow="2"
     inkscape:zoom="2.5090818"
     inkscape:cx="180.84905"
     inkscape:cy="978.89308"
     inkscape:document-units="mm"
     inkscape:current-layer="layer1"
     showgrid="true"
     inkscape:window-width="1853"
     inkscape:window-height="1025"
     inkscape:window-x="67"
     inkscape:window-y="27"
     inkscape:window-maximized="1"
     inkscape:snap-smooth-nodes="true"
     inkscape:snap-bbox="true"
     inkscape:bbox-nodes="false"
     inkscape:snap-bbox-midpoints="true">
    <inkscape:grid
       type="xygrid"
       id="grid10"
       units="mm"
       spacingx="1"
       spacingy="1" />
  </sodipodi:namedview>
  <metadata
     id="metadata5">
    <rdf:RDF>
      <cc:Work
         rdf:about="">
        <dc:format>image/svg+xml</dc:format>
        <dc:type
           rdf:resource="http://purl.org/dc/dcmitype/StillImage" />
        <dc:title></dc:title>
      </cc:Work>
    </rdf:RDF>
  </metadata>
  <g
     inkscape:label="Layer 1"
     inkscape:groupmode="layer"
     id="layer1">
    <path
       style="fill:none;fill-opacity:1;fill-rule:nonzero;stroke:#000000;stroke-width:0.26499999;stroke-linecap:round;stroke-linejoin:miter;stroke-miterlimit:4;stroke-dasharray:none;stroke-dashoffset:0;stroke-opacity:1"
       d="m 36.00016,52.00029 a 2.9627356,2.973179 0 0 0 -2.95888,2.89832 2.9627356,2.973179 0 0 0 -0.0824,-0.004 2.9627356,2.973179 0 0 0 -2.96256,2.97299 2.9627356,2.973179 0 0 0 2.96256,2.97332 2.9627356,2.973179 0 0 0 0.0815,-0.003 2.9627356,2.973179 0 0 0 2.9598,2.8971 2.9627356,2.973179 0 0 0 1.4009,-0.35645 2.9627356,2.973179 0 0 0 1.40488,0.35645 2.9627356,2.973179 0 0 0 2.96286,-2.973011 2.9627356,2.973179 0 0 0 2.96255,-2.9733 2.9627356,2.973179 0 0 0 -2.96255,-2.9733 2.9627356,2.973179 0 0 0 -0.006,2.65e-4 A 2.9627356,2.973179 0 0 0 38.80578,52 2.9627356,2.973179 0 0 0 37.40457,52.35614 2.9627356,2.973179 0 0 0 36,52 Z"
       id="path15294-43-0-5-5-8"
       inkscape:connector-curvature="0" />
    <text
       xml:space="preserve"
       style="font-style:normal;font-variant:normal;font-weight:normal;font-stretch:normal;font-size:4.23333311px;line-height:1.25;font-family:'Ubuntu Mono';-inkscape-font-specification:'Ubuntu Mono';letter-spacing:0px;word-spacing:0px;fill:#000000;fill-opacity:1;stroke:none;stroke-width:0.26458332"
       x="32.794182"
       y="59.310215"
       id="text775"><tspan
         sodipodi:role="line"
         id="tspan773"
         x="32.794182"
         y="59.310215"
         style="font-style:normal;font-variant:normal;font-weight:normal;font-stretch:normal;font-size:4.23333311px;font-family:'Ubuntu Mono';-inkscape-font-specification:'Ubuntu Mono';stroke-width:0.26458332">&gt;&gt; 1</tspan></text>
    <path
       style="fill:none;fill-opacity:1;fill-rule:nonzero;stroke:#000000;stroke-width:0.26499999;stroke-linecap:round;stroke-linejoin:miter;stroke-miterlimit:4;stroke-dasharray:none;stroke-dashoffset:0;stroke-opacity:1"
       d="m 36.00016,65.00029 a 2.9627356,2.973179 0 0 0 -2.95888,2.89832 2.9627356,2.973179 0 0 0 -0.0824,-0.004 2.9627356,2.973179 0 0 0 -2.96256,2.97299 2.9627356,2.973179 0 0 0 2.96256,2.97332 2.9627356,2.973179 0 0 0 0.0815,-0.003 2.9627356,2.973179 0 0 0 2.9598,2.8971 2.9627356,2.973179 0 0 0 1.4009,-0.35645 2.9627356,2.973179 0 0 0 1.40488,0.35645 2.9627356,2.973179 0 0 0 2.96286,-2.973011 2.9627356,2.973179 0 0 0 2.96255,-2.9733 2.9627356,2.973179 0 0 0 -2.96255,-2.9733 2.9627356,2.973179 0 0 0 -0.006,2.65e-4 A 2.9627356,2.973179 0 0 0 38.80578,65 2.9627356,2.973179 0 0 0 37.40457,65.35614 2.9627356,2.973179 0 0 0 36,65 Z"
       id="path15294-43-0-5-5-8-6"
       inkscape:connector-curvature="0" />
    <text
       xml:space="preserve"
       style="font-style:normal;font-variant:normal;font-weight:normal;font-stretch:normal;font-size:4.23333311px;line-height:1.25;font-family:'Ubuntu Mono';-inkscape-font-specification:'Ubuntu Mono';letter-spacing:0px;word-spacing:0px;fill:#000000;fill-opacity:1;stroke:none;stroke-width:0.26458332"
       x="32.779366"
       y="72.339851"
       id="text775-7"><tspan
         sodipodi:role="line"
         id="tspan773-5"
         x="32.779366"
         y="72.339851"
         style="font-style:normal;font-variant:normal;font-weight:normal;font-stretch:normal;font-size:4.23333311px;font-family:'Ubuntu Mono';-inkscape-font-specification:'Ubuntu Mono';stroke-width:0.26458332">&gt;&gt; 2</tspan></text>
    <path
       style="fill:none;fill-opacity:1;fill-rule:nonzero;stroke:#000000;stroke-width:0.26499999;stroke-linecap:round;stroke-linejoin:miter;stroke-miterlimit:4;stroke-dasharray:none;stroke-dashoffset:0;stroke-opacity:1"
       d="m 36.00016,78.00029 a 2.9627356,2.973179 0 0 0 -2.95888,2.89832 2.9627356,2.973179 0 0 0 -0.0824,-0.004 2.9627356,2.973179 0 0 0 -2.96256,2.97299 2.9627356,2.973179 0 0 0 2.96256,2.97332 2.9627356,2.973179 0 0 0 0.0815,-0.003 2.9627356,2.973179 0 0 0 2.9598,2.8971 2.9627356,2.973179 0 0 0 1.4009,-0.35645 2.9627356,2.973179 0 0 0 1.40488,0.35645 2.9627356,2.973179 0 0 0 2.96286,-2.973011 2.9627356,2.973179 0 0 0 2.96255,-2.9733 2.9627356,2.973179 0 0 0 -2.96255,-2.9733 2.9627356,2.973179 0 0 0 -0.006,2.65e-4 A 2.9627356,2.973179 0 0 0 38.80578,78 2.9627356,2.973179 0 0 0 37.40457,78.35614 2.9627356,2.973179 0 0 0 36,78 Z"
       id="path15294-43-0-5-5-8-62"
       inkscape:connector-curvature="0" />
    <text
       xml:space="preserve"
       style="font-style:normal;font-variant:normal;font-weight:normal;font-stretch:normal;font-size:4.23333311px;line-height:1.25;font-family:'Ubuntu Mono';-inkscape-font-specification:'Ubuntu Mono';letter-spacing:0px;word-spacing:0px;fill:#000000;fill-opacity:1;stroke:none;stroke-width:0.26458332"
       x="32.785717"
       y="85.312332"
       id="text775-9"><tspan
         sodipodi:role="line"
         id="tspan773-1"
         x="32.785717"
         y="85.312332"
         style="font-style:normal;font-variant:normal;font-weight:normal;font-stretch:normal;font-size:4.23333311px;font-family:'Ubuntu Mono';-inkscape-font-specification:'Ubuntu Mono';stroke-width:0.26458332">&gt;&gt; 3</tspan></text>
    <path
       style="fill:none;fill-opacity:1;fill-rule:nonzero;stroke:#000000;stroke-width:0.26499999;stroke-linecap:round;stroke-linejoin:miter;stroke-miterlimit:4;stroke-dasharray:none;stroke-dashoffset:0;stroke-opacity:1"
       d="m 36.00016,91.00029 a 2.9627356,2.973179 0 0 0 -2.95888,2.89832 2.9627356,2.973179 0 0 0 -0.0824,-0.004 2.9627356,2.973179 0 0 0 -2.96256,2.97299 2.9627356,2.973179 0 0 0 2.96256,2.97332 2.9627356,2.973179 0 0 0 0.0815,-0.003 2.9627356,2.973179 0 0 0 2.9598,2.8971 2.9627356,2.973179 0 0 0 1.4009,-0.35645 2.9627356,2.973179 0 0 0 1.40488,0.35645 2.9627356,2.973179 0 0 0 2.96286,-2.973011 2.9627356,2.973179 0 0 0 2.96255,-2.9733 2.9627356,2.973179 0 0 0 -2.96255,-2.9733 2.9627356,2.973179 0 0 0 -0.006,2.65e-4 A 2.9627356,2.973179 0 0 0 38.80578,91 2.9627356,2.973179 0 0 0 37.40457,91.35614 2.9627356,2.973179 0 0 0 36,91 Z"
       id="path15294-43-0-5-5-8-7"
       inkscape:connector-curvature="0" />
    <text
       xml:space="preserve"
       style="font-style:normal;font-variant:normal;font-weight:normal;font-stretch:normal;font-size:4.23333311px;line-height:1.25;font-family:'Ubuntu Mono';-inkscape-font-specification:'Ubuntu Mono';letter-spacing:0px;word-spacing:0px;fill:#000000;fill-opacity:1;stroke:none;stroke-width:0.26458332"
       x="32.734917"
       y="98.310219"
       id="text775-0"><tspan
         sodipodi:role="line"
         id="tspan773-9"
         x="32.734917"
         y="98.310219"
         style="font-style:normal;font-variant:normal;font-weight:normal;font-stretch:normal;font-size:4.23333311px;font-family:'Ubuntu Mono';-inkscape-font-specification:'Ubuntu Mono';stroke-width:0.26458332">&gt;&gt; 4</tspan></text>
    <path
       style="fill:none;stroke:#000000;stroke-width:0.265;stroke-linecap:butt;stroke-linejoin:miter;stroke-opacity:1;stroke-miterlimit:4;stroke-dasharray:none;marker-start:url(#marker2452)"
       d="m 25,47 v 50 h 5"
       id="path830"
       inkscape:connector-curvature="0" />
    <path
       style="fill:none;stroke:#000000;stroke-width:0.265;stroke-linecap:butt;stroke-linejoin:miter;stroke-opacity:1;stroke-miterlimit:4;stroke-dasharray:none;marker-start:url(#DotS)"
       d="m 25,84 h 5"
       id="path832"
       inkscape:connector-curvature="0" />
    <path
       style="fill:none;stroke:#000000;stroke-width:0.265;stroke-linecap:butt;stroke-linejoin:miter;stroke-opacity:1;stroke-miterlimit:4;stroke-dasharray:none;marker-start:url(#marker2396)"
       d="m 25,70.999999 h 5"
       id="path834"
       inkscape:connector-curvature="0" />
    <path
       style="fill:none;stroke:#000000;stroke-width:0.265;stroke-linecap:butt;stroke-linejoin:miter;stroke-opacity:1;stroke-miterlimit:4;stroke-dasharray:none;marker-start:url(#marker2442)"
       d="m 25,58 h 5"
       id="path836"
       inkscape:connector-curvature="0"
       sodipodi:nodetypes="cc" />
    <path
       style="fill:none;stroke:#000000;stroke-width:0.26458332px;stroke-linecap:butt;stroke-linejoin:miter;stroke-opacity:1"
       d="M 15,47 H 59.999999"
       id="path838"
       inkscape:connector-curvature="0" />
    <path
       style="fill:none;stroke:#000000;stroke-width:0.26458332px;stroke-linecap:butt;stroke-linejoin:miter;stroke-opacity:1"
       d="M 45,57.999999 50,58 v -9 l 9.999999,-10e-7"
       id="path840"
       inkscape:connector-curvature="0"
       sodipodi:nodetypes="cccc" />
    <path
       style="fill:none;stroke:#000000;stroke-width:0.26458332px;stroke-linecap:butt;stroke-linejoin:miter;stroke-opacity:1"
       d="M 45,70.999999 52,71 V 51 h 7.999999"
       id="path842"
       inkscape:connector-curvature="0"
       sodipodi:nodetypes="cccc" />
    <path
       style="fill:none;stroke:#000000;stroke-width:0.26458332px;stroke-linecap:butt;stroke-linejoin:miter;stroke-opacity:1"
       d="m 45,84 h 9 V 53 h 6"
       id="path844"
       inkscape:connector-curvature="0"
       sodipodi:nodetypes="cccc" />
    <path
       style="fill:none;stroke:#000000;stroke-width:0.26458332px;stroke-linecap:butt;stroke-linejoin:miter;stroke-opacity:1"
       d="M 45,97 H 56 V 55 h 4"
       id="path846"
       inkscape:connector-curvature="0"
       sodipodi:nodetypes="cccc" />
    <path
       style="fill:none;stroke:#000000;stroke-width:0.26458332px;stroke-linecap:butt;stroke-linejoin:miter;stroke-opacity:1"
       d="m 64.999999,52.999999 -5,5 L 60,44 l 5,5 z"
       id="path848"
       inkscape:connector-curvature="0"
       sodipodi:nodetypes="ccccc" />
    <path
       style="fill:none;stroke:#000000;stroke-width:0.26458332px;stroke-linecap:butt;stroke-linejoin:miter;stroke-opacity:1"
       d="m 65,51 5,0"
       id="path850"
       inkscape:connector-curvature="0"
       sodipodi:nodetypes="cc" />
    <path
       style="fill:none;fill-opacity:1;fill-rule:nonzero;stroke:#000000;stroke-width:0.26499999;stroke-linecap:round;stroke-linejoin:miter;stroke-miterlimit:4;stroke-dasharray:none;stroke-dashoffset:0;stroke-opacity:1"
       d="m 48.95978,29.16237 a 2.9627356,2.973179 0 0 0 -2.95888,2.89832 2.9627356,2.973179 0 0 0 -0.0824,-0.004 2.9627356,2.973179 0 0 0 -2.96256,2.97299 A 2.9627356,2.973179 0 0 0 45.9185,38.003 2.9627356,2.973179 0 0 0 46,38 a 2.9627356,2.973179 0 0 0 2.9598,2.8971 2.9627356,2.973179 0 0 0 1.4009,-0.35645 2.9627356,2.973179 0 0 0 1.40488,0.35645 2.9627356,2.973179 0 0 0 2.96286,-2.973011 2.9627356,2.973179 0 0 0 2.96255,-2.9733 2.9627356,2.973179 0 0 0 -2.96255,-2.9733 2.9627356,2.973179 0 0 0 -0.006,2.65e-4 2.9627356,2.973179 0 0 0 -2.95704,-2.815674 2.9627356,2.973179 0 0 0 -1.40121,0.35614 2.9627356,2.973179 0 0 0 -1.40457,-0.35614 z"
       id="path15294-43-0-5-5-8-0"
       inkscape:connector-curvature="0" />
    <text
       xml:space="preserve"
       style="font-style:normal;font-variant:normal;font-weight:normal;font-stretch:normal;font-size:3.52777767px;line-height:1.25;font-family:'Ubuntu Mono';-inkscape-font-specification:'Ubuntu Mono';text-align:center;letter-spacing:0px;word-spacing:0px;text-anchor:middle;fill:#000000;fill-opacity:1;stroke:none;stroke-width:0.26458332"
       x="71.015877"
       y="17.791487"
       id="text775-6"><tspan
         sodipodi:role="line"
         id="tspan773-2"
         x="71.015877"
         y="17.791487"
         style="font-style:normal;font-variant:normal;font-weight:normal;font-stretch:normal;font-size:3.52777767px;font-family:'Ubuntu Mono';-inkscape-font-specification:'Ubuntu Mono';text-align:center;text-anchor:middle;stroke-width:0.26458332">Index of</tspan><tspan
         sodipodi:role="line"
         x="71.015877"
         y="22.201208"
         style="font-style:normal;font-variant:normal;font-weight:normal;font-stretch:normal;font-size:3.52777767px;font-family:'Ubuntu Mono';-inkscape-font-specification:'Ubuntu Mono';text-align:center;text-anchor:middle;stroke-width:0.26458332"
         id="tspan1018">most significant</tspan><tspan
         sodipodi:role="line"
         x="71.015877"
         y="26.610931"
         style="font-style:normal;font-variant:normal;font-weight:normal;font-stretch:normal;font-size:3.52777767px;font-family:'Ubuntu Mono';-inkscape-font-specification:'Ubuntu Mono';text-align:center;text-anchor:middle;stroke-width:0.26458332"
         id="tspan1024">set bit.</tspan></text>
    <path
       style="fill:none;stroke:#000000;stroke-width:0.26458332px;stroke-linecap:butt;stroke-linejoin:miter;stroke-opacity:1"
       d="m 38,37 -5,5 10e-7,-13.999999 5.000001,5.000001 z"
       id="path848-6"
       inkscape:connector-curvature="0"
       sodipodi:nodetypes="ccccc" />
    <path
       style="fill:none;stroke:#000000;stroke-width:0.26458332px;stroke-linecap:butt;stroke-linejoin:miter;stroke-opacity:1"
       d="m 38,35 h 5"
       id="path913"
       inkscape:connector-curvature="0" />
    <path
       style="fill:none;stroke:#000000;stroke-width:0.26458332px;stroke-linecap:butt;stroke-linejoin:miter;stroke-opacity:1"
       d="m 58,35 h 5 v 12"
       id="path915"
       inkscape:connector-curvature="0"
       sodipodi:nodetypes="ccc" />
    <path
       style="fill:none;stroke:#000000;stroke-width:0.26458332px;stroke-linecap:butt;stroke-linejoin:miter;stroke-opacity:1"
       d="M 23,38 H 33"
       id="path917"
       inkscape:connector-curvature="0"
       sodipodi:nodetypes="cc" />
    <circle
       style="fill:none;fill-opacity:1;stroke:#000000;stroke-width:0.26499999;stroke-miterlimit:4;stroke-dasharray:none;stroke-opacity:1"
       id="path919"
       cx="32"
       cy="31.999998"
       r="1" />
    <path
       style="fill:none;stroke:#000000;stroke-width:0.26458332px;stroke-linecap:butt;stroke-linejoin:miter;stroke-opacity:1;marker-start:url(#marker2504)"
       d="m 28,38 v -6.000001 h 3"
       id="path921"
       inkscape:connector-curvature="0" />
    <text
       xml:space="preserve"
       style="font-style:normal;font-variant:normal;font-weight:normal;font-stretch:normal;font-size:2.82222223px;line-height:1.25;font-family:'Ubuntu Mono';-inkscape-font-specification:'Ubuntu Mono';letter-spacing:0px;word-spacing:0px;fill:#808080;fill-opacity:1;stroke:none;stroke-width:0.26458332;"
       x="22.451086"
       y="36.960037"
       id="text925"><tspan
         sodipodi:role="line"
         id="tspan923"
         x="22.451086"
         y="36.960037"
         style="font-style:normal;font-variant:normal;font-weight:normal;font-stretch:normal;font-size:2.82222223px;font-family:'Ubuntu Mono';-inkscape-font-specification:'Ubuntu Mono';stroke-width:0.26458332;fill:#808080;fill-opacity:1;">4</tspan></text>
    <text
       xml:space="preserve"
       style="font-style:normal;font-variant:normal;font-weight:normal;font-stretch:normal;font-size:2.82222223px;line-height:1.25;font-family:'Ubuntu Mono';-inkscape-font-specification:'Ubuntu Mono';letter-spacing:0px;word-spacing:0px;fill:#808080;fill-opacity:1;stroke:none;stroke-width:0.26458332;"
       x="39.451084"
       y="33.960037"
       id="text929"><tspan
         sodipodi:role="line"
         id="tspan927"
         x="39.451084"
         y="33.960037"
         style="font-style:normal;font-variant:normal;font-weight:normal;font-stretch:normal;font-size:2.82222223px;font-family:'Ubuntu Mono';-inkscape-font-specification:'Ubuntu Mono';stroke-width:0.26458332;fill:#808080;fill-opacity:1;">4</tspan></text>
    <text
       xml:space="preserve"
       style="font-style:normal;font-variant:normal;font-weight:normal;font-stretch:normal;font-size:2.82222223px;line-height:1.25;font-family:'Ubuntu Mono';-inkscape-font-specification:'Ubuntu Mono';letter-spacing:0px;word-spacing:0px;fill:#808080;fill-opacity:1;stroke:none;stroke-width:0.26458332;"
       x="59.430416"
       y="33.960037"
       id="text933"><tspan
         sodipodi:role="line"
         id="tspan931"
         x="59.430416"
         y="33.960037"
         style="font-style:normal;font-variant:normal;font-weight:normal;font-stretch:normal;font-size:2.82222223px;font-family:'Ubuntu Mono';-inkscape-font-specification:'Ubuntu Mono';stroke-width:0.26458332;fill:#808080;fill-opacity:1;">3</tspan></text>
    <text
       xml:space="preserve"
       style="font-style:normal;font-weight:normal;font-size:2.82222223px;line-height:1.25;font-family:'Ubuntu Mono';letter-spacing:0px;word-spacing:0px;fill:#808080;fill-opacity:1;stroke:none;stroke-width:0.26458332;-inkscape-font-specification:'Ubuntu Mono';font-stretch:normal;font-variant:normal;"
       x="67.397346"
       y="49.960037"
       id="text937"><tspan
         sodipodi:role="line"
         id="tspan935"
         x="67.397346"
         y="49.960037"
         style="font-size:2.82222223px;stroke-width:0.26458332;-inkscape-font-specification:'Ubuntu Mono';font-family:'Ubuntu Mono';font-weight:normal;font-style:normal;font-stretch:normal;font-variant:normal;fill:#808080;fill-opacity:1;">8</tspan></text>
    <text
       xml:space="preserve"
       style="font-style:normal;font-variant:normal;font-weight:normal;font-stretch:normal;font-size:2.82222223px;line-height:1.25;font-family:'Ubuntu Mono';-inkscape-font-specification:'Ubuntu Mono';letter-spacing:0px;word-spacing:0px;fill:#808080;fill-opacity:1;stroke:none;stroke-width:0.26458332;"
       x="15.397341"
       y="45.960041"
       id="text941"><tspan
         sodipodi:role="line"
         id="tspan939"
         x="15.397341"
         y="45.960041"
         style="font-style:normal;font-variant:normal;font-weight:normal;font-stretch:normal;font-size:2.82222223px;font-family:'Ubuntu Mono';-inkscape-font-specification:'Ubuntu Mono';stroke-width:0.26458332;fill:#808080;fill-opacity:1;">8</tspan></text>
    <path
       style="fill:none;stroke:#000000;stroke-width:0.26458332px;stroke-linecap:butt;stroke-linejoin:miter;stroke-opacity:1"
       d="M 59.999999,35.999998 61,34"
       id="path947"
       inkscape:connector-curvature="0" />
    <path
       style="fill:none;stroke:#000000;stroke-width:0.26458332px;stroke-linecap:butt;stroke-linejoin:miter;stroke-opacity:1"
       d="M 40,35.999998 41,34"
       id="path949"
       inkscape:connector-curvature="0" />
    <path
       style="fill:none;stroke:#000000;stroke-width:0.26458332px;stroke-linecap:butt;stroke-linejoin:miter;stroke-opacity:1"
       d="m 67.999999,51.999998 1,-1.999999"
       id="path951"
       inkscape:connector-curvature="0" />
    <path
       style="fill:none;stroke:#000000;stroke-width:0.26458332px;stroke-linecap:butt;stroke-linejoin:miter;stroke-opacity:1"
       d="m 16,48 1,-1.999999"
       id="path953"
       inkscape:connector-curvature="0" />
    <path
       style="fill:none;stroke:#000000;stroke-width:0.26458332px;stroke-linecap:butt;stroke-linejoin:miter;stroke-opacity:1"
       d="m 23,39 1,-2.000001"
       id="path955"
       inkscape:connector-curvature="0" />
    <path
       style="fill:none;stroke:#000000;stroke-width:0.26458332px;stroke-linecap:butt;stroke-linejoin:miter;stroke-opacity:1"
       d="m 15,38 h 8"
       id="path957"
       inkscape:connector-curvature="0" />
    <path
       style="fill:none;stroke:#000000;stroke-width:0.26458332px;stroke-linecap:butt;stroke-linejoin:miter;stroke-opacity:1"
       d="m 20,38 1,-1.000001 v -12 h 15 v 6.000002"
       id="path959"
       inkscape:connector-curvature="0" />
    <text
       xml:space="preserve"
       style="font-style:normal;font-weight:normal;font-size:2.82222223px;line-height:1.25;font-family:'Ubuntu Mono';letter-spacing:0px;word-spacing:0px;fill:#808080;fill-opacity:1;stroke:none;stroke-width:0.26458332;-inkscape-font-specification:'Ubuntu Mono';font-stretch:normal;font-variant:normal;"
       x="22.464865"
       y="24"
       id="text925-1"><tspan
         sodipodi:role="line"
         id="tspan923-8"
         x="22.464865"
         y="24"
         style="font-size:2.82222223px;stroke-width:0.26458332;-inkscape-font-specification:'Ubuntu Mono';font-family:'Ubuntu Mono';font-weight:normal;font-style:normal;font-stretch:normal;font-variant:normal;fill:#808080;fill-opacity:1;">1</tspan></text>
    <path
       style="fill:none;stroke:#000000;stroke-width:0.26458332px;stroke-linecap:butt;stroke-linejoin:miter;stroke-opacity:1"
       d="m 23,26 1,-2.000001"
       id="path955-7"
       inkscape:connector-curvature="0" />
    <text
       xml:space="preserve"
       style="font-style:normal;font-variant:normal;font-weight:normal;font-stretch:normal;font-size:2.82222223px;line-height:1.25;font-family:'Ubuntu Mono';-inkscape-font-specification:'Ubuntu Mono';letter-spacing:0px;word-spacing:0px;fill:#808080;fill-opacity:1;stroke:none;stroke-width:0.26458332;"
       x="15.382183"
       y="36.960037"
       id="text925-9"><tspan
         sodipodi:role="line"
         id="tspan923-2"
         x="15.382183"
         y="36.960037"
         style="font-style:normal;font-variant:normal;font-weight:normal;font-stretch:normal;font-size:2.82222223px;font-family:'Ubuntu Mono';-inkscape-font-specification:'Ubuntu Mono';stroke-width:0.26458332;fill:#808080;fill-opacity:1;">5</tspan></text>
    <path
       style="fill:none;stroke:#000000;stroke-width:0.26458332px;stroke-linecap:butt;stroke-linejoin:miter;stroke-opacity:1"
       d="m 16,39 1,-2.000001"
       id="path955-0"
       inkscape:connector-curvature="0" />
    <text
       xml:space="preserve"
       style="font-style:normal;font-weight:normal;font-size:4.23333311px;line-height:1.25;font-family:'Ubuntu Mono';letter-spacing:0px;word-spacing:0px;fill:#000000;fill-opacity:1;stroke:none;stroke-width:0.26458332;-inkscape-font-specification:'Ubuntu Mono';font-stretch:normal;font-variant:normal;"
       x="28"
       y="24"
       id="text994"><tspan
         sodipodi:role="line"
         id="tspan992"
         x="28"
         y="24"
         style="stroke-width:0.26458332;-inkscape-font-specification:'Ubuntu Mono';font-family:'Ubuntu Mono';font-weight:normal;font-style:normal;font-stretch:normal;font-variant:normal;">MSB(<tspan
   style="font-style:normal;font-variant:normal;font-weight:normal;font-stretch:normal;font-family:'Ubuntu Mono';-inkscape-font-specification:'Ubuntu Mono';"
   id="tspan1008">t</tspan>)</tspan></text>
    <text
       xml:space="preserve"
       style="font-style:normal;font-weight:normal;font-size:4.23333311px;line-height:1.25;font-family:'Ubuntu Mono';letter-spacing:0px;word-spacing:0px;fill:#000000;fill-opacity:1;stroke:none;stroke-width:0.26458332;-inkscape-font-specification:'Ubuntu Mono';font-stretch:normal;font-variant:normal;"
       x="12.671667"
       y="38.961899"
       id="text998"><tspan
         sodipodi:role="line"
         id="tspan996"
         x="12.671667"
         y="38.961899"
         style="font-style:normal;font-variant:normal;font-weight:normal;font-stretch:normal;font-family:'Ubuntu Mono';-inkscape-font-specification:'Ubuntu Mono';stroke-width:0.26458332;">t</tspan></text>
    <text
       xml:space="preserve"
       style="font-style:normal;font-weight:normal;font-size:4.23333311px;line-height:1.25;font-family:'Ubuntu Mono';letter-spacing:0px;word-spacing:0px;fill:#000000;fill-opacity:1;stroke:none;stroke-width:0.26458332;-inkscape-font-specification:'Ubuntu Mono';font-stretch:normal;font-variant:normal;"
       x="12.5997"
       y="48"
       id="text1002"><tspan
         sodipodi:role="line"
         id="tspan1000"
         x="12.5997"
         y="48"
         style="font-style:normal;font-variant:normal;font-weight:normal;font-stretch:normal;font-family:'Ubuntu Mono';-inkscape-font-specification:'Ubuntu Mono';stroke-width:0.26458332;">x</tspan></text>
    <text
       xml:space="preserve"
       style="font-style:normal;font-variant:normal;font-weight:normal;font-stretch:normal;font-size:4.23333311px;line-height:1.25;font-family:'Ubuntu Mono';-inkscape-font-specification:'Ubuntu Mono';letter-spacing:0px;word-spacing:0px;fill:#000000;fill-opacity:1;stroke:none;stroke-width:0.26458332"
       x="69.948013"
       y="51.626534"
       id="text1006"><tspan
         sodipodi:role="line"
         id="tspan1004"
         x="69.948013"
         y="51.626534"
         style="font-style:normal;font-variant:normal;font-weight:normal;font-stretch:normal;font-family:'Ubuntu Mono';-inkscape-font-specification:'Ubuntu Mono';stroke-width:0.26458332">y</tspan></text>
    <ellipse
       style="fill:none;fill-opacity:1;stroke:#000000;stroke-width:0.26499999;stroke-miterlimit:4;stroke-dasharray:none;stroke-opacity:1"
       id="path1026"
       cx="70.5"
       cy="21"
       rx="17.5"
       ry="7" />
    <path
       style="fill:none;stroke:#000000;stroke-width:0.26458332px;stroke-linecap:butt;stroke-linejoin:miter;stroke-opacity:1"
       d="M 50,35 C 53.350489,29.457728 46.719324,24.559338 53,21"
       id="path1028"
       inkscape:connector-curvature="0"
       sodipodi:nodetypes="cc" />
    <text
       xml:space="preserve"
       style="font-style:normal;font-variant:normal;font-weight:normal;font-stretch:normal;font-size:4.23333311px;line-height:1.25;font-family:serif;-inkscape-font-specification:serif;text-align:center;letter-spacing:0px;word-spacing:0px;text-anchor:middle;fill:#000000;fill-opacity:1;stroke:none;stroke-width:0.26458332"
       x="27.074049"
       y="11.289237"
       id="text2568"><tspan
         sodipodi:role="line"
         id="tspan2566"
         x="27.074049"
         y="11.289237"
         style="font-style:normal;font-variant:normal;font-weight:normal;font-stretch:normal;font-family:'TeX Gyre Termes';-inkscape-font-specification:'TeX Gyre Termes';text-align:center;text-anchor:middle;stroke-width:0.26458332">logdropWindow</tspan><tspan
         sodipodi:role="line"
         x="27.074049"
         y="16.67926"
         style="font-style:normal;font-variant:normal;font-weight:normal;font-stretch:normal;font-family:'TeX Gyre Termes';-inkscape-font-specification:'TeX Gyre Termes';text-align:center;text-anchor:middle;stroke-width:0.26458332"
         id="tspan2570">y(t) = w(t[4:0]) x(t)</tspan></text>
    <text
       xml:space="preserve"
       style="font-style:normal;font-variant:normal;font-weight:normal;font-stretch:normal;font-size:4.23333311px;line-height:1.25;font-family:serif;-inkscape-font-specification:serif;letter-spacing:0px;word-spacing:0px;fill:#000000;fill-opacity:1;stroke:none;stroke-width:0.26458332"
       x="69"
       y="80"
       id="text2574"><tspan
         sodipodi:role="line"
         id="tspan2572"
         x="69"
         y="83.745506"
         style="stroke-width:0.26458332" /></text>
  </g>
</svg>
